<?xml version="1.0" standalone="no"?><!DOCTYPE svg PUBLIC "-//W3C//DTD SVG 1.1//EN" "http://www.w3.org/Graphics/SVG/1.1/DTD/svg11.dtd"><svg xmlns="http://www.w3.org/2000/svg" version="1.1" width="104px" height="28.4px" viewBox="0 -3 104 28.4" style="top:-3px">  <desc>Project &amp; Change Management</desc>  <defs/>  <g id="Polygon17164">    <path d="M 21.7 12.5 L 23.6 12.5 L 25.5 17.4 L 27.4 12.5 L 29.3 12.5 L 29.3 19.6 L 28.1 19.6 L 28.1 13.7 L 28.1 13.7 L 26 19.6 L 25.1 19.6 L 22.9 13.7 L 22.9 13.7 L 22.9 19.6 L 21.7 19.6 L 21.7 12.5 Z M 33.8 18.9 C 33.8 18.9 33.82 18.9 33.8 18.9 C 33.5 19.4 32.9 19.7 32.3 19.7 C 31.4 19.7 30.5 19.2 30.5 18.2 C 30.5 16.7 32.3 16.6 33.5 16.6 C 33.55 16.57 33.8 16.6 33.8 16.6 C 33.8 16.6 33.85 16.44 33.8 16.4 C 33.8 15.8 33.4 15.5 32.7 15.5 C 32.2 15.5 31.8 15.7 31.5 16 C 31.5 16 30.8 15.4 30.8 15.4 C 31.4 14.9 32.1 14.6 32.9 14.6 C 34.9 14.6 34.9 16.1 34.9 16.8 C 34.93 16.8 34.9 19.6 34.9 19.6 L 33.8 19.6 L 33.8 18.9 Z M 33.8 17.4 C 33.8 17.4 33.53 17.41 33.5 17.4 C 32.9 17.4 31.7 17.5 31.7 18.2 C 31.7 18.6 32.2 18.8 32.6 18.8 C 33.4 18.8 33.8 18.4 33.8 17.7 C 33.78 17.68 33.8 17.4 33.8 17.4 Z M 36.2 14.8 L 37.4 14.8 L 37.4 15.5 C 37.4 15.5 37.38 15.53 37.4 15.5 C 37.6 15.1 38 14.6 38.8 14.6 C 40.1 14.6 40.6 15.5 40.6 16.5 C 40.6 16.53 40.6 19.6 40.6 19.6 L 39.4 19.6 C 39.4 19.6 39.4 17.13 39.4 17.1 C 39.4 16.6 39.4 15.7 38.5 15.7 C 37.7 15.7 37.4 16.3 37.4 16.9 C 37.42 16.94 37.4 19.6 37.4 19.6 L 36.2 19.6 L 36.2 14.8 Z M 45 18.9 C 45 18.9 44.93 18.9 44.9 18.9 C 44.6 19.4 44 19.7 43.4 19.7 C 42.5 19.7 41.6 19.2 41.6 18.2 C 41.6 16.7 43.5 16.6 44.7 16.6 C 44.66 16.57 45 16.6 45 16.6 C 45 16.6 44.96 16.44 45 16.4 C 45 15.8 44.5 15.5 43.9 15.5 C 43.4 15.5 42.9 15.7 42.6 16 C 42.6 16 41.9 15.4 41.9 15.4 C 42.5 14.9 43.2 14.6 44 14.6 C 46 14.6 46 16.1 46 16.8 C 46.04 16.8 46 19.6 46 19.6 L 45 19.6 L 45 18.9 Z M 44.9 17.4 C 44.9 17.4 44.64 17.41 44.6 17.4 C 44 17.4 42.8 17.5 42.8 18.2 C 42.8 18.6 43.3 18.8 43.7 18.8 C 44.5 18.8 44.9 18.4 44.9 17.7 C 44.89 17.68 44.9 17.4 44.9 17.4 Z M 52.3 14.8 C 52.3 14.8 52.27 19.13 52.3 19.1 C 52.3 20.9 51.4 22 49.6 22 C 48.7 22 47.9 21.8 47.2 21.2 C 47.2 21.2 47.9 20.2 47.9 20.2 C 48.4 20.6 48.9 20.9 49.5 20.9 C 50.7 20.9 51.1 20.2 51.1 19.3 C 51.07 19.27 51.1 18.9 51.1 18.9 C 51.1 18.9 51.05 18.92 51 18.9 C 50.7 19.4 50.1 19.6 49.5 19.6 C 48 19.6 47.1 18.5 47.1 17.2 C 47.1 15.7 48 14.6 49.5 14.6 C 50.1 14.6 50.8 14.9 51.1 15.5 C 51.11 15.48 51.1 15.5 51.1 15.5 L 51.1 14.8 L 52.3 14.8 Z M 48.3 17.1 C 48.3 17.9 48.9 18.5 49.7 18.5 C 50.6 18.5 51.1 17.9 51.1 17.1 C 51.1 16.3 50.6 15.7 49.7 15.7 C 48.9 15.7 48.3 16.3 48.3 17.1 Z M 54.6 17.6 C 54.7 18.3 55.2 18.7 55.9 18.7 C 56.5 18.7 56.9 18.4 57.2 18.1 C 57.2 18.1 58 18.7 58 18.7 C 57.5 19.4 56.8 19.7 56 19.7 C 54.5 19.7 53.4 18.7 53.4 17.2 C 53.4 15.6 54.5 14.6 56 14.6 C 57.3 14.6 58.2 15.6 58.2 17.2 C 58.25 17.25 58.2 17.6 58.2 17.6 C 58.2 17.6 54.59 17.58 54.6 17.6 Z M 57 16.7 C 57 16 56.6 15.5 55.8 15.5 C 55.1 15.5 54.7 16 54.6 16.7 C 54.6 16.7 57 16.7 57 16.7 Z M 59.3 14.8 L 60.5 14.8 L 60.5 15.5 C 60.5 15.5 60.48 15.51 60.5 15.5 C 60.7 15.1 61.1 14.6 61.9 14.6 C 62.7 14.6 63.2 14.9 63.4 15.5 C 63.8 14.9 64.3 14.6 65 14.6 C 66.3 14.6 66.8 15.5 66.8 16.7 C 66.76 16.7 66.8 19.6 66.8 19.6 L 65.6 19.6 C 65.6 19.6 65.56 16.84 65.6 16.8 C 65.6 16.2 65.4 15.7 64.7 15.7 C 63.9 15.7 63.6 16.3 63.6 17 C 63.64 16.96 63.6 19.6 63.6 19.6 L 62.4 19.6 C 62.4 19.6 62.44 16.7 62.4 16.7 C 62.4 16.1 62.2 15.7 61.6 15.7 C 60.8 15.7 60.5 16.3 60.5 16.9 C 60.52 16.94 60.5 19.6 60.5 19.6 L 59.3 19.6 L 59.3 14.8 Z M 69 17.6 C 69.1 18.3 69.6 18.7 70.3 18.7 C 70.9 18.7 71.3 18.4 71.6 18.1 C 71.6 18.1 72.5 18.7 72.5 18.7 C 71.9 19.4 71.2 19.7 70.4 19.7 C 69 19.7 67.8 18.7 67.8 17.2 C 67.8 15.6 69 14.6 70.4 14.6 C 71.8 14.6 72.7 15.6 72.7 17.2 C 72.69 17.25 72.7 17.6 72.7 17.6 C 72.7 17.6 69.03 17.58 69 17.6 Z M 71.5 16.7 C 71.5 16 71 15.5 70.3 15.5 C 69.6 15.5 69.1 16 69 16.7 C 69 16.7 71.5 16.7 71.5 16.7 Z M 73.8 14.8 L 74.9 14.8 L 74.9 15.5 C 74.9 15.5 74.97 15.53 75 15.5 C 75.2 15.1 75.6 14.6 76.4 14.6 C 77.7 14.6 78.2 15.5 78.2 16.5 C 78.19 16.53 78.2 19.6 78.2 19.6 L 77 19.6 C 77 19.6 76.99 17.13 77 17.1 C 77 16.6 76.9 15.7 76.1 15.7 C 75.3 15.7 75 16.3 75 16.9 C 75.01 16.94 75 19.6 75 19.6 L 73.8 19.6 L 73.8 14.8 Z M 79 15.8 L 79 14.8 L 80 14.8 L 80 13.4 L 81.2 13.4 L 81.2 14.8 L 82.5 14.8 L 82.5 15.8 L 81.2 15.8 C 81.2 15.8 81.18 17.88 81.2 17.9 C 81.2 18.4 81.3 18.7 81.8 18.7 C 82.1 18.7 82.3 18.6 82.5 18.5 C 82.5 18.5 82.5 19.5 82.5 19.5 C 82.2 19.6 81.8 19.7 81.5 19.7 C 80.3 19.7 80 19.1 80 18 C 79.98 17.98 80 15.8 80 15.8 L 79 15.8 Z " stroke="none" fill="#fff"/>  </g>  <g id="Polygon17163">    <path d="M 11.6 0.5 C 11.6 0.5 13.98 0.48 14 0.5 C 15.4 0.5 16.6 1 16.6 2.5 C 16.6 4.3 15.3 4.6 13.8 4.6 C 13.76 4.63 12.9 4.6 12.9 4.6 L 12.9 7.6 L 11.6 7.6 L 11.6 0.5 Z M 13.6 3.6 C 14.3 3.6 15.3 3.5 15.3 2.5 C 15.3 1.7 14.4 1.6 13.8 1.6 C 13.76 1.56 12.9 1.6 12.9 1.6 L 12.9 3.6 C 12.9 3.6 13.62 3.55 13.6 3.6 Z M 17.6 2.8 L 18.8 2.8 L 18.8 3.5 C 18.8 3.5 18.82 3.52 18.8 3.5 C 19.1 3 19.6 2.6 20.2 2.6 C 20.4 2.6 20.5 2.7 20.7 2.7 C 20.7 2.7 20.7 3.9 20.7 3.9 C 20.5 3.8 20.3 3.8 20.1 3.8 C 19 3.8 18.8 4.7 18.8 5 C 18.8 4.99 18.8 7.6 18.8 7.6 L 17.6 7.6 L 17.6 2.8 Z M 23.7 2.6 C 25.1 2.6 26.3 3.6 26.3 5.2 C 26.3 6.7 25.1 7.7 23.7 7.7 C 22.2 7.7 21.1 6.7 21.1 5.2 C 21.1 3.6 22.2 2.6 23.7 2.6 Z M 23.7 6.6 C 24.6 6.6 25.1 5.9 25.1 5.2 C 25.1 4.4 24.6 3.7 23.7 3.7 C 22.8 3.7 22.3 4.4 22.3 5.2 C 22.3 5.9 22.8 6.6 23.7 6.6 Z M 28.6 2.8 C 28.6 2.8 28.63 7.85 28.6 7.9 C 28.6 9.1 28.4 10 27 10 C 26.8 10 26.6 9.9 26.4 9.9 C 26.4 9.9 26.5 8.8 26.5 8.8 C 26.6 8.9 26.7 8.9 26.8 8.9 C 27.4 8.9 27.4 8.3 27.4 7.9 C 27.43 7.86 27.4 2.8 27.4 2.8 L 28.6 2.8 Z M 28 0.4 C 28.5 0.4 28.8 0.7 28.8 1.1 C 28.8 1.5 28.5 1.8 28 1.8 C 27.6 1.8 27.3 1.5 27.3 1.1 C 27.3 0.8 27.6 0.4 28 0.4 Z M 31 5.6 C 31.1 6.3 31.6 6.7 32.3 6.7 C 32.9 6.7 33.3 6.4 33.6 6.1 C 33.6 6.1 34.4 6.7 34.4 6.7 C 33.9 7.4 33.1 7.7 32.4 7.7 C 30.9 7.7 29.8 6.7 29.8 5.2 C 29.8 3.6 30.9 2.6 32.4 2.6 C 33.7 2.6 34.6 3.6 34.6 5.2 C 34.63 5.25 34.6 5.6 34.6 5.6 C 34.6 5.6 30.97 5.58 31 5.6 Z M 33.4 4.7 C 33.4 4 33 3.5 32.2 3.5 C 31.5 3.5 31.1 4 31 4.7 C 31 4.7 33.4 4.7 33.4 4.7 Z M 39 4.2 C 38.8 3.9 38.4 3.7 38.1 3.7 C 37.2 3.7 36.7 4.4 36.7 5.2 C 36.7 5.9 37.2 6.6 38.1 6.6 C 38.5 6.6 38.8 6.4 39.1 6.2 C 39.1 6.2 39.9 7 39.9 7 C 39.4 7.5 38.5 7.7 38.1 7.7 C 36.7 7.7 35.5 6.7 35.5 5.2 C 35.5 3.6 36.7 2.6 38.1 2.6 C 38.7 2.6 39.4 2.9 39.9 3.4 C 39.9 3.4 39 4.2 39 4.2 Z M 40 3.8 L 40 2.8 L 41 2.8 L 41 1.4 L 42.2 1.4 L 42.2 2.8 L 43.5 2.8 L 43.5 3.8 L 42.2 3.8 C 42.2 3.8 42.2 5.88 42.2 5.9 C 42.2 6.4 42.3 6.7 42.9 6.7 C 43.1 6.7 43.4 6.6 43.5 6.5 C 43.5 6.5 43.5 7.5 43.5 7.5 C 43.3 7.6 42.9 7.7 42.6 7.7 C 41.3 7.7 41 7.1 41 6 C 41 5.98 41 3.8 41 3.8 L 40 3.8 Z M 52.5 5.9 L 54 7.6 L 52.5 7.6 C 52.5 7.6 51.71 6.75 51.7 6.8 C 51.1 7.4 50.5 7.7 49.6 7.7 C 48.4 7.7 47.2 7 47.2 5.7 C 47.2 4.7 47.9 4 48.8 3.7 C 48.3 3.2 47.9 2.7 47.9 2 C 47.9 0.9 48.9 0.3 50 0.3 C 51 0.3 52 0.8 52 2 C 52 2.8 51.3 3.4 50.6 3.8 C 50.56 3.81 51.7 5 51.7 5 L 52.5 3.8 L 53.9 3.8 L 52.5 5.9 Z M 49.1 2.1 C 49.1 2.5 49.5 2.8 49.8 3.1 C 50.2 2.9 50.8 2.6 50.8 2 C 50.8 1.7 50.4 1.4 50 1.4 C 49.5 1.4 49.1 1.7 49.1 2.1 Z M 49.5 4.4 C 49 4.7 48.5 5 48.5 5.6 C 48.5 6.2 49.1 6.7 49.7 6.7 C 50.2 6.7 50.6 6.3 51 6 C 51 6 49.5 4.4 49.5 4.4 Z M 62.8 2.1 C 62.2 1.6 61.8 1.4 61.3 1.4 C 59.8 1.4 58.8 2.6 58.8 4 C 58.8 5.5 59.8 6.6 61.3 6.6 C 61.8 6.6 62.4 6.3 62.9 5.7 C 62.9 5.7 63.9 6.5 63.9 6.5 C 63.3 7.4 62.3 7.7 61.3 7.7 C 59.1 7.7 57.5 6.3 57.5 4 C 57.5 1.8 59.1 0.3 61.3 0.3 C 62.2 0.3 63 0.6 63.7 1.4 C 63.7 1.4 62.8 2.1 62.8 2.1 Z M 65.8 3.4 C 65.8 3.4 65.86 3.43 65.9 3.4 C 66.1 3 66.5 2.6 67.3 2.6 C 68.6 2.6 69 3.5 69 4.5 C 69.02 4.53 69 7.6 69 7.6 L 67.8 7.6 C 67.8 7.6 67.82 5.13 67.8 5.1 C 67.8 4.6 67.8 3.7 66.9 3.7 C 66.2 3.7 65.8 4.3 65.8 4.9 C 65.84 4.94 65.8 7.6 65.8 7.6 L 64.6 7.6 L 64.6 0 L 65.8 0 L 65.8 3.4 Z M 73.4 6.9 C 73.4 6.9 73.35 6.9 73.4 6.9 C 73 7.4 72.5 7.7 71.8 7.7 C 70.9 7.7 70.1 7.2 70.1 6.2 C 70.1 4.7 71.9 4.6 73.1 4.6 C 73.08 4.57 73.4 4.6 73.4 4.6 C 73.4 4.6 73.38 4.44 73.4 4.4 C 73.4 3.8 72.9 3.5 72.3 3.5 C 71.8 3.5 71.3 3.7 71 4 C 71 4 70.4 3.4 70.4 3.4 C 70.9 2.9 71.7 2.6 72.4 2.6 C 74.5 2.6 74.5 4.1 74.5 4.8 C 74.46 4.8 74.5 7.6 74.5 7.6 L 73.4 7.6 L 73.4 6.9 Z M 73.3 5.4 C 73.3 5.4 73.06 5.41 73.1 5.4 C 72.4 5.4 71.3 5.5 71.3 6.2 C 71.3 6.6 71.7 6.8 72.1 6.8 C 72.9 6.8 73.3 6.4 73.3 5.7 C 73.31 5.68 73.3 5.4 73.3 5.4 Z M 75.8 2.8 L 76.9 2.8 L 76.9 3.5 C 76.9 3.5 76.91 3.53 76.9 3.5 C 77.1 3.1 77.6 2.6 78.4 2.6 C 79.7 2.6 80.1 3.5 80.1 4.5 C 80.13 4.53 80.1 7.6 80.1 7.6 L 78.9 7.6 C 78.9 7.6 78.93 5.13 78.9 5.1 C 78.9 4.6 78.9 3.7 78.1 3.7 C 77.3 3.7 77 4.3 77 4.9 C 76.95 4.94 77 7.6 77 7.6 L 75.8 7.6 L 75.8 2.8 Z M 86.4 2.8 C 86.4 2.8 86.43 7.13 86.4 7.1 C 86.4 8.9 85.6 10 83.7 10 C 82.8 10 82 9.8 81.3 9.2 C 81.3 9.2 82.1 8.2 82.1 8.2 C 82.5 8.6 83 8.9 83.7 8.9 C 84.9 8.9 85.2 8.2 85.2 7.3 C 85.23 7.27 85.2 6.9 85.2 6.9 C 85.2 6.9 85.21 6.92 85.2 6.9 C 84.9 7.4 84.2 7.6 83.6 7.6 C 82.2 7.6 81.3 6.5 81.3 5.2 C 81.3 3.7 82.1 2.6 83.6 2.6 C 84.3 2.6 84.9 2.9 85.3 3.5 C 85.27 3.48 85.3 3.5 85.3 3.5 L 85.3 2.8 L 86.4 2.8 Z M 82.5 5.1 C 82.5 5.9 83.1 6.5 83.9 6.5 C 84.8 6.5 85.3 5.9 85.3 5.1 C 85.3 4.3 84.7 3.7 83.9 3.7 C 83 3.7 82.5 4.3 82.5 5.1 Z M 88.8 5.6 C 88.8 6.3 89.4 6.7 90 6.7 C 90.6 6.7 91 6.4 91.3 6.1 C 91.3 6.1 92.2 6.7 92.2 6.7 C 91.6 7.4 90.9 7.7 90.2 7.7 C 88.7 7.7 87.6 6.7 87.6 5.2 C 87.6 3.6 88.7 2.6 90.2 2.6 C 91.5 2.6 92.4 3.6 92.4 5.2 C 92.41 5.25 92.4 5.6 92.4 5.6 C 92.4 5.6 88.75 5.58 88.8 5.6 Z M 91.2 4.7 C 91.2 4 90.7 3.5 90 3.5 C 89.3 3.5 88.8 4 88.8 4.7 C 88.8 4.7 91.2 4.7 91.2 4.7 Z " stroke="none" fill="#fff"/>  </g></svg>