<?xml version="1.0" standalone="no"?><!DOCTYPE svg PUBLIC "-//W3C//DTD SVG 1.1//EN" "http://www.w3.org/Graphics/SVG/1.1/DTD/svg11.dtd"><svg xmlns="http://www.w3.org/2000/svg" version="1.1" width="78.1px" height="28.4px" viewBox="0 -3 78.1 28.4" style="top:-3px">  <desc>Risk, Regulatory &amp; Compliance</desc>  <defs/>  <g id="Polygon16944">    <path d="M 12.2 17.9 L 13.7 19.6 L 12.2 19.6 C 12.2 19.6 11.45 18.75 11.4 18.8 C 10.9 19.4 10.3 19.7 9.4 19.7 C 8.1 19.7 7 19 7 17.7 C 7 16.7 7.6 16 8.5 15.7 C 8 15.2 7.7 14.7 7.7 14 C 7.7 12.9 8.6 12.3 9.7 12.3 C 10.8 12.3 11.7 12.8 11.7 14 C 11.7 14.8 11 15.4 10.3 15.8 C 10.3 15.81 11.4 17 11.4 17 L 12.2 15.8 L 13.6 15.8 L 12.2 17.9 Z M 8.9 14.1 C 8.9 14.5 9.2 14.8 9.5 15.1 C 10 14.9 10.5 14.6 10.5 14 C 10.5 13.7 10.2 13.4 9.7 13.4 C 9.3 13.4 8.9 13.7 8.9 14.1 Z M 9.2 16.4 C 8.8 16.7 8.3 17 8.3 17.6 C 8.3 18.2 8.8 18.7 9.4 18.7 C 9.9 18.7 10.3 18.3 10.7 18 C 10.7 18 9.2 16.4 9.2 16.4 Z M 22.5 14.1 C 22 13.6 21.5 13.4 21 13.4 C 19.5 13.4 18.6 14.6 18.6 16 C 18.6 17.5 19.5 18.6 21 18.6 C 21.6 18.6 22.1 18.3 22.6 17.7 C 22.6 17.7 23.6 18.5 23.6 18.5 C 23 19.4 22 19.7 21 19.7 C 18.8 19.7 17.3 18.3 17.3 16 C 17.3 13.8 18.8 12.3 21 12.3 C 22 12.3 22.8 12.6 23.5 13.4 C 23.5 13.4 22.5 14.1 22.5 14.1 Z M 26.7 14.6 C 28.2 14.6 29.4 15.6 29.4 17.2 C 29.4 18.7 28.2 19.7 26.7 19.7 C 25.3 19.7 24.1 18.7 24.1 17.2 C 24.1 15.6 25.3 14.6 26.7 14.6 Z M 26.7 18.6 C 27.6 18.6 28.2 17.9 28.2 17.2 C 28.2 16.4 27.6 15.7 26.7 15.7 C 25.9 15.7 25.3 16.4 25.3 17.2 C 25.3 17.9 25.9 18.6 26.7 18.6 Z M 30.4 14.8 L 31.6 14.8 L 31.6 15.5 C 31.6 15.5 31.59 15.51 31.6 15.5 C 31.8 15.1 32.3 14.6 33.1 14.6 C 33.8 14.6 34.3 14.9 34.6 15.5 C 34.9 14.9 35.4 14.6 36.1 14.6 C 37.4 14.6 37.9 15.5 37.9 16.7 C 37.87 16.7 37.9 19.6 37.9 19.6 L 36.7 19.6 C 36.7 19.6 36.67 16.84 36.7 16.8 C 36.7 16.2 36.5 15.7 35.8 15.7 C 35 15.7 34.7 16.3 34.7 17 C 34.75 16.96 34.7 19.6 34.7 19.6 L 33.5 19.6 C 33.5 19.6 33.55 16.7 33.5 16.7 C 33.5 16.1 33.3 15.7 32.7 15.7 C 31.9 15.7 31.6 16.3 31.6 16.9 C 31.63 16.94 31.6 19.6 31.6 19.6 L 30.4 19.6 L 30.4 14.8 Z M 39.2 14.8 L 40.3 14.8 L 40.3 15.5 C 40.3 15.5 40.34 15.48 40.3 15.5 C 40.7 14.9 41.3 14.6 42 14.6 C 43.5 14.6 44.4 15.7 44.4 17.2 C 44.4 18.6 43.4 19.7 42 19.7 C 41.1 19.7 40.7 19.3 40.4 19 C 40.41 18.95 40.4 19 40.4 19 L 40.4 21.8 L 39.2 21.8 L 39.2 14.8 Z M 41.7 15.7 C 40.9 15.7 40.3 16.4 40.3 17.2 C 40.3 17.9 40.9 18.6 41.7 18.6 C 42.6 18.6 43.2 17.9 43.2 17.2 C 43.2 16.4 42.6 15.7 41.7 15.7 Z M 45.5 12 L 46.7 12 L 46.7 19.6 L 45.5 19.6 L 45.5 12 Z M 48.1 14.8 L 49.3 14.8 L 49.3 19.6 L 48.1 19.6 L 48.1 14.8 Z M 48.7 12.4 C 49.1 12.4 49.5 12.7 49.5 13.1 C 49.5 13.5 49.1 13.8 48.7 13.8 C 48.2 13.8 47.9 13.5 47.9 13.1 C 47.9 12.8 48.2 12.4 48.7 12.4 Z M 53.7 18.9 C 53.7 18.9 53.65 18.9 53.6 18.9 C 53.3 19.4 52.7 19.7 52.1 19.7 C 51.2 19.7 50.4 19.2 50.4 18.2 C 50.4 16.7 52.2 16.6 53.4 16.6 C 53.38 16.57 53.7 16.6 53.7 16.6 C 53.7 16.6 53.68 16.44 53.7 16.4 C 53.7 15.8 53.2 15.5 52.6 15.5 C 52.1 15.5 51.6 15.7 51.3 16 C 51.3 16 50.7 15.4 50.7 15.4 C 51.2 14.9 51.9 14.6 52.7 14.6 C 54.8 14.6 54.8 16.1 54.8 16.8 C 54.76 16.8 54.8 19.6 54.8 19.6 L 53.7 19.6 L 53.7 18.9 Z M 53.6 17.4 C 53.6 17.4 53.36 17.41 53.4 17.4 C 52.7 17.4 51.6 17.5 51.6 18.2 C 51.6 18.6 52 18.8 52.4 18.8 C 53.2 18.8 53.6 18.4 53.6 17.7 C 53.61 17.68 53.6 17.4 53.6 17.4 Z M 56 14.8 L 57.2 14.8 L 57.2 15.5 C 57.2 15.5 57.21 15.53 57.2 15.5 C 57.4 15.1 57.9 14.6 58.7 14.6 C 60 14.6 60.4 15.5 60.4 16.5 C 60.43 16.53 60.4 19.6 60.4 19.6 L 59.2 19.6 C 59.2 19.6 59.23 17.13 59.2 17.1 C 59.2 16.6 59.2 15.7 58.3 15.7 C 57.6 15.7 57.2 16.3 57.2 16.9 C 57.25 16.94 57.2 19.6 57.2 19.6 L 56 19.6 L 56 14.8 Z M 65.1 16.2 C 64.8 15.9 64.5 15.7 64.2 15.7 C 63.3 15.7 62.7 16.4 62.7 17.2 C 62.7 17.9 63.3 18.6 64.2 18.6 C 64.5 18.6 64.9 18.4 65.1 18.2 C 65.1 18.2 65.9 19 65.9 19 C 65.4 19.5 64.6 19.7 64.2 19.7 C 62.7 19.7 61.5 18.7 61.5 17.2 C 61.5 15.6 62.7 14.6 64.2 14.6 C 64.8 14.6 65.4 14.9 65.9 15.4 C 65.9 15.4 65.1 16.2 65.1 16.2 Z M 67.6 17.6 C 67.6 18.3 68.2 18.7 68.9 18.7 C 69.5 18.7 69.8 18.4 70.1 18.1 C 70.1 18.1 71 18.7 71 18.7 C 70.4 19.4 69.7 19.7 69 19.7 C 67.5 19.7 66.4 18.7 66.4 17.2 C 66.4 15.6 67.5 14.6 69 14.6 C 70.3 14.6 71.2 15.6 71.2 17.2 C 71.23 17.25 71.2 17.6 71.2 17.6 C 71.2 17.6 67.57 17.58 67.6 17.6 Z M 70 16.7 C 70 16 69.6 15.5 68.8 15.5 C 68.1 15.5 67.7 16 67.6 16.7 C 67.6 16.7 70 16.7 70 16.7 Z " stroke="none" fill="#fff"/>  </g>  <g id="Polygon16943">    <path d="M 2 0.5 C 2 0.5 4.45 0.48 4.4 0.5 C 5.8 0.5 7.1 0.9 7.1 2.5 C 7.1 3.5 6.5 4.3 5.4 4.4 C 5.45 4.43 7.3 7.6 7.3 7.6 L 5.8 7.6 L 4.2 4.6 L 3.2 4.6 L 3.2 7.6 L 2 7.6 L 2 0.5 Z M 4.2 3.5 C 4.9 3.5 5.8 3.4 5.8 2.5 C 5.8 1.7 5 1.6 4.3 1.6 C 4.34 1.56 3.2 1.6 3.2 1.6 L 3.2 3.5 C 3.2 3.5 4.23 3.48 4.2 3.5 Z M 8.2 2.8 L 9.4 2.8 L 9.4 7.6 L 8.2 7.6 L 8.2 2.8 Z M 8.8 0.4 C 9.2 0.4 9.6 0.7 9.6 1.1 C 9.6 1.5 9.2 1.8 8.8 1.8 C 8.3 1.8 8 1.5 8 1.1 C 8 0.8 8.3 0.4 8.8 0.4 Z M 13.3 4.1 C 13.1 3.8 12.8 3.6 12.4 3.6 C 12.1 3.6 11.7 3.8 11.7 4.1 C 11.7 5 14.3 4.3 14.3 6.1 C 14.3 7.3 13.2 7.7 12.2 7.7 C 11.5 7.7 10.8 7.5 10.3 6.9 C 10.3 6.9 11.1 6.2 11.1 6.2 C 11.5 6.5 11.8 6.8 12.3 6.8 C 12.6 6.8 13.1 6.6 13.1 6.2 C 13.1 5.2 10.5 6 10.5 4.2 C 10.5 3.1 11.5 2.6 12.4 2.6 C 13.1 2.6 13.7 2.8 14.1 3.4 C 14.1 3.4 13.3 4.1 13.3 4.1 Z M 15.2 0 L 16.4 0 L 16.4 4.8 L 18.3 2.8 L 19.8 2.8 L 17.7 4.9 L 19.9 7.6 L 18.3 7.6 L 16.4 5.1 L 16.4 5.1 L 16.4 7.6 L 15.2 7.6 L 15.2 0 Z M 21 6.2 L 22.2 6.2 L 21.4 8.8 L 20.3 8.8 L 21 6.2 Z M 26.6 0.5 C 26.6 0.5 29.08 0.48 29.1 0.5 C 30.4 0.5 31.7 0.9 31.7 2.5 C 31.7 3.5 31.1 4.3 30.1 4.4 C 30.08 4.43 32 7.6 32 7.6 L 30.4 7.6 L 28.8 4.6 L 27.9 4.6 L 27.9 7.6 L 26.6 7.6 L 26.6 0.5 Z M 28.9 3.5 C 29.6 3.5 30.4 3.4 30.4 2.5 C 30.4 1.7 29.6 1.6 29 1.6 C 28.97 1.56 27.9 1.6 27.9 1.6 L 27.9 3.5 C 27.9 3.5 28.86 3.48 28.9 3.5 Z M 33.8 5.6 C 33.8 6.3 34.4 6.7 35.1 6.7 C 35.7 6.7 36 6.4 36.3 6.1 C 36.3 6.1 37.2 6.7 37.2 6.7 C 36.6 7.4 35.9 7.7 35.2 7.7 C 33.7 7.7 32.6 6.7 32.6 5.2 C 32.6 3.6 33.7 2.6 35.2 2.6 C 36.5 2.6 37.4 3.6 37.4 5.2 C 37.43 5.25 37.4 5.6 37.4 5.6 C 37.4 5.6 33.77 5.58 33.8 5.6 Z M 36.2 4.7 C 36.2 4 35.8 3.5 35 3.5 C 34.3 3.5 33.9 4 33.8 4.7 C 33.8 4.7 36.2 4.7 36.2 4.7 Z M 43.5 2.8 C 43.5 2.8 43.49 7.13 43.5 7.1 C 43.5 8.9 42.6 10 40.8 10 C 39.9 10 39.1 9.8 38.4 9.2 C 38.4 9.2 39.1 8.2 39.1 8.2 C 39.6 8.6 40.1 8.9 40.8 8.9 C 41.9 8.9 42.3 8.2 42.3 7.3 C 42.29 7.27 42.3 6.9 42.3 6.9 C 42.3 6.9 42.27 6.92 42.3 6.9 C 41.9 7.4 41.3 7.6 40.7 7.6 C 39.3 7.6 38.3 6.5 38.3 5.2 C 38.3 3.7 39.2 2.6 40.7 2.6 C 41.3 2.6 42 2.9 42.3 3.5 C 42.33 3.48 42.3 3.5 42.3 3.5 L 42.3 2.8 L 43.5 2.8 Z M 39.5 5.1 C 39.5 5.9 40.1 6.5 40.9 6.5 C 41.8 6.5 42.3 5.9 42.3 5.1 C 42.3 4.3 41.8 3.7 40.9 3.7 C 40.1 3.7 39.5 4.3 39.5 5.1 Z M 49.2 7.6 L 48.1 7.6 L 48.1 6.8 C 48.1 6.8 48.07 6.79 48.1 6.8 C 47.8 7.3 47.4 7.7 46.6 7.7 C 45.3 7.7 44.8 6.8 44.8 5.8 C 44.85 5.79 44.8 2.8 44.8 2.8 L 46 2.8 C 46 2.8 46.05 5.19 46 5.2 C 46 5.7 46.1 6.6 46.9 6.6 C 47.7 6.6 48 6 48 5.4 C 48.03 5.38 48 2.8 48 2.8 L 49.2 2.8 L 49.2 7.6 Z M 50.6 0 L 51.8 0 L 51.8 7.6 L 50.6 7.6 L 50.6 0 Z M 56.2 6.9 C 56.2 6.9 56.16 6.9 56.2 6.9 C 55.8 7.4 55.3 7.7 54.6 7.7 C 53.7 7.7 52.9 7.2 52.9 6.2 C 52.9 4.7 54.7 4.6 55.9 4.6 C 55.89 4.57 56.2 4.6 56.2 4.6 C 56.2 4.6 56.19 4.44 56.2 4.4 C 56.2 3.8 55.7 3.5 55.1 3.5 C 54.6 3.5 54.1 3.7 53.8 4 C 53.8 4 53.2 3.4 53.2 3.4 C 53.7 2.9 54.5 2.6 55.2 2.6 C 57.3 2.6 57.3 4.1 57.3 4.8 C 57.27 4.8 57.3 7.6 57.3 7.6 L 56.2 7.6 L 56.2 6.9 Z M 56.1 5.4 C 56.1 5.4 55.87 5.41 55.9 5.4 C 55.2 5.4 54.1 5.5 54.1 6.2 C 54.1 6.6 54.5 6.8 54.9 6.8 C 55.7 6.8 56.1 6.4 56.1 5.7 C 56.12 5.68 56.1 5.4 56.1 5.4 Z M 58 3.8 L 58 2.8 L 59 2.8 L 59 1.4 L 60.2 1.4 L 60.2 2.8 L 61.5 2.8 L 61.5 3.8 L 60.2 3.8 C 60.2 3.8 60.19 5.88 60.2 5.9 C 60.2 6.4 60.3 6.7 60.9 6.7 C 61.1 6.7 61.4 6.6 61.5 6.5 C 61.5 6.5 61.5 7.5 61.5 7.5 C 61.3 7.6 60.8 7.7 60.6 7.7 C 59.3 7.7 59 7.1 59 6 C 58.99 5.98 59 3.8 59 3.8 L 58 3.8 Z M 64.8 2.6 C 66.3 2.6 67.4 3.6 67.4 5.2 C 67.4 6.7 66.3 7.7 64.8 7.7 C 63.4 7.7 62.2 6.7 62.2 5.2 C 62.2 3.6 63.4 2.6 64.8 2.6 Z M 64.8 6.6 C 65.7 6.6 66.2 5.9 66.2 5.2 C 66.2 4.4 65.7 3.7 64.8 3.7 C 63.9 3.7 63.4 4.4 63.4 5.2 C 63.4 5.9 63.9 6.6 64.8 6.6 Z M 68.5 2.8 L 69.7 2.8 L 69.7 3.5 C 69.7 3.5 69.77 3.52 69.8 3.5 C 70 3 70.6 2.6 71.2 2.6 C 71.3 2.6 71.5 2.7 71.6 2.7 C 71.6 2.7 71.6 3.9 71.6 3.9 C 71.4 3.8 71.2 3.8 71 3.8 C 69.9 3.8 69.7 4.7 69.7 5 C 69.75 4.99 69.7 7.6 69.7 7.6 L 68.5 7.6 L 68.5 2.8 Z M 71.8 2.8 L 73.1 2.8 L 74.4 6.1 L 74.5 6.1 L 75.7 2.8 L 76.9 2.8 C 76.9 2.8 74.65 8.59 74.6 8.6 C 74.3 9.5 73.9 10 72.8 10 C 72.5 10 72.2 9.9 71.9 9.8 C 71.9 9.8 72 8.8 72 8.8 C 72.2 8.8 72.4 8.9 72.7 8.9 C 73.2 8.9 73.4 8.7 73.6 8.2 C 73.61 8.17 73.8 7.6 73.8 7.6 L 71.8 2.8 Z " stroke="none" fill="#fff"/>  </g></svg>