<?xml version="1.0" standalone="no"?><!DOCTYPE svg PUBLIC "-//W3C//DTD SVG 1.1//EN" "http://www.w3.org/Graphics/SVG/1.1/DTD/svg11.dtd"><svg xmlns="http://www.w3.org/2000/svg" version="1.1" width="67px" height="16.4px" viewBox="0 -3 67 16.4" style="top:-3px">  <desc>01302 760 008</desc>  <defs/>  <g id="Polygon18131">    <path d="M 5.2 4 C 5.2 5.6 4.8 7.7 2.8 7.7 C 0.7 7.7 0.4 5.6 0.4 4 C 0.4 2.4 0.7 0.4 2.8 0.4 C 4.8 0.4 5.2 2.4 5.2 4 Z M 1.1 4 C 1.1 5.1 1.2 7 2.8 7 C 4.3 7 4.5 5.1 4.5 4 C 4.5 2.9 4.3 1 2.8 1 C 1.2 1 1.1 2.9 1.1 4 Z M 9 7.6 L 8.3 7.6 L 8.3 1.4 L 7.1 2.5 L 6.6 2 L 8.4 0.5 L 9 0.5 L 9 7.6 Z M 13.2 3.5 C 13.2 3.5 13.53 3.52 13.5 3.5 C 14.4 3.5 15.1 3.2 15.1 2.2 C 15.1 1.5 14.6 1 13.8 1 C 13.2 1 12.7 1.3 12.4 1.8 C 12.4 1.8 11.8 1.5 11.8 1.5 C 12.2 0.7 12.9 0.4 13.8 0.4 C 14.9 0.4 15.8 1 15.8 2.2 C 15.8 3 15.3 3.6 14.6 3.8 C 14.6 3.8 14.6 3.8 14.6 3.8 C 15.4 4 16 4.7 16 5.6 C 16 7 15 7.7 13.7 7.7 C 12.7 7.7 11.9 7.3 11.5 6.3 C 11.5 6.3 12.3 6 12.3 6 C 12.5 6.7 12.9 7 13.8 7 C 14.6 7 15.3 6.5 15.3 5.6 C 15.3 4.5 14.4 4.2 13.5 4.2 C 13.47 4.18 13.2 4.2 13.2 4.2 L 13.2 3.5 Z M 21.9 4 C 21.9 5.6 21.5 7.7 19.5 7.7 C 17.4 7.7 17.1 5.6 17.1 4 C 17.1 2.4 17.4 0.4 19.5 0.4 C 21.5 0.4 21.9 2.4 21.9 4 Z M 17.8 4 C 17.8 5.1 17.9 7 19.5 7 C 21 7 21.1 5.1 21.1 4 C 21.1 2.9 21 1 19.5 1 C 17.9 1 17.8 2.9 17.8 4 Z M 27.2 7.6 L 22.7 7.6 L 22.7 6.7 C 22.7 6.7 25.54 3.86 25.5 3.9 C 26 3.4 26.4 2.9 26.4 2.3 C 26.4 1.5 25.8 1 25.1 1 C 24.4 1 23.8 1.4 23.7 2.1 C 23.7 2.1 22.9 2 22.9 2 C 23.1 1 23.9 0.4 25 0.4 C 26.2 0.4 27.2 1 27.2 2.2 C 27.2 3.3 26.4 4 25.7 4.7 C 25.73 4.69 23.5 6.9 23.5 6.9 L 27.2 6.9 L 27.2 7.6 Z M 35.3 1.1 L 32.5 7.6 L 31.7 7.6 L 34.6 1.1 L 31.1 1.1 L 31.1 0.5 L 35.3 0.5 L 35.3 1.1 Z M 38.1 3.5 C 38.1 3.5 38.08 3.54 38.1 3.5 C 38.3 3.4 38.7 3.3 39.1 3.3 C 40.3 3.3 41.2 4.2 41.2 5.5 C 41.2 6.8 40.3 7.7 38.9 7.7 C 37.6 7.7 36.6 6.8 36.6 5.5 C 36.6 4.7 36.9 4.2 37.2 3.6 C 37.23 3.59 39.1 0.5 39.1 0.5 L 40 0.5 L 38.1 3.5 Z M 38.9 7 C 39.9 7 40.5 6.4 40.5 5.5 C 40.5 4.6 39.9 4 38.9 4 C 38 4 37.3 4.6 37.3 5.5 C 37.3 6.4 38 7 38.9 7 Z M 46.9 4 C 46.9 5.6 46.5 7.7 44.5 7.7 C 42.4 7.7 42.1 5.6 42.1 4 C 42.1 2.4 42.4 0.4 44.5 0.4 C 46.5 0.4 46.9 2.4 46.9 4 Z M 42.8 4 C 42.8 5.1 42.9 7 44.5 7 C 46 7 46.2 5.1 46.2 4 C 46.2 2.9 46 1 44.5 1 C 42.9 1 42.8 2.9 42.8 4 Z M 55.2 4 C 55.2 5.6 54.8 7.7 52.8 7.7 C 50.8 7.7 50.4 5.6 50.4 4 C 50.4 2.4 50.8 0.4 52.8 0.4 C 54.8 0.4 55.2 2.4 55.2 4 Z M 51.1 4 C 51.1 5.1 51.3 7 52.8 7 C 54.4 7 54.5 5.1 54.5 4 C 54.5 2.9 54.4 1 52.8 1 C 51.3 1 51.1 2.9 51.1 4 Z M 60.8 4 C 60.8 5.6 60.4 7.7 58.4 7.7 C 56.3 7.7 56 5.6 56 4 C 56 2.4 56.3 0.4 58.4 0.4 C 60.4 0.4 60.8 2.4 60.8 4 Z M 56.7 4 C 56.7 5.1 56.8 7 58.4 7 C 59.9 7 60.1 5.1 60.1 4 C 60.1 2.9 59.9 1 58.4 1 C 56.8 1 56.7 2.9 56.7 4 Z M 63 3.8 C 62.4 3.6 62 2.9 62 2.2 C 62 1.1 62.9 0.4 63.9 0.4 C 65 0.4 65.9 1.1 65.9 2.2 C 65.9 2.9 65.5 3.6 64.9 3.8 C 64.9 3.8 64.9 3.8 64.9 3.8 C 65.7 4 66.2 4.7 66.2 5.7 C 66.2 6.9 65.1 7.7 63.9 7.7 C 62.7 7.7 61.7 6.9 61.7 5.7 C 61.7 4.7 62.2 4 63 3.8 C 63 3.8 63 3.8 63 3.8 Z M 63.9 1 C 63.2 1 62.7 1.5 62.7 2.3 C 62.7 3 63.2 3.5 63.9 3.5 C 64.7 3.5 65.2 3 65.2 2.3 C 65.2 1.5 64.7 1 63.9 1 Z M 63.9 4.1 C 63 4.1 62.4 4.7 62.4 5.6 C 62.4 6.4 63 7 63.9 7 C 64.9 7 65.5 6.4 65.5 5.6 C 65.5 4.7 64.9 4.1 63.9 4.1 Z " stroke="none" fill="#4c4d4f"/>  </g></svg>