<?xml version="1.0" standalone="no"?><!DOCTYPE svg PUBLIC "-//W3C//DTD SVG 1.1//EN" "http://www.w3.org/Graphics/SVG/1.1/DTD/svg11.dtd"><svg xmlns="http://www.w3.org/2000/svg" version="1.1" width="81px" height="28.4px" viewBox="0 -3 81 28.4" style="top:-3px">  <desc>Subject Matter Experts</desc>  <defs/>  <g id="Polygon16724">    <path d="M 23.3 12.5 L 28 12.5 L 28 13.6 L 24.5 13.6 L 24.5 15.4 L 27.8 15.4 L 27.8 16.5 L 24.5 16.5 L 24.5 18.4 L 28.1 18.4 L 28.1 19.6 L 23.3 19.6 L 23.3 12.5 Z M 30.5 17 L 28.9 14.8 L 30.3 14.8 L 31.3 16.2 L 32.3 14.8 L 33.7 14.8 L 32 17 L 34 19.6 L 32.5 19.6 L 31.3 17.8 L 30 19.6 L 28.6 19.6 L 30.5 17 Z M 34.6 14.8 L 35.8 14.8 L 35.8 15.5 C 35.8 15.5 35.8 15.48 35.8 15.5 C 36.2 14.9 36.8 14.6 37.5 14.6 C 38.9 14.6 39.8 15.7 39.8 17.2 C 39.8 18.6 38.9 19.7 37.5 19.7 C 36.6 19.7 36.1 19.3 35.9 19 C 35.87 18.95 35.8 19 35.8 19 L 35.8 21.8 L 34.6 21.8 L 34.6 14.8 Z M 37.2 15.7 C 36.3 15.7 35.8 16.4 35.8 17.2 C 35.8 17.9 36.3 18.6 37.2 18.6 C 38.1 18.6 38.6 17.9 38.6 17.2 C 38.6 16.4 38.1 15.7 37.2 15.7 Z M 41.9 17.6 C 42 18.3 42.5 18.7 43.2 18.7 C 43.8 18.7 44.2 18.4 44.5 18.1 C 44.5 18.1 45.3 18.7 45.3 18.7 C 44.8 19.4 44.1 19.7 43.3 19.7 C 41.9 19.7 40.7 18.7 40.7 17.2 C 40.7 15.6 41.9 14.6 43.3 14.6 C 44.7 14.6 45.6 15.6 45.6 17.2 C 45.56 17.25 45.6 17.6 45.6 17.6 C 45.6 17.6 41.9 17.58 41.9 17.6 Z M 44.4 16.7 C 44.4 16 43.9 15.5 43.1 15.5 C 42.4 15.5 42 16 41.9 16.7 C 41.9 16.7 44.4 16.7 44.4 16.7 Z M 46.7 14.8 L 47.9 14.8 L 47.9 15.5 C 47.9 15.5 47.9 15.52 47.9 15.5 C 48.2 15 48.7 14.6 49.3 14.6 C 49.5 14.6 49.6 14.7 49.8 14.7 C 49.8 14.7 49.8 15.9 49.8 15.9 C 49.6 15.8 49.4 15.8 49.2 15.8 C 48 15.8 47.9 16.7 47.9 17 C 47.88 16.99 47.9 19.6 47.9 19.6 L 46.7 19.6 L 46.7 14.8 Z M 50 15.8 L 50 14.8 L 51 14.8 L 51 13.4 L 52.2 13.4 L 52.2 14.8 L 53.5 14.8 L 53.5 15.8 L 52.2 15.8 C 52.2 15.8 52.2 17.88 52.2 17.9 C 52.2 18.4 52.3 18.7 52.9 18.7 C 53.1 18.7 53.4 18.6 53.5 18.5 C 53.5 18.5 53.5 19.5 53.5 19.5 C 53.3 19.6 52.9 19.7 52.6 19.7 C 51.3 19.7 51 19.1 51 18 C 51.01 17.98 51 15.8 51 15.8 L 50 15.8 Z M 57 16.1 C 56.8 15.8 56.5 15.6 56.1 15.6 C 55.8 15.6 55.4 15.8 55.4 16.1 C 55.4 17 58 16.3 58 18.1 C 58 19.3 56.9 19.7 55.9 19.7 C 55.2 19.7 54.5 19.5 54 18.9 C 54 18.9 54.8 18.2 54.8 18.2 C 55.1 18.5 55.5 18.8 56 18.8 C 56.3 18.8 56.8 18.6 56.8 18.2 C 56.8 17.2 54.2 18 54.2 16.2 C 54.2 15.1 55.1 14.6 56.1 14.6 C 56.8 14.6 57.4 14.8 57.8 15.4 C 57.8 15.4 57 16.1 57 16.1 Z " stroke="none" fill="#000"/>  </g>  <g id="Polygon16723">    <path d="M 9.7 2 C 9.4 1.6 9 1.4 8.5 1.4 C 7.9 1.4 7.3 1.7 7.3 2.3 C 7.3 3.8 10.7 3 10.7 5.5 C 10.7 7 9.5 7.7 8.1 7.7 C 7.2 7.7 6.3 7.5 5.8 6.8 C 5.8 6.8 6.7 5.9 6.7 5.9 C 7 6.3 7.5 6.6 8.1 6.6 C 8.7 6.6 9.3 6.3 9.3 5.6 C 9.3 4.1 6 5 6 2.4 C 6 1 7.3 0.3 8.6 0.3 C 9.3 0.3 10.1 0.5 10.6 1 C 10.6 1 9.7 2 9.7 2 Z M 16.2 7.6 L 15.1 7.6 L 15.1 6.8 C 15.1 6.8 15.08 6.79 15.1 6.8 C 14.9 7.3 14.4 7.7 13.6 7.7 C 12.3 7.7 11.9 6.8 11.9 5.8 C 11.86 5.79 11.9 2.8 11.9 2.8 L 13.1 2.8 C 13.1 2.8 13.06 5.19 13.1 5.2 C 13.1 5.7 13.1 6.6 13.9 6.6 C 14.7 6.6 15 6 15 5.4 C 15.04 5.38 15 2.8 15 2.8 L 16.2 2.8 L 16.2 7.6 Z M 17.6 0 L 18.8 0 L 18.8 3.4 C 18.8 3.4 18.83 3.37 18.8 3.4 C 19.1 3.1 19.6 2.6 20.5 2.6 C 21.8 2.6 22.8 3.7 22.8 5.2 C 22.8 6.6 21.9 7.7 20.4 7.7 C 19.7 7.7 19.1 7.4 18.8 6.8 C 18.76 6.84 18.7 6.8 18.7 6.8 L 18.7 7.6 L 17.6 7.6 L 17.6 0 Z M 20.2 3.7 C 19.3 3.7 18.8 4.4 18.8 5.2 C 18.8 5.9 19.3 6.6 20.2 6.6 C 21.1 6.6 21.6 5.9 21.6 5.2 C 21.6 4.4 21.1 3.7 20.2 3.7 Z M 25.1 2.8 C 25.1 2.8 25.12 7.85 25.1 7.9 C 25.1 9.1 24.9 10 23.5 10 C 23.3 10 23.1 9.9 22.9 9.9 C 22.9 9.9 22.9 8.8 22.9 8.8 C 23.1 8.9 23.2 8.9 23.3 8.9 C 23.9 8.9 23.9 8.3 23.9 7.9 C 23.92 7.86 23.9 2.8 23.9 2.8 L 25.1 2.8 Z M 24.5 0.4 C 25 0.4 25.3 0.7 25.3 1.1 C 25.3 1.5 25 1.8 24.5 1.8 C 24.1 1.8 23.8 1.5 23.8 1.1 C 23.8 0.8 24.1 0.4 24.5 0.4 Z M 27.5 5.6 C 27.5 6.3 28.1 6.7 28.8 6.7 C 29.4 6.7 29.7 6.4 30 6.1 C 30 6.1 30.9 6.7 30.9 6.7 C 30.3 7.4 29.6 7.7 28.9 7.7 C 27.4 7.7 26.3 6.7 26.3 5.2 C 26.3 3.6 27.4 2.6 28.9 2.6 C 30.2 2.6 31.1 3.6 31.1 5.2 C 31.12 5.25 31.1 5.6 31.1 5.6 C 31.1 5.6 27.46 5.58 27.5 5.6 Z M 29.9 4.7 C 29.9 4 29.5 3.5 28.7 3.5 C 28 3.5 27.5 4 27.5 4.7 C 27.5 4.7 29.9 4.7 29.9 4.7 Z M 35.5 4.2 C 35.2 3.9 34.9 3.7 34.6 3.7 C 33.7 3.7 33.2 4.4 33.2 5.2 C 33.2 5.9 33.7 6.6 34.6 6.6 C 35 6.6 35.3 6.4 35.5 6.2 C 35.5 6.2 36.3 7 36.3 7 C 35.8 7.5 35 7.7 34.6 7.7 C 33.2 7.7 32 6.7 32 5.2 C 32 3.6 33.2 2.6 34.6 2.6 C 35.2 2.6 35.9 2.9 36.3 3.4 C 36.3 3.4 35.5 4.2 35.5 4.2 Z M 36.5 3.8 L 36.5 2.8 L 37.5 2.8 L 37.5 1.4 L 38.7 1.4 L 38.7 2.8 L 40 2.8 L 40 3.8 L 38.7 3.8 C 38.7 3.8 38.69 5.88 38.7 5.9 C 38.7 6.4 38.8 6.7 39.4 6.7 C 39.6 6.7 39.9 6.6 40 6.5 C 40 6.5 40 7.5 40 7.5 C 39.8 7.6 39.3 7.7 39.1 7.7 C 37.8 7.7 37.5 7.1 37.5 6 C 37.49 5.98 37.5 3.8 37.5 3.8 L 36.5 3.8 Z M 44.1 0.5 L 46 0.5 L 47.9 5.4 L 49.8 0.5 L 51.7 0.5 L 51.7 7.6 L 50.5 7.6 L 50.5 1.7 L 50.5 1.7 L 48.3 7.6 L 47.4 7.6 L 45.3 1.7 L 45.2 1.7 L 45.2 7.6 L 44.1 7.6 L 44.1 0.5 Z M 56.2 6.9 C 56.2 6.9 56.14 6.9 56.1 6.9 C 55.8 7.4 55.2 7.7 54.6 7.7 C 53.7 7.7 52.9 7.2 52.9 6.2 C 52.9 4.7 54.7 4.6 55.9 4.6 C 55.87 4.57 56.2 4.6 56.2 4.6 C 56.2 4.6 56.17 4.44 56.2 4.4 C 56.2 3.8 55.7 3.5 55.1 3.5 C 54.6 3.5 54.1 3.7 53.8 4 C 53.8 4 53.2 3.4 53.2 3.4 C 53.7 2.9 54.4 2.6 55.2 2.6 C 57.2 2.6 57.2 4.1 57.2 4.8 C 57.25 4.8 57.2 7.6 57.2 7.6 L 56.2 7.6 L 56.2 6.9 Z M 56.1 5.4 C 56.1 5.4 55.85 5.41 55.9 5.4 C 55.2 5.4 54 5.5 54 6.2 C 54 6.6 54.5 6.8 54.9 6.8 C 55.7 6.8 56.1 6.4 56.1 5.7 C 56.1 5.68 56.1 5.4 56.1 5.4 Z M 58 3.8 L 58 2.8 L 59 2.8 L 59 1.4 L 60.2 1.4 L 60.2 2.8 L 61.5 2.8 L 61.5 3.8 L 60.2 3.8 C 60.2 3.8 60.17 5.88 60.2 5.9 C 60.2 6.4 60.3 6.7 60.8 6.7 C 61 6.7 61.3 6.6 61.5 6.5 C 61.5 6.5 61.5 7.5 61.5 7.5 C 61.2 7.6 60.8 7.7 60.5 7.7 C 59.3 7.7 59 7.1 59 6 C 58.97 5.98 59 3.8 59 3.8 L 58 3.8 Z M 61.9 3.8 L 61.9 2.8 L 62.9 2.8 L 62.9 1.4 L 64.1 1.4 L 64.1 2.8 L 65.4 2.8 L 65.4 3.8 L 64.1 3.8 C 64.1 3.8 64.06 5.88 64.1 5.9 C 64.1 6.4 64.2 6.7 64.7 6.7 C 64.9 6.7 65.2 6.6 65.4 6.5 C 65.4 6.5 65.4 7.5 65.4 7.5 C 65.1 7.6 64.7 7.7 64.4 7.7 C 63.2 7.7 62.9 7.1 62.9 6 C 62.86 5.98 62.9 3.8 62.9 3.8 L 61.9 3.8 Z M 67.3 5.6 C 67.4 6.3 67.9 6.7 68.6 6.7 C 69.2 6.7 69.6 6.4 69.9 6.1 C 69.9 6.1 70.7 6.7 70.7 6.7 C 70.2 7.4 69.5 7.7 68.7 7.7 C 67.2 7.7 66.1 6.7 66.1 5.2 C 66.1 3.6 67.2 2.6 68.7 2.6 C 70 2.6 70.9 3.6 70.9 5.2 C 70.94 5.25 70.9 5.6 70.9 5.6 C 70.9 5.6 67.28 5.58 67.3 5.6 Z M 69.7 4.7 C 69.7 4 69.3 3.5 68.5 3.5 C 67.8 3.5 67.4 4 67.3 4.7 C 67.3 4.7 69.7 4.7 69.7 4.7 Z M 72.1 2.8 L 73.3 2.8 L 73.3 3.5 C 73.3 3.5 73.28 3.52 73.3 3.5 C 73.5 3 74.1 2.6 74.7 2.6 C 74.8 2.6 75 2.7 75.1 2.7 C 75.1 2.7 75.1 3.9 75.1 3.9 C 74.9 3.8 74.7 3.8 74.5 3.8 C 73.4 3.8 73.3 4.7 73.3 5 C 73.26 4.99 73.3 7.6 73.3 7.6 L 72.1 7.6 L 72.1 2.8 Z " stroke="none" fill="#000"/>  </g></svg>