<?xml version="1.0" standalone="no"?><!DOCTYPE svg PUBLIC "-//W3C//DTD SVG 1.1//EN" "http://www.w3.org/Graphics/SVG/1.1/DTD/svg11.dtd"><svg xmlns="http://www.w3.org/2000/svg" version="1.1" width="104px" height="28.4px" viewBox="0 -3 104 28.4" style="top:-3px">  <desc>Professional Qualifications</desc>  <defs/>  <g id="Polygon17357">    <path d="M 28.4 19.6 C 28.4 19.6 24.24 19.56 24.2 19.6 C 22 19.6 20.4 18.2 20.4 15.9 C 20.4 13.8 22.1 12.3 24.1 12.3 C 26.1 12.3 27.8 13.8 27.8 15.9 C 27.8 17.4 27 18.1 26.3 18.5 C 26.33 18.52 26.3 18.5 26.3 18.5 L 28.4 18.5 L 28.4 19.6 Z M 21.7 15.9 C 21.7 17.4 22.7 18.4 24.1 18.4 C 25.5 18.4 26.5 17.4 26.5 15.9 C 26.5 14.5 25.5 13.4 24.1 13.4 C 22.7 13.4 21.7 14.5 21.7 15.9 Z M 33.6 19.6 L 32.4 19.6 L 32.4 18.8 C 32.4 18.8 32.39 18.79 32.4 18.8 C 32.2 19.3 31.7 19.7 30.9 19.7 C 29.6 19.7 29.2 18.8 29.2 17.8 C 29.17 17.79 29.2 14.8 29.2 14.8 L 30.4 14.8 C 30.4 14.8 30.37 17.19 30.4 17.2 C 30.4 17.7 30.4 18.6 31.3 18.6 C 32 18.6 32.4 18 32.4 17.4 C 32.35 17.38 32.4 14.8 32.4 14.8 L 33.6 14.8 L 33.6 19.6 Z M 37.9 18.9 C 37.9 18.9 37.88 18.9 37.9 18.9 C 37.5 19.4 37 19.7 36.3 19.7 C 35.5 19.7 34.6 19.2 34.6 18.2 C 34.6 16.7 36.4 16.6 37.6 16.6 C 37.61 16.57 37.9 16.6 37.9 16.6 C 37.9 16.6 37.91 16.44 37.9 16.4 C 37.9 15.8 37.5 15.5 36.8 15.5 C 36.3 15.5 35.9 15.7 35.5 16 C 35.5 16 34.9 15.4 34.9 15.4 C 35.4 14.9 36.2 14.6 36.9 14.6 C 39 14.6 39 16.1 39 16.8 C 38.99 16.8 39 19.6 39 19.6 L 37.9 19.6 L 37.9 18.9 Z M 37.8 17.4 C 37.8 17.4 37.59 17.41 37.6 17.4 C 36.9 17.4 35.8 17.5 35.8 18.2 C 35.8 18.6 36.2 18.8 36.6 18.8 C 37.5 18.8 37.8 18.4 37.8 17.7 C 37.84 17.68 37.8 17.4 37.8 17.4 Z M 40.3 12 L 41.5 12 L 41.5 19.6 L 40.3 19.6 L 40.3 12 Z M 42.9 14.8 L 44.1 14.8 L 44.1 19.6 L 42.9 19.6 L 42.9 14.8 Z M 43.5 12.4 C 43.9 12.4 44.3 12.7 44.3 13.1 C 44.3 13.5 43.9 13.8 43.5 13.8 C 43.1 13.8 42.7 13.5 42.7 13.1 C 42.7 12.8 43.1 12.4 43.5 12.4 Z M 45.9 15.8 L 44.9 15.8 L 44.9 14.8 L 45.9 14.8 C 45.9 14.8 45.91 14.08 45.9 14.1 C 45.9 12.7 46.2 11.9 47.7 11.9 C 48 11.9 48.2 11.9 48.5 11.9 C 48.5 11.9 48.4 13 48.4 13 C 48.2 12.9 48.1 12.9 47.9 12.9 C 47.2 12.9 47.1 13.4 47.1 13.9 C 47.11 13.89 47.1 14.8 47.1 14.8 L 48.2 14.8 L 48.2 15.8 L 47.1 15.8 L 47.1 19.6 L 45.9 19.6 L 45.9 15.8 Z M 49 14.8 L 50.2 14.8 L 50.2 19.6 L 49 19.6 L 49 14.8 Z M 49.6 12.4 C 50 12.4 50.4 12.7 50.4 13.1 C 50.4 13.5 50 13.8 49.6 13.8 C 49.2 13.8 48.8 13.5 48.8 13.1 C 48.8 12.8 49.2 12.4 49.6 12.4 Z M 54.7 16.2 C 54.4 15.9 54.1 15.7 53.8 15.7 C 52.9 15.7 52.4 16.4 52.4 17.2 C 52.4 17.9 52.9 18.6 53.8 18.6 C 54.2 18.6 54.5 18.4 54.7 18.2 C 54.7 18.2 55.5 19 55.5 19 C 55 19.5 54.2 19.7 53.8 19.7 C 52.3 19.7 51.2 18.7 51.2 17.2 C 51.2 15.6 52.3 14.6 53.8 14.6 C 54.4 14.6 55.1 14.9 55.5 15.4 C 55.5 15.4 54.7 16.2 54.7 16.2 Z M 59.2 18.9 C 59.2 18.9 59.2 18.9 59.2 18.9 C 58.9 19.4 58.3 19.7 57.7 19.7 C 56.8 19.7 55.9 19.2 55.9 18.2 C 55.9 16.7 57.7 16.6 58.9 16.6 C 58.93 16.57 59.2 16.6 59.2 16.6 C 59.2 16.6 59.23 16.44 59.2 16.4 C 59.2 15.8 58.8 15.5 58.1 15.5 C 57.6 15.5 57.2 15.7 56.9 16 C 56.9 16 56.2 15.4 56.2 15.4 C 56.8 14.9 57.5 14.6 58.3 14.6 C 60.3 14.6 60.3 16.1 60.3 16.8 C 60.31 16.8 60.3 19.6 60.3 19.6 L 59.2 19.6 L 59.2 18.9 Z M 59.2 17.4 C 59.2 17.4 58.91 17.41 58.9 17.4 C 58.3 17.4 57.1 17.5 57.1 18.2 C 57.1 18.6 57.6 18.8 58 18.8 C 58.8 18.8 59.2 18.4 59.2 17.7 C 59.16 17.68 59.2 17.4 59.2 17.4 Z M 61 15.8 L 61 14.8 L 62 14.8 L 62 13.4 L 63.2 13.4 L 63.2 14.8 L 64.6 14.8 L 64.6 15.8 L 63.2 15.8 C 63.2 15.8 63.23 17.88 63.2 17.9 C 63.2 18.4 63.4 18.7 63.9 18.7 C 64.1 18.7 64.4 18.6 64.6 18.5 C 64.6 18.5 64.6 19.5 64.6 19.5 C 64.3 19.6 63.9 19.7 63.6 19.7 C 62.3 19.7 62 19.1 62 18 C 62.03 17.98 62 15.8 62 15.8 L 61 15.8 Z M 65.5 14.8 L 66.7 14.8 L 66.7 19.6 L 65.5 19.6 L 65.5 14.8 Z M 66.1 12.4 C 66.5 12.4 66.9 12.7 66.9 13.1 C 66.9 13.5 66.5 13.8 66.1 13.8 C 65.7 13.8 65.3 13.5 65.3 13.1 C 65.3 12.8 65.7 12.4 66.1 12.4 Z M 70.5 14.6 C 71.9 14.6 73.1 15.6 73.1 17.2 C 73.1 18.7 71.9 19.7 70.5 19.7 C 69 19.7 67.9 18.7 67.9 17.2 C 67.9 15.6 69 14.6 70.5 14.6 Z M 70.5 18.6 C 71.3 18.6 71.9 17.9 71.9 17.2 C 71.9 16.4 71.3 15.7 70.5 15.7 C 69.6 15.7 69.1 16.4 69.1 17.2 C 69.1 17.9 69.6 18.6 70.5 18.6 Z M 74.2 14.8 L 75.3 14.8 L 75.3 15.5 C 75.3 15.5 75.35 15.53 75.4 15.5 C 75.6 15.1 76 14.6 76.8 14.6 C 78.1 14.6 78.6 15.5 78.6 16.5 C 78.57 16.53 78.6 19.6 78.6 19.6 L 77.4 19.6 C 77.4 19.6 77.37 17.13 77.4 17.1 C 77.4 16.6 77.3 15.7 76.5 15.7 C 75.7 15.7 75.4 16.3 75.4 16.9 C 75.39 16.94 75.4 19.6 75.4 19.6 L 74.2 19.6 L 74.2 14.8 Z M 82.5 16.1 C 82.3 15.8 82 15.6 81.6 15.6 C 81.2 15.6 80.9 15.8 80.9 16.1 C 80.9 17 83.4 16.3 83.4 18.1 C 83.4 19.3 82.4 19.7 81.4 19.7 C 80.6 19.7 80 19.5 79.5 18.9 C 79.5 18.9 80.3 18.2 80.3 18.2 C 80.6 18.5 80.9 18.8 81.4 18.8 C 81.8 18.8 82.2 18.6 82.2 18.2 C 82.2 17.2 79.7 18 79.7 16.2 C 79.7 15.1 80.6 14.6 81.6 14.6 C 82.2 14.6 82.9 14.8 83.3 15.4 C 83.3 15.4 82.5 16.1 82.5 16.1 Z " stroke="none" fill="#fff"/>  </g>  <g id="Polygon17356">    <path d="M 24.4 0.5 C 24.4 0.5 26.77 0.48 26.8 0.5 C 28.1 0.5 29.4 1 29.4 2.5 C 29.4 4.3 28 4.6 26.5 4.6 C 26.55 4.63 25.6 4.6 25.6 4.6 L 25.6 7.6 L 24.4 7.6 L 24.4 0.5 Z M 26.4 3.6 C 27.1 3.6 28.1 3.5 28.1 2.5 C 28.1 1.7 27.2 1.6 26.5 1.6 C 26.55 1.56 25.6 1.6 25.6 1.6 L 25.6 3.6 C 25.6 3.6 26.41 3.55 26.4 3.6 Z M 30.4 2.8 L 31.6 2.8 L 31.6 3.5 C 31.6 3.5 31.61 3.52 31.6 3.5 C 31.9 3 32.4 2.6 33 2.6 C 33.2 2.6 33.3 2.7 33.5 2.7 C 33.5 2.7 33.5 3.9 33.5 3.9 C 33.3 3.8 33.1 3.8 32.9 3.8 C 31.7 3.8 31.6 4.7 31.6 5 C 31.59 4.99 31.6 7.6 31.6 7.6 L 30.4 7.6 L 30.4 2.8 Z M 36.5 2.6 C 37.9 2.6 39.1 3.6 39.1 5.2 C 39.1 6.7 37.9 7.7 36.5 7.7 C 35 7.7 33.9 6.7 33.9 5.2 C 33.9 3.6 35 2.6 36.5 2.6 Z M 36.5 6.6 C 37.3 6.6 37.9 5.9 37.9 5.2 C 37.9 4.4 37.3 3.7 36.5 3.7 C 35.6 3.7 35.1 4.4 35.1 5.2 C 35.1 5.9 35.6 6.6 36.5 6.6 Z M 40.6 3.8 L 39.6 3.8 L 39.6 2.8 L 40.6 2.8 C 40.6 2.8 40.63 2.08 40.6 2.1 C 40.6 0.7 40.9 -0.1 42.4 -0.1 C 42.7 -0.1 42.9 -0.1 43.2 -0.1 C 43.2 -0.1 43.1 1 43.1 1 C 42.9 0.9 42.8 0.9 42.6 0.9 C 41.9 0.9 41.8 1.4 41.8 1.9 C 41.83 1.89 41.8 2.8 41.8 2.8 L 42.9 2.8 L 42.9 3.8 L 41.8 3.8 L 41.8 7.6 L 40.6 7.6 L 40.6 3.8 Z M 44.7 5.6 C 44.8 6.3 45.3 6.7 46 6.7 C 46.6 6.7 47 6.4 47.3 6.1 C 47.3 6.1 48.1 6.7 48.1 6.7 C 47.6 7.4 46.8 7.7 46.1 7.7 C 44.6 7.7 43.5 6.7 43.5 5.2 C 43.5 3.6 44.6 2.6 46.1 2.6 C 47.4 2.6 48.3 3.6 48.3 5.2 C 48.34 5.25 48.3 5.6 48.3 5.6 C 48.3 5.6 44.68 5.58 44.7 5.6 Z M 47.1 4.7 C 47.1 4 46.7 3.5 45.9 3.5 C 45.2 3.5 44.8 4 44.7 4.7 C 44.7 4.7 47.1 4.7 47.1 4.7 Z M 52 4.1 C 51.8 3.8 51.5 3.6 51.1 3.6 C 50.8 3.6 50.4 3.8 50.4 4.1 C 50.4 5 53 4.3 53 6.1 C 53 7.3 51.9 7.7 50.9 7.7 C 50.2 7.7 49.5 7.5 49 6.9 C 49 6.9 49.8 6.2 49.8 6.2 C 50.1 6.5 50.5 6.8 51 6.8 C 51.3 6.8 51.8 6.6 51.8 6.2 C 51.8 5.2 49.2 6 49.2 4.2 C 49.2 3.1 50.1 2.6 51.1 2.6 C 51.7 2.6 52.4 2.8 52.8 3.4 C 52.8 3.4 52 4.1 52 4.1 Z M 56.5 4.1 C 56.2 3.8 55.9 3.6 55.5 3.6 C 55.2 3.6 54.8 3.8 54.8 4.1 C 54.8 5 57.4 4.3 57.4 6.1 C 57.4 7.3 56.3 7.7 55.3 7.7 C 54.6 7.7 54 7.5 53.5 6.9 C 53.5 6.9 54.3 6.2 54.3 6.2 C 54.6 6.5 54.9 6.8 55.4 6.8 C 55.8 6.8 56.2 6.6 56.2 6.2 C 56.2 5.2 53.6 6 53.6 4.2 C 53.6 3.1 54.6 2.6 55.5 2.6 C 56.2 2.6 56.9 2.8 57.3 3.4 C 57.3 3.4 56.5 4.1 56.5 4.1 Z M 58.4 2.8 L 59.6 2.8 L 59.6 7.6 L 58.4 7.6 L 58.4 2.8 Z M 58.9 0.4 C 59.4 0.4 59.7 0.7 59.7 1.1 C 59.7 1.5 59.4 1.8 58.9 1.8 C 58.5 1.8 58.2 1.5 58.2 1.1 C 58.2 0.8 58.5 0.4 58.9 0.4 Z M 63.3 2.6 C 64.8 2.6 65.9 3.6 65.9 5.2 C 65.9 6.7 64.8 7.7 63.3 7.7 C 61.9 7.7 60.7 6.7 60.7 5.2 C 60.7 3.6 61.9 2.6 63.3 2.6 Z M 63.3 6.6 C 64.2 6.6 64.7 5.9 64.7 5.2 C 64.7 4.4 64.2 3.7 63.3 3.7 C 62.4 3.7 61.9 4.4 61.9 5.2 C 61.9 5.9 62.4 6.6 63.3 6.6 Z M 67 2.8 L 68.2 2.8 L 68.2 3.5 C 68.2 3.5 68.2 3.53 68.2 3.5 C 68.4 3.1 68.9 2.6 69.7 2.6 C 71 2.6 71.4 3.5 71.4 4.5 C 71.42 4.53 71.4 7.6 71.4 7.6 L 70.2 7.6 C 70.2 7.6 70.22 5.13 70.2 5.1 C 70.2 4.6 70.2 3.7 69.3 3.7 C 68.5 3.7 68.2 4.3 68.2 4.9 C 68.24 4.94 68.2 7.6 68.2 7.6 L 67 7.6 L 67 2.8 Z M 75.8 6.9 C 75.8 6.9 75.75 6.9 75.7 6.9 C 75.4 7.4 74.8 7.7 74.2 7.7 C 73.3 7.7 72.5 7.2 72.5 6.2 C 72.5 4.7 74.3 4.6 75.5 4.6 C 75.48 4.57 75.8 4.6 75.8 4.6 C 75.8 4.6 75.78 4.44 75.8 4.4 C 75.8 3.8 75.3 3.5 74.7 3.5 C 74.2 3.5 73.7 3.7 73.4 4 C 73.4 4 72.8 3.4 72.8 3.4 C 73.3 2.9 74 2.6 74.8 2.6 C 76.9 2.6 76.9 4.1 76.9 4.8 C 76.86 4.8 76.9 7.6 76.9 7.6 L 75.8 7.6 L 75.8 6.9 Z M 75.7 5.4 C 75.7 5.4 75.46 5.41 75.5 5.4 C 74.8 5.4 73.7 5.5 73.7 6.2 C 73.7 6.6 74.1 6.8 74.5 6.8 C 75.3 6.8 75.7 6.4 75.7 5.7 C 75.71 5.68 75.7 5.4 75.7 5.4 Z M 78.2 0 L 79.4 0 L 79.4 7.6 L 78.2 7.6 L 78.2 0 Z " stroke="none" fill="#fff"/>  </g></svg>