<?xml version="1.0" standalone="no"?><!DOCTYPE svg PUBLIC "-//W3C//DTD SVG 1.1//EN" "http://www.w3.org/Graphics/SVG/1.1/DTD/svg11.dtd"><svg xmlns="http://www.w3.org/2000/svg" version="1.1" width="79px" height="28.4px" viewBox="0 -3 79 28.4" style="top:-3px">  <desc>Learning Designers</desc>  <defs/>  <g id="Polygon16616">    <path d="M 16.9 12.5 C 16.9 12.5 19.66 12.48 19.7 12.5 C 21.5 12.5 23.3 13.6 23.3 16 C 23.3 18.4 21.2 19.6 19.5 19.6 C 19.51 19.56 16.9 19.6 16.9 19.6 L 16.9 12.5 Z M 19.1 18.4 C 20.6 18.4 21.9 17.7 21.9 16 C 21.9 14.3 20.8 13.6 19.3 13.6 C 19.28 13.62 18.1 13.6 18.1 13.6 L 18.1 18.4 C 18.1 18.4 19.07 18.42 19.1 18.4 Z M 25.3 17.6 C 25.4 18.3 25.9 18.7 26.6 18.7 C 27.2 18.7 27.6 18.4 27.9 18.1 C 27.9 18.1 28.7 18.7 28.7 18.7 C 28.2 19.4 27.5 19.7 26.7 19.7 C 25.3 19.7 24.1 18.7 24.1 17.2 C 24.1 15.6 25.3 14.6 26.7 14.6 C 28.1 14.6 29 15.6 29 17.2 C 28.97 17.25 29 17.6 29 17.6 C 29 17.6 25.31 17.58 25.3 17.6 Z M 27.8 16.7 C 27.8 16 27.3 15.5 26.5 15.5 C 25.8 15.5 25.4 16 25.3 16.7 C 25.3 16.7 27.8 16.7 27.8 16.7 Z M 32.6 16.1 C 32.4 15.8 32.1 15.6 31.7 15.6 C 31.4 15.6 31 15.8 31 16.1 C 31 17 33.6 16.3 33.6 18.1 C 33.6 19.3 32.5 19.7 31.5 19.7 C 30.8 19.7 30.1 19.5 29.7 18.9 C 29.7 18.9 30.5 18.2 30.5 18.2 C 30.8 18.5 31.1 18.8 31.6 18.8 C 31.9 18.8 32.4 18.6 32.4 18.2 C 32.4 17.2 29.8 18 29.8 16.2 C 29.8 15.1 30.8 14.6 31.7 14.6 C 32.4 14.6 33.1 14.8 33.4 15.4 C 33.4 15.4 32.6 16.1 32.6 16.1 Z M 34.5 14.8 L 35.7 14.8 L 35.7 19.6 L 34.5 19.6 L 34.5 14.8 Z M 35.1 12.4 C 35.6 12.4 35.9 12.7 35.9 13.1 C 35.9 13.5 35.6 13.8 35.1 13.8 C 34.7 13.8 34.4 13.5 34.4 13.1 C 34.4 12.8 34.7 12.4 35.1 12.4 Z M 42.1 14.8 C 42.1 14.8 42.07 19.13 42.1 19.1 C 42.1 20.9 41.2 22 39.4 22 C 38.5 22 37.7 21.8 37 21.2 C 37 21.2 37.7 20.2 37.7 20.2 C 38.2 20.6 38.7 20.9 39.3 20.9 C 40.5 20.9 40.9 20.2 40.9 19.3 C 40.87 19.27 40.9 18.9 40.9 18.9 C 40.9 18.9 40.85 18.92 40.8 18.9 C 40.5 19.4 39.9 19.6 39.3 19.6 C 37.8 19.6 36.9 18.5 36.9 17.2 C 36.9 15.7 37.8 14.6 39.3 14.6 C 39.9 14.6 40.6 14.9 40.9 15.5 C 40.91 15.48 40.9 15.5 40.9 15.5 L 40.9 14.8 L 42.1 14.8 Z M 38.1 17.1 C 38.1 17.9 38.7 18.5 39.5 18.5 C 40.4 18.5 40.9 17.9 40.9 17.1 C 40.9 16.3 40.4 15.7 39.5 15.7 C 38.7 15.7 38.1 16.3 38.1 17.1 Z M 43.4 14.8 L 44.6 14.8 L 44.6 15.5 C 44.6 15.5 44.59 15.53 44.6 15.5 C 44.8 15.1 45.3 14.6 46.1 14.6 C 47.3 14.6 47.8 15.5 47.8 16.5 C 47.81 16.53 47.8 19.6 47.8 19.6 L 46.6 19.6 C 46.6 19.6 46.61 17.13 46.6 17.1 C 46.6 16.6 46.6 15.7 45.7 15.7 C 44.9 15.7 44.6 16.3 44.6 16.9 C 44.63 16.94 44.6 19.6 44.6 19.6 L 43.4 19.6 L 43.4 14.8 Z M 50.1 17.6 C 50.2 18.3 50.7 18.7 51.4 18.7 C 52 18.7 52.4 18.4 52.7 18.1 C 52.7 18.1 53.6 18.7 53.6 18.7 C 53 19.4 52.3 19.7 51.5 19.7 C 50.1 19.7 48.9 18.7 48.9 17.2 C 48.9 15.6 50.1 14.6 51.5 14.6 C 52.9 14.6 53.8 15.6 53.8 17.2 C 53.79 17.25 53.8 17.6 53.8 17.6 C 53.8 17.6 50.13 17.58 50.1 17.6 Z M 52.6 16.7 C 52.6 16 52.1 15.5 51.4 15.5 C 50.7 15.5 50.2 16 50.1 16.7 C 50.1 16.7 52.6 16.7 52.6 16.7 Z M 54.9 14.8 L 56.1 14.8 L 56.1 15.5 C 56.1 15.5 56.13 15.52 56.1 15.5 C 56.4 15 56.9 14.6 57.5 14.6 C 57.7 14.6 57.8 14.7 58 14.7 C 58 14.7 58 15.9 58 15.9 C 57.8 15.8 57.6 15.8 57.4 15.8 C 56.3 15.8 56.1 16.7 56.1 17 C 56.11 16.99 56.1 19.6 56.1 19.6 L 54.9 19.6 L 54.9 14.8 Z M 61.4 16.1 C 61.1 15.8 60.8 15.6 60.4 15.6 C 60.1 15.6 59.7 15.8 59.7 16.1 C 59.7 17 62.3 16.3 62.3 18.1 C 62.3 19.3 61.2 19.7 60.2 19.7 C 59.5 19.7 58.9 19.5 58.4 18.9 C 58.4 18.9 59.2 18.2 59.2 18.2 C 59.5 18.5 59.8 18.8 60.3 18.8 C 60.7 18.8 61.1 18.6 61.1 18.2 C 61.1 17.2 58.5 18 58.5 16.2 C 58.5 15.1 59.5 14.6 60.4 14.6 C 61.1 14.6 61.8 14.8 62.2 15.4 C 62.2 15.4 61.4 16.1 61.4 16.1 Z " stroke="none" fill="#000"/>  </g>  <g id="Polygon16615">    <path d="M 19.7 0.5 L 21 0.5 L 21 6.4 L 24 6.4 L 24 7.6 L 19.7 7.6 L 19.7 0.5 Z M 25.8 5.6 C 25.9 6.3 26.4 6.7 27.1 6.7 C 27.7 6.7 28.1 6.4 28.4 6.1 C 28.4 6.1 29.2 6.7 29.2 6.7 C 28.7 7.4 27.9 7.7 27.2 7.7 C 25.7 7.7 24.6 6.7 24.6 5.2 C 24.6 3.6 25.7 2.6 27.2 2.6 C 28.5 2.6 29.4 3.6 29.4 5.2 C 29.43 5.25 29.4 5.6 29.4 5.6 C 29.4 5.6 25.77 5.58 25.8 5.6 Z M 28.2 4.7 C 28.2 4 27.8 3.5 27 3.5 C 26.3 3.5 25.9 4 25.8 4.7 C 25.8 4.7 28.2 4.7 28.2 4.7 Z M 33.6 6.9 C 33.6 6.9 33.52 6.9 33.5 6.9 C 33.2 7.4 32.6 7.7 32 7.7 C 31.1 7.7 30.2 7.2 30.2 6.2 C 30.2 4.7 32.1 4.6 33.3 4.6 C 33.25 4.57 33.6 4.6 33.6 4.6 C 33.6 4.6 33.55 4.44 33.6 4.4 C 33.6 3.8 33.1 3.5 32.5 3.5 C 32 3.5 31.5 3.7 31.2 4 C 31.2 4 30.5 3.4 30.5 3.4 C 31.1 2.9 31.8 2.6 32.6 2.6 C 34.6 2.6 34.6 4.1 34.6 4.8 C 34.63 4.8 34.6 7.6 34.6 7.6 L 33.6 7.6 L 33.6 6.9 Z M 33.5 5.4 C 33.5 5.4 33.23 5.41 33.2 5.4 C 32.6 5.4 31.4 5.5 31.4 6.2 C 31.4 6.6 31.9 6.8 32.3 6.8 C 33.1 6.8 33.5 6.4 33.5 5.7 C 33.48 5.68 33.5 5.4 33.5 5.4 Z M 35.9 2.8 L 37.1 2.8 L 37.1 3.5 C 37.1 3.5 37.14 3.52 37.1 3.5 C 37.4 3 37.9 2.6 38.6 2.6 C 38.7 2.6 38.9 2.7 39 2.7 C 39 2.7 39 3.9 39 3.9 C 38.8 3.8 38.6 3.8 38.4 3.8 C 37.3 3.8 37.1 4.7 37.1 5 C 37.12 4.99 37.1 7.6 37.1 7.6 L 35.9 7.6 L 35.9 2.8 Z M 40 2.8 L 41.1 2.8 L 41.1 3.5 C 41.1 3.5 41.15 3.53 41.2 3.5 C 41.4 3.1 41.8 2.6 42.6 2.6 C 43.9 2.6 44.4 3.5 44.4 4.5 C 44.37 4.53 44.4 7.6 44.4 7.6 L 43.2 7.6 C 43.2 7.6 43.17 5.13 43.2 5.1 C 43.2 4.6 43.1 3.7 42.3 3.7 C 41.5 3.7 41.2 4.3 41.2 4.9 C 41.19 4.94 41.2 7.6 41.2 7.6 L 40 7.6 L 40 2.8 Z M 45.8 2.8 L 47 2.8 L 47 7.6 L 45.8 7.6 L 45.8 2.8 Z M 46.3 0.4 C 46.8 0.4 47.1 0.7 47.1 1.1 C 47.1 1.5 46.8 1.8 46.3 1.8 C 45.9 1.8 45.6 1.5 45.6 1.1 C 45.6 0.8 45.9 0.4 46.3 0.4 Z M 48.3 2.8 L 49.5 2.8 L 49.5 3.5 C 49.5 3.5 49.49 3.53 49.5 3.5 C 49.7 3.1 50.2 2.6 51 2.6 C 52.3 2.6 52.7 3.5 52.7 4.5 C 52.71 4.53 52.7 7.6 52.7 7.6 L 51.5 7.6 C 51.5 7.6 51.51 5.13 51.5 5.1 C 51.5 4.6 51.5 3.7 50.6 3.7 C 49.8 3.7 49.5 4.3 49.5 4.9 C 49.53 4.94 49.5 7.6 49.5 7.6 L 48.3 7.6 L 48.3 2.8 Z M 59 2.8 C 59 2.8 59.01 7.13 59 7.1 C 59 8.9 58.2 10 56.3 10 C 55.4 10 54.6 9.8 53.9 9.2 C 53.9 9.2 54.6 8.2 54.6 8.2 C 55.1 8.6 55.6 8.9 56.3 8.9 C 57.5 8.9 57.8 8.2 57.8 7.3 C 57.81 7.27 57.8 6.9 57.8 6.9 C 57.8 6.9 57.79 6.92 57.8 6.9 C 57.4 7.4 56.8 7.6 56.2 7.6 C 54.8 7.6 53.8 6.5 53.8 5.2 C 53.8 3.7 54.7 2.6 56.2 2.6 C 56.9 2.6 57.5 2.9 57.9 3.5 C 57.85 3.48 57.9 3.5 57.9 3.5 L 57.9 2.8 L 59 2.8 Z M 55 5.1 C 55 5.9 55.6 6.5 56.4 6.5 C 57.3 6.5 57.9 5.9 57.9 5.1 C 57.9 4.3 57.3 3.7 56.5 3.7 C 55.6 3.7 55 4.3 55 5.1 Z " stroke="none" fill="#000"/>  </g></svg>