<?xml version="1.0" standalone="no"?><!DOCTYPE svg PUBLIC "-//W3C//DTD SVG 1.1//EN" "http://www.w3.org/Graphics/SVG/1.1/DTD/svg11.dtd"><svg xmlns="http://www.w3.org/2000/svg" version="1.1" width="104px" height="28.4px" viewBox="0 -3 104 28.4" style="top:-3px">  <desc>Private Banking &amp; Wealth Management</desc>  <defs/>  <g id="Polygon17412">    <path d="M 2.9 12.5 L 4.3 12.5 L 5.7 17.6 L 5.7 17.6 L 7.3 12.5 L 8.5 12.5 L 10.1 17.6 L 10.1 17.6 L 11.5 12.5 L 12.8 12.5 L 10.7 19.6 L 9.5 19.6 L 7.9 14.2 L 7.8 14.2 L 6.2 19.6 L 5 19.6 L 2.9 12.5 Z M 14.2 17.6 C 14.3 18.3 14.8 18.7 15.5 18.7 C 16.1 18.7 16.5 18.4 16.8 18.1 C 16.8 18.1 17.7 18.7 17.7 18.7 C 17.1 19.4 16.4 19.7 15.6 19.7 C 14.2 19.7 13 18.7 13 17.2 C 13 15.6 14.2 14.6 15.6 14.6 C 17 14.6 17.9 15.6 17.9 17.2 C 17.87 17.25 17.9 17.6 17.9 17.6 C 17.9 17.6 14.21 17.58 14.2 17.6 Z M 16.7 16.7 C 16.7 16 16.2 15.5 15.5 15.5 C 14.7 15.5 14.3 16 14.2 16.7 C 14.2 16.7 16.7 16.7 16.7 16.7 Z M 22 18.9 C 22 18.9 21.96 18.9 22 18.9 C 21.6 19.4 21.1 19.7 20.4 19.7 C 19.5 19.7 18.7 19.2 18.7 18.2 C 18.7 16.7 20.5 16.6 21.7 16.6 C 21.69 16.57 22 16.6 22 16.6 C 22 16.6 21.99 16.44 22 16.4 C 22 15.8 21.5 15.5 20.9 15.5 C 20.4 15.5 19.9 15.7 19.6 16 C 19.6 16 19 15.4 19 15.4 C 19.5 14.9 20.3 14.6 21 14.6 C 23.1 14.6 23.1 16.1 23.1 16.8 C 23.07 16.8 23.1 19.6 23.1 19.6 L 22 19.6 L 22 18.9 Z M 21.9 17.4 C 21.9 17.4 21.67 17.41 21.7 17.4 C 21 17.4 19.9 17.5 19.9 18.2 C 19.9 18.6 20.3 18.8 20.7 18.8 C 21.5 18.8 21.9 18.4 21.9 17.7 C 21.92 17.68 21.9 17.4 21.9 17.4 Z M 24.4 12 L 25.6 12 L 25.6 19.6 L 24.4 19.6 L 24.4 12 Z M 26.4 15.8 L 26.4 14.8 L 27.4 14.8 L 27.4 13.4 L 28.6 13.4 L 28.6 14.8 L 29.9 14.8 L 29.9 15.8 L 28.6 15.8 C 28.6 15.8 28.59 17.88 28.6 17.9 C 28.6 18.4 28.7 18.7 29.3 18.7 C 29.5 18.7 29.8 18.6 29.9 18.5 C 29.9 18.5 29.9 19.5 29.9 19.5 C 29.7 19.6 29.2 19.7 29 19.7 C 27.7 19.7 27.4 19.1 27.4 18 C 27.39 17.98 27.4 15.8 27.4 15.8 L 26.4 15.8 Z M 32.1 15.4 C 32.1 15.4 32.07 15.43 32.1 15.4 C 32.3 15 32.7 14.6 33.5 14.6 C 34.8 14.6 35.2 15.5 35.2 16.5 C 35.23 16.53 35.2 19.6 35.2 19.6 L 34 19.6 C 34 19.6 34.03 17.13 34 17.1 C 34 16.6 34 15.7 33.2 15.7 C 32.4 15.7 32.1 16.3 32.1 16.9 C 32.05 16.94 32.1 19.6 32.1 19.6 L 30.9 19.6 L 30.9 12 L 32.1 12 L 32.1 15.4 Z M 39.7 12.5 L 41.6 12.5 L 43.5 17.4 L 45.4 12.5 L 47.3 12.5 L 47.3 19.6 L 46.1 19.6 L 46.1 13.7 L 46.1 13.7 L 43.9 19.6 L 43.1 19.6 L 40.9 13.7 L 40.9 13.7 L 40.9 19.6 L 39.7 19.6 L 39.7 12.5 Z M 51.8 18.9 C 51.8 18.9 51.78 18.9 51.8 18.9 C 51.4 19.4 50.9 19.7 50.2 19.7 C 49.4 19.7 48.5 19.2 48.5 18.2 C 48.5 16.7 50.3 16.6 51.5 16.6 C 51.51 16.57 51.8 16.6 51.8 16.6 C 51.8 16.6 51.81 16.44 51.8 16.4 C 51.8 15.8 51.4 15.5 50.7 15.5 C 50.2 15.5 49.8 15.7 49.4 16 C 49.4 16 48.8 15.4 48.8 15.4 C 49.3 14.9 50.1 14.6 50.8 14.6 C 52.9 14.6 52.9 16.1 52.9 16.8 C 52.89 16.8 52.9 19.6 52.9 19.6 L 51.8 19.6 L 51.8 18.9 Z M 51.7 17.4 C 51.7 17.4 51.49 17.41 51.5 17.4 C 50.8 17.4 49.7 17.5 49.7 18.2 C 49.7 18.6 50.1 18.8 50.5 18.8 C 51.4 18.8 51.7 18.4 51.7 17.7 C 51.74 17.68 51.7 17.4 51.7 17.4 Z M 54.2 14.8 L 55.3 14.8 L 55.3 15.5 C 55.3 15.5 55.34 15.53 55.3 15.5 C 55.6 15.1 56 14.6 56.8 14.6 C 58.1 14.6 58.6 15.5 58.6 16.5 C 58.56 16.53 58.6 19.6 58.6 19.6 L 57.4 19.6 C 57.4 19.6 57.36 17.13 57.4 17.1 C 57.4 16.6 57.3 15.7 56.5 15.7 C 55.7 15.7 55.4 16.3 55.4 16.9 C 55.38 16.94 55.4 19.6 55.4 19.6 L 54.2 19.6 L 54.2 14.8 Z M 62.9 18.9 C 62.9 18.9 62.89 18.9 62.9 18.9 C 62.6 19.4 62 19.7 61.4 19.7 C 60.5 19.7 59.6 19.2 59.6 18.2 C 59.6 16.7 61.4 16.6 62.6 16.6 C 62.62 16.57 62.9 16.6 62.9 16.6 C 62.9 16.6 62.92 16.44 62.9 16.4 C 62.9 15.8 62.5 15.5 61.8 15.5 C 61.3 15.5 60.9 15.7 60.5 16 C 60.5 16 59.9 15.4 59.9 15.4 C 60.4 14.9 61.2 14.6 62 14.6 C 64 14.6 64 16.1 64 16.8 C 64 16.8 64 19.6 64 19.6 L 62.9 19.6 L 62.9 18.9 Z M 62.9 17.4 C 62.9 17.4 62.6 17.41 62.6 17.4 C 61.9 17.4 60.8 17.5 60.8 18.2 C 60.8 18.6 61.3 18.8 61.6 18.8 C 62.5 18.8 62.9 18.4 62.9 17.7 C 62.85 17.68 62.9 17.4 62.9 17.4 Z M 70.2 14.8 C 70.2 14.8 70.23 19.13 70.2 19.1 C 70.2 20.9 69.4 22 67.5 22 C 66.6 22 65.8 21.8 65.1 21.2 C 65.1 21.2 65.9 20.2 65.9 20.2 C 66.3 20.6 66.8 20.9 67.5 20.9 C 68.7 20.9 69 20.2 69 19.3 C 69.03 19.27 69 18.9 69 18.9 C 69 18.9 69.01 18.92 69 18.9 C 68.7 19.4 68 19.6 67.4 19.6 C 66 19.6 65.1 18.5 65.1 17.2 C 65.1 15.7 65.9 14.6 67.4 14.6 C 68.1 14.6 68.7 14.9 69.1 15.5 C 69.07 15.48 69.1 15.5 69.1 15.5 L 69.1 14.8 L 70.2 14.8 Z M 66.3 17.1 C 66.3 17.9 66.9 18.5 67.7 18.5 C 68.6 18.5 69.1 17.9 69.1 17.1 C 69.1 16.3 68.5 15.7 67.7 15.7 C 66.8 15.7 66.3 16.3 66.3 17.1 Z M 72.6 17.6 C 72.6 18.3 73.2 18.7 73.8 18.7 C 74.4 18.7 74.8 18.4 75.1 18.1 C 75.1 18.1 76 18.7 76 18.7 C 75.4 19.4 74.7 19.7 74 19.7 C 72.5 19.7 71.4 18.7 71.4 17.2 C 71.4 15.6 72.5 14.6 74 14.6 C 75.3 14.6 76.2 15.6 76.2 17.2 C 76.21 17.25 76.2 17.6 76.2 17.6 C 76.2 17.6 72.55 17.58 72.6 17.6 Z M 75 16.7 C 75 16 74.5 15.5 73.8 15.5 C 73.1 15.5 72.6 16 72.6 16.7 C 72.6 16.7 75 16.7 75 16.7 Z M 77.3 14.8 L 78.4 14.8 L 78.4 15.5 C 78.4 15.5 78.44 15.51 78.4 15.5 C 78.7 15.1 79.1 14.6 79.9 14.6 C 80.7 14.6 81.2 14.9 81.4 15.5 C 81.8 14.9 82.3 14.6 83 14.6 C 84.3 14.6 84.7 15.5 84.7 16.7 C 84.72 16.7 84.7 19.6 84.7 19.6 L 83.5 19.6 C 83.5 19.6 83.52 16.84 83.5 16.8 C 83.5 16.2 83.3 15.7 82.6 15.7 C 81.9 15.7 81.6 16.3 81.6 17 C 81.6 16.96 81.6 19.6 81.6 19.6 L 80.4 19.6 C 80.4 19.6 80.4 16.7 80.4 16.7 C 80.4 16.1 80.2 15.7 79.6 15.7 C 78.8 15.7 78.5 16.3 78.5 16.9 C 78.48 16.94 78.5 19.6 78.5 19.6 L 77.3 19.6 L 77.3 14.8 Z M 87 17.6 C 87.1 18.3 87.6 18.7 88.3 18.7 C 88.9 18.7 89.3 18.4 89.6 18.1 C 89.6 18.1 90.4 18.7 90.4 18.7 C 89.9 19.4 89.2 19.7 88.4 19.7 C 87 19.7 85.8 18.7 85.8 17.2 C 85.8 15.6 87 14.6 88.4 14.6 C 89.7 14.6 90.7 15.6 90.7 17.2 C 90.65 17.25 90.7 17.6 90.7 17.6 C 90.7 17.6 86.99 17.58 87 17.6 Z M 89.5 16.7 C 89.4 16 89 15.5 88.2 15.5 C 87.5 15.5 87.1 16 87 16.7 C 87 16.7 89.5 16.7 89.5 16.7 Z M 91.8 14.8 L 92.9 14.8 L 92.9 15.5 C 92.9 15.5 92.93 15.53 92.9 15.5 C 93.2 15.1 93.6 14.6 94.4 14.6 C 95.7 14.6 96.2 15.5 96.2 16.5 C 96.15 16.53 96.2 19.6 96.2 19.6 L 95 19.6 C 95 19.6 94.95 17.13 95 17.1 C 95 16.6 94.9 15.7 94.1 15.7 C 93.3 15.7 93 16.3 93 16.9 C 92.97 16.94 93 19.6 93 19.6 L 91.8 19.6 L 91.8 14.8 Z M 97 15.8 L 97 14.8 L 97.9 14.8 L 97.9 13.4 L 99.1 13.4 L 99.1 14.8 L 100.5 14.8 L 100.5 15.8 L 99.1 15.8 C 99.1 15.8 99.14 17.88 99.1 17.9 C 99.1 18.4 99.3 18.7 99.8 18.7 C 100 18.7 100.3 18.6 100.5 18.5 C 100.5 18.5 100.5 19.5 100.5 19.5 C 100.2 19.6 99.8 19.7 99.5 19.7 C 98.2 19.7 97.9 19.1 97.9 18 C 97.94 17.98 97.9 15.8 97.9 15.8 L 97 15.8 Z " stroke="none" fill="#fff"/>  </g>  <g id="Polygon17411">    <path d="M 10.8 0.5 C 10.8 0.5 13.14 0.48 13.1 0.5 C 14.5 0.5 15.8 1 15.8 2.5 C 15.8 4.3 14.4 4.6 12.9 4.6 C 12.92 4.63 12 4.6 12 4.6 L 12 7.6 L 10.8 7.6 L 10.8 0.5 Z M 12.8 3.6 C 13.5 3.6 14.4 3.5 14.4 2.5 C 14.4 1.7 13.6 1.6 12.9 1.6 C 12.92 1.56 12 1.6 12 1.6 L 12 3.6 C 12 3.6 12.78 3.55 12.8 3.6 Z M 16.8 2.8 L 18 2.8 L 18 3.5 C 18 3.5 17.98 3.52 18 3.5 C 18.2 3 18.8 2.6 19.4 2.6 C 19.6 2.6 19.7 2.7 19.8 2.7 C 19.8 2.7 19.8 3.9 19.8 3.9 C 19.6 3.8 19.4 3.8 19.3 3.8 C 18.1 3.8 18 4.7 18 5 C 17.96 4.99 18 7.6 18 7.6 L 16.8 7.6 L 16.8 2.8 Z M 20.7 2.8 L 21.9 2.8 L 21.9 7.6 L 20.7 7.6 L 20.7 2.8 Z M 21.3 0.4 C 21.7 0.4 22 0.7 22 1.1 C 22 1.5 21.7 1.8 21.3 1.8 C 20.8 1.8 20.5 1.5 20.5 1.1 C 20.5 0.8 20.8 0.4 21.3 0.4 Z M 22.6 2.8 L 23.9 2.8 L 25.2 6.1 L 25.2 6.1 L 26.5 2.8 L 27.7 2.8 L 25.8 7.6 L 24.6 7.6 L 22.6 2.8 Z M 31.4 6.9 C 31.4 6.9 31.41 6.9 31.4 6.9 C 31.1 7.4 30.5 7.7 29.9 7.7 C 29 7.7 28.1 7.2 28.1 6.2 C 28.1 4.7 29.9 4.6 31.1 4.6 C 31.14 4.57 31.4 4.6 31.4 4.6 C 31.4 4.6 31.44 4.44 31.4 4.4 C 31.4 3.8 31 3.5 30.3 3.5 C 29.8 3.5 29.4 3.7 29.1 4 C 29.1 4 28.4 3.4 28.4 3.4 C 29 2.9 29.7 2.6 30.5 2.6 C 32.5 2.6 32.5 4.1 32.5 4.8 C 32.52 4.8 32.5 7.6 32.5 7.6 L 31.4 7.6 L 31.4 6.9 Z M 31.4 5.4 C 31.4 5.4 31.12 5.41 31.1 5.4 C 30.5 5.4 29.3 5.5 29.3 6.2 C 29.3 6.6 29.8 6.8 30.2 6.8 C 31 6.8 31.4 6.4 31.4 5.7 C 31.37 5.68 31.4 5.4 31.4 5.4 Z M 33.3 3.8 L 33.3 2.8 L 34.2 2.8 L 34.2 1.4 L 35.4 1.4 L 35.4 2.8 L 36.8 2.8 L 36.8 3.8 L 35.4 3.8 C 35.4 3.8 35.44 5.88 35.4 5.9 C 35.4 6.4 35.6 6.7 36.1 6.7 C 36.3 6.7 36.6 6.6 36.8 6.5 C 36.8 6.5 36.8 7.5 36.8 7.5 C 36.5 7.6 36.1 7.7 35.8 7.7 C 34.5 7.7 34.2 7.1 34.2 6 C 34.24 5.98 34.2 3.8 34.2 3.8 L 33.3 3.8 Z M 38.7 5.6 C 38.7 6.3 39.3 6.7 40 6.7 C 40.6 6.7 40.9 6.4 41.2 6.1 C 41.2 6.1 42.1 6.7 42.1 6.7 C 41.5 7.4 40.8 7.7 40.1 7.7 C 38.6 7.7 37.5 6.7 37.5 5.2 C 37.5 3.6 38.6 2.6 40.1 2.6 C 41.4 2.6 42.3 3.6 42.3 5.2 C 42.32 5.25 42.3 5.6 42.3 5.6 C 42.3 5.6 38.66 5.58 38.7 5.6 Z M 41.1 4.7 C 41.1 4 40.7 3.5 39.9 3.5 C 39.2 3.5 38.8 4 38.7 4.7 C 38.7 4.7 41.1 4.7 41.1 4.7 Z M 46.5 0.5 C 46.5 0.5 49.27 0.48 49.3 0.5 C 50.3 0.5 51.4 1 51.4 2.3 C 51.4 3.1 50.9 3.6 50.2 3.8 C 50.2 3.8 50.2 3.8 50.2 3.8 C 51.1 3.9 51.7 4.6 51.7 5.5 C 51.7 7.1 50.4 7.6 49.1 7.6 C 49.06 7.56 46.5 7.6 46.5 7.6 L 46.5 0.5 Z M 47.8 3.4 C 47.8 3.4 48.92 3.36 48.9 3.4 C 49.8 3.4 50.2 3 50.2 2.5 C 50.2 1.9 49.8 1.6 48.8 1.6 C 48.81 1.56 47.8 1.6 47.8 1.6 L 47.8 3.4 Z M 47.8 6.5 C 47.8 6.5 48.93 6.48 48.9 6.5 C 49.6 6.5 50.5 6.4 50.5 5.4 C 50.5 4.7 50 4.4 49 4.4 C 48.98 4.44 47.8 4.4 47.8 4.4 L 47.8 6.5 Z M 55.9 6.9 C 55.9 6.9 55.85 6.9 55.9 6.9 C 55.5 7.4 55 7.7 54.3 7.7 C 53.4 7.7 52.6 7.2 52.6 6.2 C 52.6 4.7 54.4 4.6 55.6 4.6 C 55.58 4.57 55.9 4.6 55.9 4.6 C 55.9 4.6 55.88 4.44 55.9 4.4 C 55.9 3.8 55.4 3.5 54.8 3.5 C 54.3 3.5 53.8 3.7 53.5 4 C 53.5 4 52.9 3.4 52.9 3.4 C 53.4 2.9 54.2 2.6 54.9 2.6 C 57 2.6 57 4.1 57 4.8 C 56.96 4.8 57 7.6 57 7.6 L 55.9 7.6 L 55.9 6.9 Z M 55.8 5.4 C 55.8 5.4 55.56 5.41 55.6 5.4 C 54.9 5.4 53.8 5.5 53.8 6.2 C 53.8 6.6 54.2 6.8 54.6 6.8 C 55.4 6.8 55.8 6.4 55.8 5.7 C 55.81 5.68 55.8 5.4 55.8 5.4 Z M 58.3 2.8 L 59.4 2.8 L 59.4 3.5 C 59.4 3.5 59.41 3.53 59.4 3.5 C 59.6 3.1 60.1 2.6 60.9 2.6 C 62.2 2.6 62.6 3.5 62.6 4.5 C 62.63 4.53 62.6 7.6 62.6 7.6 L 61.4 7.6 C 61.4 7.6 61.43 5.13 61.4 5.1 C 61.4 4.6 61.4 3.7 60.6 3.7 C 59.8 3.7 59.5 4.3 59.5 4.9 C 59.45 4.94 59.5 7.6 59.5 7.6 L 58.3 7.6 L 58.3 2.8 Z M 64 0 L 65.2 0 L 65.2 4.8 L 67 2.8 L 68.6 2.8 L 66.5 4.9 L 68.7 7.6 L 67.1 7.6 L 65.2 5.1 L 65.2 5.1 L 65.2 7.6 L 64 7.6 L 64 0 Z M 69.4 2.8 L 70.6 2.8 L 70.6 7.6 L 69.4 7.6 L 69.4 2.8 Z M 70 0.4 C 70.4 0.4 70.8 0.7 70.8 1.1 C 70.8 1.5 70.4 1.8 70 1.8 C 69.5 1.8 69.2 1.5 69.2 1.1 C 69.2 0.8 69.5 0.4 70 0.4 Z M 72 2.8 L 73.1 2.8 L 73.1 3.5 C 73.1 3.5 73.12 3.53 73.1 3.5 C 73.3 3.1 73.8 2.6 74.6 2.6 C 75.9 2.6 76.3 3.5 76.3 4.5 C 76.34 4.53 76.3 7.6 76.3 7.6 L 75.1 7.6 C 75.1 7.6 75.14 5.13 75.1 5.1 C 75.1 4.6 75.1 3.7 74.3 3.7 C 73.5 3.7 73.2 4.3 73.2 4.9 C 73.16 4.94 73.2 7.6 73.2 7.6 L 72 7.6 L 72 2.8 Z M 82.6 2.8 C 82.6 2.8 82.64 7.13 82.6 7.1 C 82.6 8.9 81.8 10 79.9 10 C 79 10 78.2 9.8 77.6 9.2 C 77.6 9.2 78.3 8.2 78.3 8.2 C 78.8 8.6 79.3 8.9 79.9 8.9 C 81.1 8.9 81.4 8.2 81.4 7.3 C 81.44 7.27 81.4 6.9 81.4 6.9 C 81.4 6.9 81.42 6.92 81.4 6.9 C 81.1 7.4 80.5 7.6 79.9 7.6 C 78.4 7.6 77.5 6.5 77.5 5.2 C 77.5 3.7 78.4 2.6 79.8 2.6 C 80.5 2.6 81.1 2.9 81.5 3.5 C 81.48 3.48 81.5 3.5 81.5 3.5 L 81.5 2.8 L 82.6 2.8 Z M 78.7 5.1 C 78.7 5.9 79.3 6.5 80.1 6.5 C 81 6.5 81.5 5.9 81.5 5.1 C 81.5 4.3 81 3.7 80.1 3.7 C 79.2 3.7 78.7 4.3 78.7 5.1 Z M 92 5.9 L 93.5 7.6 L 92 7.6 C 92 7.6 91.25 6.75 91.3 6.8 C 90.7 7.4 90.1 7.7 89.2 7.7 C 87.9 7.7 86.8 7 86.8 5.7 C 86.8 4.7 87.4 4 88.3 3.7 C 87.8 3.2 87.5 2.7 87.5 2 C 87.5 0.9 88.4 0.3 89.5 0.3 C 90.6 0.3 91.5 0.8 91.5 2 C 91.5 2.8 90.8 3.4 90.1 3.8 C 90.1 3.81 91.2 5 91.2 5 L 92 3.8 L 93.4 3.8 L 92 5.9 Z M 88.7 2.1 C 88.7 2.5 89 2.8 89.4 3.1 C 89.8 2.9 90.3 2.6 90.3 2 C 90.3 1.7 90 1.4 89.5 1.4 C 89.1 1.4 88.7 1.7 88.7 2.1 Z M 89.1 4.4 C 88.6 4.7 88.1 5 88.1 5.6 C 88.1 6.2 88.6 6.7 89.2 6.7 C 89.8 6.7 90.1 6.3 90.5 6 C 90.5 6 89.1 4.4 89.1 4.4 Z " stroke="none" fill="#fff"/>  </g></svg>