<?xml version="1.0" standalone="no"?><!DOCTYPE svg PUBLIC "-//W3C//DTD SVG 1.1//EN" "http://www.w3.org/Graphics/SVG/1.1/DTD/svg11.dtd"><svg xmlns="http://www.w3.org/2000/svg" version="1.1" width="54.2px" height="16.4px" viewBox="0 -3 54.2 16.4" style="top:-3px">  <desc>Trainers</desc>  <defs/>  <g id="Polygon16670">    <path d="M 11.1 1.6 L 8.9 1.6 L 8.9 0.5 L 14.5 0.5 L 14.5 1.6 L 12.4 1.6 L 12.4 7.6 L 11.1 7.6 L 11.1 1.6 Z M 14.4 2.8 L 15.6 2.8 L 15.6 3.5 C 15.6 3.5 15.58 3.52 15.6 3.5 C 15.8 3 16.4 2.6 17 2.6 C 17.2 2.6 17.3 2.7 17.4 2.7 C 17.4 2.7 17.4 3.9 17.4 3.9 C 17.2 3.8 17 3.8 16.9 3.8 C 15.7 3.8 15.6 4.7 15.6 5 C 15.56 4.99 15.6 7.6 15.6 7.6 L 14.4 7.6 L 14.4 2.8 Z M 21.3 6.9 C 21.3 6.9 21.22 6.9 21.2 6.9 C 20.9 7.4 20.3 7.7 19.7 7.7 C 18.8 7.7 17.9 7.2 17.9 6.2 C 17.9 4.7 19.8 4.6 21 4.6 C 20.95 4.57 21.3 4.6 21.3 4.6 C 21.3 4.6 21.25 4.44 21.3 4.4 C 21.3 3.8 20.8 3.5 20.2 3.5 C 19.7 3.5 19.2 3.7 18.9 4 C 18.9 4 18.2 3.4 18.2 3.4 C 18.8 2.9 19.5 2.6 20.3 2.6 C 22.3 2.6 22.3 4.1 22.3 4.8 C 22.33 4.8 22.3 7.6 22.3 7.6 L 21.3 7.6 L 21.3 6.9 Z M 21.2 5.4 C 21.2 5.4 20.93 5.41 20.9 5.4 C 20.3 5.4 19.1 5.5 19.1 6.2 C 19.1 6.6 19.6 6.8 20 6.8 C 20.8 6.8 21.2 6.4 21.2 5.7 C 21.18 5.68 21.2 5.4 21.2 5.4 Z M 23.6 2.8 L 24.8 2.8 L 24.8 7.6 L 23.6 7.6 L 23.6 2.8 Z M 24.2 0.4 C 24.7 0.4 25 0.7 25 1.1 C 25 1.5 24.7 1.8 24.2 1.8 C 23.8 1.8 23.5 1.5 23.5 1.1 C 23.5 0.8 23.8 0.4 24.2 0.4 Z M 26.2 2.8 L 27.4 2.8 L 27.4 3.5 C 27.4 3.5 27.38 3.53 27.4 3.5 C 27.6 3.1 28.1 2.6 28.9 2.6 C 30.1 2.6 30.6 3.5 30.6 4.5 C 30.6 4.53 30.6 7.6 30.6 7.6 L 29.4 7.6 C 29.4 7.6 29.4 5.13 29.4 5.1 C 29.4 4.6 29.4 3.7 28.5 3.7 C 27.7 3.7 27.4 4.3 27.4 4.9 C 27.42 4.94 27.4 7.6 27.4 7.6 L 26.2 7.6 L 26.2 2.8 Z M 32.9 5.6 C 33 6.3 33.5 6.7 34.2 6.7 C 34.8 6.7 35.2 6.4 35.5 6.1 C 35.5 6.1 36.4 6.7 36.4 6.7 C 35.8 7.4 35.1 7.7 34.3 7.7 C 32.9 7.7 31.7 6.7 31.7 5.2 C 31.7 3.6 32.9 2.6 34.3 2.6 C 35.7 2.6 36.6 3.6 36.6 5.2 C 36.58 5.25 36.6 5.6 36.6 5.6 C 36.6 5.6 32.92 5.58 32.9 5.6 Z M 35.4 4.7 C 35.4 4 34.9 3.5 34.2 3.5 C 33.5 3.5 33 4 32.9 4.7 C 32.9 4.7 35.4 4.7 35.4 4.7 Z M 37.7 2.8 L 38.9 2.8 L 38.9 3.5 C 38.9 3.5 38.92 3.52 38.9 3.5 C 39.2 3 39.7 2.6 40.3 2.6 C 40.5 2.6 40.6 2.7 40.8 2.7 C 40.8 2.7 40.8 3.9 40.8 3.9 C 40.6 3.8 40.4 3.8 40.2 3.8 C 39.1 3.8 38.9 4.7 38.9 5 C 38.9 4.99 38.9 7.6 38.9 7.6 L 37.7 7.6 L 37.7 2.8 Z M 44.2 4.1 C 43.9 3.8 43.6 3.6 43.2 3.6 C 42.9 3.6 42.5 3.8 42.5 4.1 C 42.5 5 45.1 4.3 45.1 6.1 C 45.1 7.3 44 7.7 43 7.7 C 42.3 7.7 41.7 7.5 41.2 6.9 C 41.2 6.9 42 6.2 42 6.2 C 42.3 6.5 42.6 6.8 43.1 6.8 C 43.5 6.8 43.9 6.6 43.9 6.2 C 43.9 5.2 41.3 6 41.3 4.2 C 41.3 3.1 42.3 2.6 43.2 2.6 C 43.9 2.6 44.6 2.8 44.9 3.4 C 44.9 3.4 44.2 4.1 44.2 4.1 Z " stroke="none" fill="#000"/>  </g></svg>