<?xml version="1.0" standalone="no"?><!DOCTYPE svg PUBLIC "-//W3C//DTD SVG 1.1//EN" "http://www.w3.org/Graphics/SVG/1.1/DTD/svg11.dtd"><svg xmlns="http://www.w3.org/2000/svg" version="1.1" width="129px" height="88.4px" viewBox="0 -3 129 88.4" style="top:-3px">  <desc>DSW House Unit 3 Hayfield Business Park Field Lane Auckley Doncaster South Yorkshire DN9 3FL</desc>  <defs/>  <g id="Polygon17819">    <path d="M 0.9 72.5 C 0.9 72.5 3.21 72.48 3.2 72.5 C 5 72.5 6.9 73.7 6.9 76 C 6.9 78.4 5 79.6 3.2 79.6 C 3.21 79.56 0.9 79.6 0.9 79.6 L 0.9 72.5 Z M 1.6 78.9 C 1.6 78.9 2.98 78.9 3 78.9 C 5.1 78.9 6.2 77.5 6.2 76 C 6.2 74.6 5.1 73.1 3 73.1 C 2.98 73.14 1.6 73.1 1.6 73.1 L 1.6 78.9 Z M 13.5 78.5 L 13.5 78.5 L 13.5 72.5 L 14.2 72.5 L 14.2 79.6 L 13.3 79.6 L 9.1 73.5 L 9.1 73.5 L 9.1 79.6 L 8.4 79.6 L 8.4 72.5 L 9.3 72.5 L 13.5 78.5 Z M 18.8 76.5 C 18.8 76.5 18.81 76.5 18.8 76.5 C 18.6 76.7 18.2 76.7 17.8 76.7 C 16.6 76.7 15.7 75.8 15.7 74.5 C 15.7 73.2 16.6 72.4 18 72.4 C 19.3 72.4 20.3 73.2 20.3 74.5 C 20.3 75.3 20 75.9 19.7 76.4 C 19.66 76.45 17.7 79.6 17.7 79.6 L 16.9 79.6 L 18.8 76.5 Z M 18 73 C 17 73 16.4 73.6 16.4 74.5 C 16.4 75.5 17 76.1 18 76.1 C 18.9 76.1 19.6 75.5 19.6 74.5 C 19.6 73.6 18.9 73 18 73 Z M 25.6 75.5 C 25.6 75.5 25.94 75.52 25.9 75.5 C 26.8 75.5 27.5 75.2 27.5 74.2 C 27.5 73.5 27 73 26.2 73 C 25.6 73 25.1 73.3 24.8 73.8 C 24.8 73.8 24.2 73.5 24.2 73.5 C 24.6 72.7 25.3 72.4 26.2 72.4 C 27.3 72.4 28.2 73 28.2 74.2 C 28.2 75 27.7 75.6 27 75.8 C 27 75.8 27 75.8 27 75.8 C 27.9 76 28.4 76.7 28.4 77.6 C 28.4 79 27.4 79.7 26.1 79.7 C 25.1 79.7 24.3 79.3 23.9 78.3 C 23.9 78.3 24.7 78 24.7 78 C 24.9 78.7 25.4 79 26.2 79 C 27 79 27.7 78.5 27.7 77.6 C 27.7 76.5 26.8 76.2 25.9 76.2 C 25.88 76.18 25.6 76.2 25.6 76.2 L 25.6 75.5 Z M 30.8 79.6 L 30.1 79.6 L 30.1 72.5 L 34.3 72.5 L 34.3 73.1 L 30.8 73.1 L 30.8 75.6 L 34.1 75.6 L 34.1 76.2 L 30.8 76.2 L 30.8 79.6 Z M 36.3 78.9 L 39.6 78.9 L 39.6 79.6 L 35.6 79.6 L 35.6 72.5 L 36.3 72.5 L 36.3 78.9 Z " stroke="none" fill="#f28620"/>  </g>  <g id="Polygon17818">    <path d="M 4.3 61.6 C 4 61.2 3.5 61 2.9 61 C 2.2 61 1.4 61.3 1.4 62.2 C 1.4 64.2 5.1 63.1 5.1 65.7 C 5.1 67 3.9 67.7 2.7 67.7 C 1.9 67.7 1 67.4 0.5 66.7 C 0.5 66.7 1.1 66.2 1.1 66.2 C 1.4 66.7 2 67.1 2.8 67.1 C 3.5 67.1 4.3 66.6 4.3 65.8 C 4.3 63.8 0.7 64.9 0.7 62.3 C 0.7 60.9 1.8 60.3 2.9 60.3 C 3.7 60.3 4.4 60.5 4.9 61.2 C 4.9 61.2 4.3 61.6 4.3 61.6 Z M 8.5 67.7 C 7.1 67.7 6 66.6 6 65.2 C 6 63.8 7.1 62.8 8.5 62.8 C 10 62.8 11 63.8 11 65.2 C 11 66.6 10 67.7 8.5 67.7 Z M 8.5 63.4 C 7.4 63.4 6.8 64.2 6.8 65.2 C 6.8 66.3 7.4 67.1 8.5 67.1 C 9.6 67.1 10.3 66.3 10.3 65.2 C 10.3 64.2 9.6 63.4 8.5 63.4 Z M 15.6 67.6 C 15.6 67.3 15.6 67.1 15.6 66.8 C 15.6 66.8 15.5 66.8 15.5 66.8 C 15.3 67.3 14.6 67.7 14 67.7 C 12.8 67.7 12.2 67 12.2 65.9 C 12.21 65.85 12.2 62.9 12.2 62.9 L 12.9 62.9 C 12.9 62.9 12.87 65.47 12.9 65.5 C 12.9 66.5 13.2 67.1 14.1 67.1 C 14.3 67.1 15.6 67 15.6 65.3 C 15.56 65.28 15.6 62.9 15.6 62.9 L 16.2 62.9 C 16.2 62.9 16.22 66.53 16.2 66.5 C 16.2 66.8 16.2 67.2 16.3 67.6 C 16.3 67.6 15.6 67.6 15.6 67.6 Z M 20.2 63.5 L 18.8 63.5 C 18.8 63.5 18.84 66.24 18.8 66.2 C 18.8 66.9 19.1 67.1 19.5 67.1 C 19.7 67.1 20 67 20.2 66.9 C 20.2 66.9 20.2 67.5 20.2 67.5 C 20 67.6 19.7 67.7 19.3 67.7 C 18.8 67.7 18.2 67.5 18.2 66.4 C 18.18 66.43 18.2 63.5 18.2 63.5 L 17.2 63.5 L 17.2 62.9 L 18.2 62.9 L 18.2 61.6 L 18.8 61.6 L 18.8 62.9 L 20.2 62.9 L 20.2 63.5 Z M 21.1 60 L 21.7 60 L 21.7 63.6 C 21.7 63.6 21.77 63.63 21.8 63.6 C 22.1 63.1 22.7 62.8 23.3 62.8 C 24.5 62.8 25.1 63.4 25.1 64.6 C 25.1 64.59 25.1 67.6 25.1 67.6 L 24.4 67.6 C 24.4 67.6 24.44 64.97 24.4 65 C 24.4 63.9 24.2 63.4 23.2 63.4 C 23 63.4 21.7 63.4 21.7 65.2 C 21.75 65.16 21.7 67.6 21.7 67.6 L 21.1 67.6 L 21.1 60 Z M 31.9 67.6 L 31.2 67.6 L 31.2 64.5 L 28.6 60.5 L 29.5 60.5 L 31.6 63.8 L 33.7 60.5 L 34.6 60.5 L 31.9 64.5 L 31.9 67.6 Z M 36.5 67.7 C 35 67.7 34 66.6 34 65.2 C 34 63.8 35 62.8 36.5 62.8 C 38 62.8 39 63.8 39 65.2 C 39 66.6 38 67.7 36.5 67.7 Z M 36.5 63.4 C 35.4 63.4 34.7 64.2 34.7 65.2 C 34.7 66.3 35.4 67.1 36.5 67.1 C 37.6 67.1 38.3 66.3 38.3 65.2 C 38.3 64.2 37.6 63.4 36.5 63.4 Z M 40.3 64.3 C 40.3 63.9 40.2 63.6 40.2 62.9 C 40.21 62.88 40.9 62.9 40.9 62.9 L 40.9 63.7 C 40.9 63.7 40.88 63.75 40.9 63.7 C 41.1 63.2 41.6 62.8 42.4 62.8 C 42.6 62.8 42.7 62.8 42.9 62.8 C 42.9 62.8 42.7 63.5 42.7 63.5 C 42.7 63.4 42.5 63.4 42.4 63.4 C 41.4 63.4 40.9 64.3 40.9 64.9 C 40.91 64.92 40.9 67.6 40.9 67.6 L 40.3 67.6 C 40.3 67.6 40.25 64.34 40.3 64.3 Z M 44.2 65 L 46.4 62.9 L 47.4 62.9 L 45 65 L 47.6 67.6 L 46.6 67.6 L 44.2 65.1 L 44.2 67.6 L 43.5 67.6 L 43.5 60 L 44.2 60 L 44.2 65 Z M 50.8 64 C 50.6 63.6 50.3 63.4 49.8 63.4 C 49.3 63.4 48.8 63.6 48.8 64.1 C 48.8 64.5 49.1 64.7 49.7 64.8 C 49.7 64.8 50.4 65 50.4 65 C 51.1 65.1 51.5 65.6 51.5 66.2 C 51.5 67.3 50.6 67.7 49.7 67.7 C 49 67.7 48.4 67.4 47.9 66.8 C 47.9 66.8 48.5 66.4 48.5 66.4 C 48.8 66.8 49.2 67.1 49.7 67.1 C 50.3 67.1 50.8 66.8 50.8 66.3 C 50.8 65.8 50.4 65.7 49.9 65.6 C 49.9 65.6 49.3 65.4 49.3 65.4 C 49 65.3 48.1 65.1 48.1 64.2 C 48.1 63.2 48.9 62.8 49.8 62.8 C 50.5 62.8 51.1 63 51.4 63.6 C 51.4 63.6 50.8 64 50.8 64 Z M 52.6 60 L 53.2 60 L 53.2 63.6 C 53.2 63.6 53.26 63.63 53.3 63.6 C 53.5 63.1 54.2 62.8 54.8 62.8 C 56 62.8 56.6 63.4 56.6 64.6 C 56.59 64.59 56.6 67.6 56.6 67.6 L 55.9 67.6 C 55.9 67.6 55.93 64.97 55.9 65 C 55.9 63.9 55.6 63.4 54.7 63.4 C 54.5 63.4 53.2 63.4 53.2 65.2 C 53.24 65.16 53.2 67.6 53.2 67.6 L 52.6 67.6 L 52.6 60 Z M 58.9 67.6 L 58.3 67.6 L 58.3 62.9 L 58.9 62.9 L 58.9 67.6 Z M 58.6 61.6 C 58.4 61.6 58.1 61.4 58.1 61.1 C 58.1 60.8 58.4 60.6 58.6 60.6 C 58.9 60.6 59.1 60.8 59.1 61.1 C 59.1 61.4 58.9 61.6 58.6 61.6 Z M 60.6 64.3 C 60.6 63.9 60.6 63.6 60.6 62.9 C 60.57 62.88 61.2 62.9 61.2 62.9 L 61.2 63.7 C 61.2 63.7 61.24 63.75 61.2 63.7 C 61.4 63.2 61.9 62.8 62.7 62.8 C 62.9 62.8 63.1 62.8 63.2 62.8 C 63.2 62.8 63.1 63.5 63.1 63.5 C 63 63.4 62.9 63.4 62.7 63.4 C 61.7 63.4 61.3 64.3 61.3 64.9 C 61.27 64.92 61.3 67.6 61.3 67.6 L 60.6 67.6 C 60.6 67.6 60.61 64.34 60.6 64.3 Z M 64.1 65.4 C 64.2 66.3 64.9 67.1 65.9 67.1 C 66.6 67.1 67.1 66.7 67.4 66.3 C 67.4 66.3 67.9 66.7 67.9 66.7 C 67.3 67.4 66.6 67.7 65.9 67.7 C 64.5 67.7 63.4 66.6 63.4 65.2 C 63.4 63.8 64.5 62.8 65.8 62.8 C 67.2 62.8 68 63.8 68 65.1 C 68.04 65.1 68 65.4 68 65.4 C 68 65.4 64.14 65.4 64.1 65.4 Z M 67.3 64.9 C 67.3 64 66.7 63.4 65.8 63.4 C 64.9 63.4 64.2 64.1 64.2 64.9 C 64.2 64.9 67.3 64.9 67.3 64.9 Z " stroke="none" fill="#f28620"/>  </g>  <g id="Polygon17817">    <path d="M 0.9 48.5 C 0.9 48.5 3.21 48.48 3.2 48.5 C 5 48.5 6.9 49.7 6.9 52 C 6.9 54.4 5 55.6 3.2 55.6 C 3.21 55.56 0.9 55.6 0.9 55.6 L 0.9 48.5 Z M 1.6 54.9 C 1.6 54.9 2.98 54.9 3 54.9 C 5.1 54.9 6.2 53.5 6.2 52 C 6.2 50.6 5.1 49.1 3 49.1 C 2.98 49.14 1.6 49.1 1.6 49.1 L 1.6 54.9 Z M 10.4 55.7 C 8.9 55.7 7.9 54.6 7.9 53.2 C 7.9 51.8 8.9 50.8 10.4 50.8 C 11.8 50.8 12.9 51.8 12.9 53.2 C 12.9 54.6 11.8 55.7 10.4 55.7 Z M 10.4 51.4 C 9.3 51.4 8.6 52.2 8.6 53.2 C 8.6 54.3 9.3 55.1 10.4 55.1 C 11.5 55.1 12.1 54.3 12.1 53.2 C 12.1 52.2 11.5 51.4 10.4 51.4 Z M 14.7 50.9 C 14.7 51.1 14.7 51.4 14.7 51.6 C 14.7 51.6 14.7 51.6 14.7 51.6 C 15 51.1 15.7 50.8 16.3 50.8 C 17.5 50.8 18.1 51.4 18.1 52.6 C 18.07 52.59 18.1 55.6 18.1 55.6 L 17.4 55.6 C 17.4 55.6 17.41 52.97 17.4 53 C 17.4 51.9 17.1 51.4 16.1 51.4 C 16 51.4 14.7 51.4 14.7 53.2 C 14.72 53.16 14.7 55.6 14.7 55.6 L 14.1 55.6 C 14.1 55.6 14.06 51.91 14.1 51.9 C 14.1 51.7 14 51.2 14 50.9 C 14 50.9 14.7 50.9 14.7 50.9 Z M 23 52 C 22.8 51.6 22.4 51.4 21.9 51.4 C 20.8 51.3 20.1 52.1 20.1 53.2 C 20.1 54.3 20.8 55.1 21.9 55.1 C 22.4 55.1 22.8 54.8 23 54.5 C 23 54.5 23.6 54.9 23.6 54.9 C 23.1 55.4 22.5 55.7 21.9 55.7 C 20.3 55.7 19.4 54.6 19.4 53.2 C 19.4 51.8 20.3 50.7 21.9 50.8 C 22.5 50.8 23.1 51 23.6 51.6 C 23.6 51.6 23 52 23 52 Z M 27.4 52.7 C 27.4 52.7 27.44 52.57 27.4 52.6 C 27.4 51.8 27.1 51.4 26.2 51.4 C 25.7 51.4 25.2 51.5 24.8 51.9 C 24.8 51.9 24.4 51.4 24.4 51.4 C 24.8 51 25.5 50.8 26.4 50.8 C 27.3 50.8 28.1 51.3 28.1 52.4 C 28.1 52.4 28.1 54.5 28.1 54.5 C 28.1 54.9 28.1 55.3 28.2 55.6 C 28.2 55.6 27.5 55.6 27.5 55.6 C 27.5 55.3 27.5 55 27.5 54.8 C 27.5 54.8 27.5 54.8 27.5 54.8 C 27.1 55.4 26.6 55.7 25.8 55.7 C 25 55.7 24.2 55.2 24.2 54.3 C 24.2 52.8 26 52.7 27.1 52.7 C 27.11 52.69 27.4 52.7 27.4 52.7 Z M 27.1 53.2 C 26.4 53.2 24.9 53.3 24.9 54.2 C 24.9 54.8 25.5 55.1 26 55.1 C 27 55.1 27.4 54.4 27.4 53.6 C 27.44 53.57 27.4 53.2 27.4 53.2 C 27.4 53.2 27.1 53.23 27.1 53.2 Z M 32.1 52 C 31.9 51.6 31.6 51.4 31.1 51.4 C 30.6 51.4 30.1 51.6 30.1 52.1 C 30.1 52.5 30.4 52.7 31 52.8 C 31 52.8 31.7 53 31.7 53 C 32.4 53.1 32.9 53.6 32.9 54.2 C 32.9 55.3 32 55.7 31 55.7 C 30.3 55.7 29.7 55.4 29.2 54.8 C 29.2 54.8 29.8 54.4 29.8 54.4 C 30.1 54.8 30.5 55.1 31 55.1 C 31.6 55.1 32.1 54.8 32.1 54.3 C 32.1 53.8 31.7 53.7 31.2 53.6 C 31.2 53.6 30.6 53.4 30.6 53.4 C 30.3 53.3 29.4 53.1 29.4 52.2 C 29.4 51.2 30.3 50.8 31.1 50.8 C 31.8 50.8 32.4 51 32.7 51.6 C 32.7 51.6 32.1 52 32.1 52 Z M 36.3 51.5 L 35 51.5 C 35 51.5 34.96 54.24 35 54.2 C 35 54.9 35.2 55.1 35.6 55.1 C 35.9 55.1 36.1 55 36.3 54.9 C 36.3 54.9 36.3 55.5 36.3 55.5 C 36.1 55.6 35.8 55.7 35.5 55.7 C 35 55.7 34.3 55.5 34.3 54.4 C 34.3 54.43 34.3 51.5 34.3 51.5 L 33.3 51.5 L 33.3 50.9 L 34.3 50.9 L 34.3 49.6 L 35 49.6 L 35 50.9 L 36.3 50.9 L 36.3 51.5 Z M 37.7 53.4 C 37.7 54.3 38.5 55.1 39.4 55.1 C 40.1 55.1 40.6 54.7 40.9 54.3 C 40.9 54.3 41.4 54.7 41.4 54.7 C 40.9 55.4 40.2 55.7 39.4 55.7 C 38 55.7 37 54.6 37 53.2 C 37 51.8 38 50.8 39.3 50.8 C 40.8 50.8 41.6 51.8 41.6 53.1 C 41.57 53.1 41.6 53.4 41.6 53.4 C 41.6 53.4 37.67 53.4 37.7 53.4 Z M 40.9 52.9 C 40.9 52 40.3 51.4 39.3 51.4 C 38.5 51.4 37.7 52.1 37.7 52.9 C 37.7 52.9 40.9 52.9 40.9 52.9 Z M 42.8 52.3 C 42.8 51.9 42.8 51.6 42.8 50.9 C 42.8 50.88 43.4 50.9 43.4 50.9 L 43.4 51.7 C 43.4 51.7 43.47 51.75 43.5 51.7 C 43.7 51.2 44.1 50.8 45 50.8 C 45.2 50.8 45.3 50.8 45.5 50.8 C 45.5 50.8 45.3 51.5 45.3 51.5 C 45.2 51.4 45.1 51.4 44.9 51.4 C 43.9 51.4 43.5 52.3 43.5 52.9 C 43.5 52.92 43.5 55.6 43.5 55.6 L 42.8 55.6 C 42.8 55.6 42.84 52.34 42.8 52.3 Z " stroke="none" fill="#f28620"/>  </g>  <g id="Polygon17816">    <path d="M 0.8 43.6 L 0 43.6 L 3.1 36.5 L 3.8 36.5 L 6.9 43.6 L 6 43.6 L 5.2 41.7 L 1.6 41.7 L 0.8 43.6 Z M 1.9 41 L 5 41 L 3.4 37.3 L 1.9 41 Z M 11 43.6 C 10.9 43.3 10.9 43.1 10.9 42.8 C 10.9 42.8 10.9 42.8 10.9 42.8 C 10.6 43.3 10 43.7 9.3 43.7 C 8.1 43.7 7.6 43 7.6 41.9 C 7.58 41.85 7.6 38.9 7.6 38.9 L 8.2 38.9 C 8.2 38.9 8.24 41.47 8.2 41.5 C 8.2 42.5 8.5 43.1 9.5 43.1 C 9.6 43.1 10.9 43 10.9 41.3 C 10.93 41.28 10.9 38.9 10.9 38.9 L 11.6 38.9 C 11.6 38.9 11.59 42.53 11.6 42.5 C 11.6 42.8 11.6 43.2 11.6 43.6 C 11.6 43.6 11 43.6 11 43.6 Z M 16.5 40 C 16.3 39.6 15.9 39.4 15.4 39.4 C 14.3 39.3 13.6 40.1 13.6 41.2 C 13.6 42.3 14.3 43.1 15.4 43.1 C 15.9 43.1 16.3 42.8 16.5 42.5 C 16.5 42.5 17.1 42.9 17.1 42.9 C 16.6 43.4 16 43.7 15.4 43.7 C 13.8 43.7 12.9 42.6 12.9 41.2 C 12.9 39.8 13.8 38.7 15.4 38.8 C 16 38.8 16.6 39 17.1 39.6 C 17.1 39.6 16.5 40 16.5 40 Z M 18.6 41 L 20.8 38.9 L 21.8 38.9 L 19.5 41 L 22.1 43.6 L 21 43.6 L 18.6 41.1 L 18.6 43.6 L 18 43.6 L 18 36 L 18.6 36 L 18.6 41 Z M 23.6 43.6 L 22.9 43.6 L 22.9 36 L 23.6 36 L 23.6 43.6 Z M 25.6 41.4 C 25.7 42.3 26.4 43.1 27.4 43.1 C 28.1 43.1 28.6 42.7 28.9 42.3 C 28.9 42.3 29.4 42.7 29.4 42.7 C 28.8 43.4 28.1 43.7 27.4 43.7 C 26 43.7 24.9 42.6 24.9 41.2 C 24.9 39.8 26 38.8 27.3 38.8 C 28.7 38.8 29.5 39.8 29.5 41.1 C 29.54 41.1 29.5 41.4 29.5 41.4 C 29.5 41.4 25.64 41.4 25.6 41.4 Z M 28.8 40.9 C 28.8 40 28.3 39.4 27.3 39.4 C 26.4 39.4 25.7 40.1 25.7 40.9 C 25.7 40.9 28.8 40.9 28.8 40.9 Z M 32.5 42.8 L 33.9 38.9 L 34.7 38.9 C 34.7 38.9 32.37 44.78 32.4 44.8 C 32.1 45.5 31.7 46 30.9 46 C 30.7 46 30.5 45.9 30.3 45.9 C 30.3 45.9 30.4 45.3 30.4 45.3 C 30.5 45.3 30.7 45.4 30.9 45.4 C 31.3 45.4 31.6 45.1 31.8 44.5 C 31.76 44.52 32.1 43.6 32.1 43.6 L 30.2 38.9 L 31 38.9 L 32.5 42.8 Z " stroke="none" fill="#f28620"/>  </g>  <g id="Polygon17815">    <path d="M 1.7 31.6 L 1 31.6 L 1 24.5 L 5.2 24.5 L 5.2 25.1 L 1.7 25.1 L 1.7 27.6 L 5 27.6 L 5 28.2 L 1.7 28.2 L 1.7 31.6 Z M 7.1 31.6 L 6.4 31.6 L 6.4 26.9 L 7.1 26.9 L 7.1 31.6 Z M 6.8 25.6 C 6.5 25.6 6.3 25.4 6.3 25.1 C 6.3 24.8 6.5 24.6 6.8 24.6 C 7 24.6 7.2 24.8 7.2 25.1 C 7.2 25.4 7 25.6 6.8 25.6 Z M 9.1 29.4 C 9.2 30.3 9.9 31.1 10.9 31.1 C 11.6 31.1 12.1 30.7 12.4 30.3 C 12.4 30.3 12.9 30.7 12.9 30.7 C 12.3 31.4 11.6 31.7 10.9 31.7 C 9.5 31.7 8.4 30.6 8.4 29.2 C 8.4 27.8 9.5 26.8 10.8 26.8 C 12.2 26.8 13 27.8 13 29.1 C 13.04 29.1 13 29.4 13 29.4 C 13 29.4 9.14 29.4 9.1 29.4 Z M 12.3 28.9 C 12.3 28 11.8 27.4 10.8 27.4 C 9.9 27.4 9.2 28.1 9.2 28.9 C 9.2 28.9 12.3 28.9 12.3 28.9 Z M 15 31.6 L 14.4 31.6 L 14.4 24 L 15 24 L 15 31.6 Z M 21.3 31.6 L 20.7 31.6 L 20.7 30.8 C 20.7 30.8 20.63 30.78 20.6 30.8 C 20.2 31.4 19.4 31.7 18.8 31.7 C 17.3 31.7 16.3 30.6 16.3 29.2 C 16.3 27.8 17.3 26.8 18.8 26.8 C 19.4 26.8 20.2 27 20.6 27.7 C 20.63 27.66 20.7 27.7 20.7 27.7 L 20.7 24 L 21.3 24 L 21.3 31.6 Z M 18.8 31.1 C 19.9 31.1 20.7 30.3 20.7 29.2 C 20.7 28.2 19.9 27.4 18.8 27.4 C 17.7 27.4 17 28.2 17 29.2 C 17 30.3 17.7 31.1 18.8 31.1 Z M 26.5 30.9 L 29.8 30.9 L 29.8 31.6 L 25.8 31.6 L 25.8 24.5 L 26.5 24.5 L 26.5 30.9 Z M 33.5 28.7 C 33.5 28.7 33.53 28.57 33.5 28.6 C 33.5 27.8 33.1 27.4 32.3 27.4 C 31.8 27.4 31.3 27.5 30.9 27.9 C 30.9 27.9 30.5 27.4 30.5 27.4 C 30.9 27 31.6 26.8 32.5 26.8 C 33.4 26.8 34.2 27.3 34.2 28.4 C 34.2 28.4 34.2 30.5 34.2 30.5 C 34.2 30.9 34.2 31.3 34.3 31.6 C 34.3 31.6 33.6 31.6 33.6 31.6 C 33.6 31.3 33.6 31 33.6 30.8 C 33.6 30.8 33.6 30.8 33.6 30.8 C 33.2 31.4 32.6 31.7 31.9 31.7 C 31.1 31.7 30.3 31.2 30.3 30.3 C 30.3 28.8 32.1 28.7 33.2 28.7 C 33.2 28.69 33.5 28.7 33.5 28.7 Z M 33.2 29.2 C 32.5 29.2 31 29.3 31 30.2 C 31 30.8 31.6 31.1 32.1 31.1 C 33.1 31.1 33.5 30.4 33.5 29.6 C 33.53 29.57 33.5 29.2 33.5 29.2 C 33.5 29.2 33.19 29.23 33.2 29.2 Z M 36.3 26.9 C 36.4 27.1 36.4 27.4 36.4 27.6 C 36.4 27.6 36.4 27.6 36.4 27.6 C 36.7 27.1 37.3 26.8 38 26.8 C 39.2 26.8 39.7 27.4 39.7 28.6 C 39.73 28.59 39.7 31.6 39.7 31.6 L 39.1 31.6 C 39.1 31.6 39.07 28.97 39.1 29 C 39.1 27.9 38.8 27.4 37.8 27.4 C 37.7 27.4 36.4 27.4 36.4 29.2 C 36.38 29.16 36.4 31.6 36.4 31.6 L 35.7 31.6 C 35.7 31.6 35.72 27.91 35.7 27.9 C 35.7 27.7 35.7 27.2 35.7 26.9 C 35.7 26.9 36.3 26.9 36.3 26.9 Z M 41.7 29.4 C 41.8 30.3 42.5 31.1 43.5 31.1 C 44.2 31.1 44.7 30.7 45 30.3 C 45 30.3 45.5 30.7 45.5 30.7 C 44.9 31.4 44.2 31.7 43.5 31.7 C 42.1 31.7 41 30.6 41 29.2 C 41 27.8 42.1 26.8 43.4 26.8 C 44.8 26.8 45.6 27.8 45.6 29.1 C 45.64 29.1 45.6 29.4 45.6 29.4 C 45.6 29.4 41.74 29.4 41.7 29.4 Z M 44.9 28.9 C 44.9 28 44.4 27.4 43.4 27.4 C 42.5 27.4 41.8 28.1 41.8 28.9 C 41.8 28.9 44.9 28.9 44.9 28.9 Z " stroke="none" fill="#f28620"/>  </g>  <g id="Polygon17814">    <path d="M 6 16.9 C 6 18.1 5.6 19.7 3.4 19.7 C 1.3 19.7 0.8 18.1 0.8 16.9 C 0.84 16.92 0.8 12.5 0.8 12.5 L 1.6 12.5 C 1.6 12.5 1.56 16.84 1.6 16.8 C 1.6 18.9 2.9 19.1 3.4 19.1 C 4 19.1 5.3 18.9 5.3 16.8 C 5.3 16.84 5.3 12.5 5.3 12.5 L 6 12.5 C 6 12.5 6.02 16.92 6 16.9 Z M 8.2 14.9 C 8.2 15.1 8.2 15.4 8.2 15.6 C 8.2 15.6 8.3 15.6 8.3 15.6 C 8.5 15.1 9.2 14.8 9.8 14.8 C 11 14.8 11.6 15.4 11.6 16.6 C 11.59 16.59 11.6 19.6 11.6 19.6 L 10.9 19.6 C 10.9 19.6 10.93 16.97 10.9 17 C 10.9 15.9 10.6 15.4 9.7 15.4 C 9.5 15.4 8.2 15.4 8.2 17.2 C 8.24 17.16 8.2 19.6 8.2 19.6 L 7.6 19.6 C 7.6 19.6 7.58 15.91 7.6 15.9 C 7.6 15.7 7.6 15.2 7.5 14.9 C 7.5 14.9 8.2 14.9 8.2 14.9 Z M 13.9 19.6 L 13.3 19.6 L 13.3 14.9 L 13.9 14.9 L 13.9 19.6 Z M 13.6 13.6 C 13.4 13.6 13.1 13.4 13.1 13.1 C 13.1 12.8 13.4 12.6 13.6 12.6 C 13.9 12.6 14.1 12.8 14.1 13.1 C 14.1 13.4 13.9 13.6 13.6 13.6 Z M 18 15.5 L 16.6 15.5 C 16.6 15.5 16.61 18.24 16.6 18.2 C 16.6 18.9 16.9 19.1 17.3 19.1 C 17.5 19.1 17.8 19 18 18.9 C 18 18.9 18 19.5 18 19.5 C 17.8 19.6 17.4 19.7 17.1 19.7 C 16.6 19.7 16 19.5 16 18.4 C 15.95 18.43 16 15.5 16 15.5 L 15 15.5 L 15 14.9 L 16 14.9 L 16 13.6 L 16.6 13.6 L 16.6 14.9 L 18 14.9 L 18 15.5 Z M 22.9 15.5 C 22.9 15.5 23.31 15.52 23.3 15.5 C 24.2 15.5 24.9 15.2 24.9 14.2 C 24.9 13.5 24.4 13 23.6 13 C 23 13 22.5 13.3 22.2 13.8 C 22.2 13.8 21.6 13.5 21.6 13.5 C 22 12.7 22.7 12.4 23.5 12.4 C 24.6 12.4 25.6 13 25.6 14.2 C 25.6 15 25 15.6 24.4 15.8 C 24.4 15.8 24.4 15.8 24.4 15.8 C 25.2 16 25.8 16.7 25.8 17.6 C 25.8 19 24.7 19.7 23.5 19.7 C 22.5 19.7 21.7 19.3 21.3 18.3 C 21.3 18.3 22 18 22 18 C 22.3 18.7 22.7 19 23.6 19 C 24.4 19 25.1 18.5 25.1 17.6 C 25.1 16.5 24.2 16.2 23.3 16.2 C 23.25 16.18 22.9 16.2 22.9 16.2 L 22.9 15.5 Z M 30.2 12.5 L 30.9 12.5 L 30.9 15.6 L 34.8 15.6 L 34.8 12.5 L 35.5 12.5 L 35.5 19.6 L 34.8 19.6 L 34.8 16.2 L 30.9 16.2 L 30.9 19.6 L 30.2 19.6 L 30.2 12.5 Z M 40.2 16.7 C 40.2 16.7 40.17 16.57 40.2 16.6 C 40.2 15.8 39.8 15.4 39 15.4 C 38.4 15.4 37.9 15.5 37.5 15.9 C 37.5 15.9 37.1 15.4 37.1 15.4 C 37.6 15 38.2 14.8 39.1 14.8 C 40 14.8 40.8 15.3 40.8 16.4 C 40.8 16.4 40.8 18.5 40.8 18.5 C 40.8 18.9 40.9 19.3 40.9 19.6 C 40.9 19.6 40.3 19.6 40.3 19.6 C 40.2 19.3 40.2 19 40.2 18.8 C 40.2 18.8 40.2 18.8 40.2 18.8 C 39.8 19.4 39.3 19.7 38.5 19.7 C 37.7 19.7 36.9 19.2 36.9 18.3 C 36.9 16.8 38.7 16.7 39.8 16.7 C 39.84 16.69 40.2 16.7 40.2 16.7 Z M 39.8 17.2 C 39.2 17.2 37.6 17.3 37.6 18.2 C 37.6 18.8 38.2 19.1 38.7 19.1 C 39.7 19.1 40.2 18.4 40.2 17.6 C 40.17 17.57 40.2 17.2 40.2 17.2 C 40.2 17.2 39.83 17.23 39.8 17.2 Z M 44.1 18.8 L 45.5 14.9 L 46.3 14.9 C 46.3 14.9 43.98 20.78 44 20.8 C 43.7 21.5 43.3 22 42.5 22 C 42.3 22 42.1 21.9 41.9 21.9 C 41.9 21.9 42 21.3 42 21.3 C 42.1 21.3 42.3 21.4 42.5 21.4 C 42.9 21.4 43.2 21.1 43.4 20.5 C 43.38 20.52 43.7 19.6 43.7 19.6 L 41.8 14.9 L 42.6 14.9 L 44.1 18.8 Z M 49.4 15.5 L 48.2 15.5 L 48.2 19.6 L 47.6 19.6 L 47.6 15.5 L 46.6 15.5 L 46.6 14.9 L 47.6 14.9 C 47.6 14.9 47.59 13.6 47.6 13.6 C 47.6 12.4 48.2 11.9 49.2 11.9 C 49.3 11.9 49.5 11.9 49.7 11.9 C 49.7 11.9 49.6 12.5 49.6 12.5 C 49.4 12.5 49.3 12.5 49.1 12.5 C 48.4 12.5 48.2 13 48.2 13.7 C 48.24 13.68 48.2 14.9 48.2 14.9 L 49.4 14.9 L 49.4 15.5 Z M 51 19.6 L 50.3 19.6 L 50.3 14.9 L 51 14.9 L 51 19.6 Z M 50.6 13.6 C 50.4 13.6 50.1 13.4 50.1 13.1 C 50.1 12.8 50.4 12.6 50.6 12.6 C 50.9 12.6 51.1 12.8 51.1 13.1 C 51.1 13.4 50.9 13.6 50.6 13.6 Z M 53 17.4 C 53.1 18.3 53.8 19.1 54.7 19.1 C 55.4 19.1 56 18.7 56.2 18.3 C 56.2 18.3 56.7 18.7 56.7 18.7 C 56.2 19.4 55.5 19.7 54.7 19.7 C 53.3 19.7 52.3 18.6 52.3 17.2 C 52.3 15.8 53.3 14.8 54.7 14.8 C 56.1 14.8 56.9 15.8 56.9 17.1 C 56.9 17.1 56.9 17.4 56.9 17.4 C 56.9 17.4 53 17.4 53 17.4 Z M 56.2 16.9 C 56.2 16 55.6 15.4 54.7 15.4 C 53.8 15.4 53 16.1 53 16.9 C 53 16.9 56.2 16.9 56.2 16.9 Z M 58.9 19.6 L 58.3 19.6 L 58.3 12 L 58.9 12 L 58.9 19.6 Z M 65.2 19.6 L 64.5 19.6 L 64.5 18.8 C 64.5 18.8 64.5 18.78 64.5 18.8 C 64.1 19.4 63.3 19.7 62.7 19.7 C 61.2 19.7 60.2 18.6 60.2 17.2 C 60.2 15.8 61.2 14.8 62.7 14.8 C 63.3 14.8 64.1 15 64.5 15.7 C 64.5 15.66 64.5 15.7 64.5 15.7 L 64.5 12 L 65.2 12 L 65.2 19.6 Z M 62.7 19.1 C 63.8 19.1 64.5 18.3 64.5 17.2 C 64.5 16.2 63.8 15.4 62.7 15.4 C 61.6 15.4 60.9 16.2 60.9 17.2 C 60.9 18.3 61.6 19.1 62.7 19.1 Z M 69.6 12.5 C 69.6 12.5 71.73 12.48 71.7 12.5 C 72.9 12.5 74 12.9 74 14.3 C 74 15 73.5 15.6 72.8 15.8 C 72.8 15.8 72.8 15.8 72.8 15.8 C 73.7 15.9 74.4 16.6 74.4 17.6 C 74.4 18.1 74.1 19.6 71.8 19.6 C 71.78 19.56 69.6 19.6 69.6 19.6 L 69.6 12.5 Z M 70.3 15.6 C 70.3 15.6 71.79 15.58 71.8 15.6 C 72.5 15.6 73.2 15.3 73.2 14.3 C 73.2 14 73.1 13.1 71.7 13.1 C 71.72 13.14 70.3 13.1 70.3 13.1 L 70.3 15.6 Z M 70.3 18.9 C 70.3 18.9 71.72 18.9 71.7 18.9 C 72.8 18.9 73.6 18.5 73.6 17.6 C 73.6 16.6 73 16.2 71.8 16.2 C 71.81 16.18 70.3 16.2 70.3 16.2 L 70.3 18.9 Z M 79.1 19.6 C 79 19.3 79 19.1 79 18.8 C 79 18.8 79 18.8 79 18.8 C 78.7 19.3 78.1 19.7 77.4 19.7 C 76.2 19.7 75.7 19 75.7 17.9 C 75.68 17.85 75.7 14.9 75.7 14.9 L 76.3 14.9 C 76.3 14.9 76.34 17.47 76.3 17.5 C 76.3 18.5 76.6 19.1 77.6 19.1 C 77.7 19.1 79 19 79 17.3 C 79.03 17.28 79 14.9 79 14.9 L 79.7 14.9 C 79.7 14.9 79.69 18.53 79.7 18.5 C 79.7 18.8 79.7 19.2 79.7 19.6 C 79.7 19.6 79.1 19.6 79.1 19.6 Z M 83.7 16 C 83.5 15.6 83.2 15.4 82.7 15.4 C 82.2 15.4 81.7 15.6 81.7 16.1 C 81.7 16.5 82 16.7 82.7 16.8 C 82.7 16.8 83.3 17 83.3 17 C 84 17.1 84.5 17.6 84.5 18.2 C 84.5 19.3 83.6 19.7 82.6 19.7 C 81.9 19.7 81.3 19.4 80.8 18.8 C 80.8 18.8 81.4 18.4 81.4 18.4 C 81.7 18.8 82.1 19.1 82.6 19.1 C 83.2 19.1 83.7 18.8 83.7 18.3 C 83.7 17.8 83.3 17.7 82.9 17.6 C 82.9 17.6 82.2 17.4 82.2 17.4 C 81.9 17.3 81 17.1 81 16.2 C 81 15.2 81.9 14.8 82.7 14.8 C 83.4 14.8 84 15 84.3 15.6 C 84.3 15.6 83.7 16 83.7 16 Z M 86.3 19.6 L 85.6 19.6 L 85.6 14.9 L 86.3 14.9 L 86.3 19.6 Z M 86 13.6 C 85.7 13.6 85.5 13.4 85.5 13.1 C 85.5 12.8 85.7 12.6 86 12.6 C 86.2 12.6 86.5 12.8 86.5 13.1 C 86.5 13.4 86.2 13.6 86 13.6 Z M 88.5 14.9 C 88.6 15.1 88.6 15.4 88.6 15.6 C 88.6 15.6 88.6 15.6 88.6 15.6 C 88.9 15.1 89.5 14.8 90.1 14.8 C 91.3 14.8 91.9 15.4 91.9 16.6 C 91.91 16.59 91.9 19.6 91.9 19.6 L 91.2 19.6 C 91.2 19.6 91.25 16.97 91.2 17 C 91.2 15.9 91 15.4 90 15.4 C 89.8 15.4 88.6 15.4 88.6 17.2 C 88.56 17.16 88.6 19.6 88.6 19.6 L 87.9 19.6 C 87.9 19.6 87.9 15.91 87.9 15.9 C 87.9 15.7 87.9 15.2 87.8 14.9 C 87.8 14.9 88.5 14.9 88.5 14.9 Z M 93.9 17.4 C 94 18.3 94.7 19.1 95.6 19.1 C 96.3 19.1 96.9 18.7 97.1 18.3 C 97.1 18.3 97.6 18.7 97.6 18.7 C 97.1 19.4 96.4 19.7 95.6 19.7 C 94.2 19.7 93.2 18.6 93.2 17.2 C 93.2 15.8 94.2 14.8 95.6 14.8 C 97 14.8 97.8 15.8 97.8 17.1 C 97.82 17.1 97.8 17.4 97.8 17.4 C 97.8 17.4 93.92 17.4 93.9 17.4 Z M 97.1 16.9 C 97.1 16 96.5 15.4 95.6 15.4 C 94.7 15.4 93.9 16.1 93.9 16.9 C 93.9 16.9 97.1 16.9 97.1 16.9 Z M 101.5 16 C 101.3 15.6 101 15.4 100.5 15.4 C 100 15.4 99.5 15.6 99.5 16.1 C 99.5 16.5 99.8 16.7 100.4 16.8 C 100.4 16.8 101.1 17 101.1 17 C 101.8 17.1 102.2 17.6 102.2 18.2 C 102.2 19.3 101.3 19.7 100.4 19.7 C 99.7 19.7 99.1 19.4 98.6 18.8 C 98.6 18.8 99.2 18.4 99.2 18.4 C 99.5 18.8 99.9 19.1 100.4 19.1 C 101 19.1 101.5 18.8 101.5 18.3 C 101.5 17.8 101.1 17.7 100.6 17.6 C 100.6 17.6 100 17.4 100 17.4 C 99.7 17.3 98.8 17.1 98.8 16.2 C 98.8 15.2 99.6 14.8 100.5 14.8 C 101.2 14.8 101.8 15 102.1 15.6 C 102.1 15.6 101.5 16 101.5 16 Z M 105.8 16 C 105.6 15.6 105.2 15.4 104.7 15.4 C 104.3 15.4 103.8 15.6 103.8 16.1 C 103.8 16.5 104.1 16.7 104.7 16.8 C 104.7 16.8 105.4 17 105.4 17 C 106 17.1 106.5 17.6 106.5 18.2 C 106.5 19.3 105.6 19.7 104.7 19.7 C 104 19.7 103.3 19.4 102.9 18.8 C 102.9 18.8 103.5 18.4 103.5 18.4 C 103.7 18.8 104.1 19.1 104.7 19.1 C 105.2 19.1 105.8 18.8 105.8 18.3 C 105.8 17.8 105.4 17.7 104.9 17.6 C 104.9 17.6 104.3 17.4 104.3 17.4 C 103.9 17.3 103.1 17.1 103.1 16.2 C 103.1 15.2 103.9 14.8 104.8 14.8 C 105.4 14.8 106 15 106.3 15.6 C 106.3 15.6 105.8 16 105.8 16 Z M 110.5 12.5 C 110.5 12.5 112.6 12.48 112.6 12.5 C 114 12.5 114.9 13.1 114.9 14.4 C 114.9 15.6 114 16.3 112.6 16.3 C 112.6 16.27 111.3 16.3 111.3 16.3 L 111.3 19.6 L 110.5 19.6 L 110.5 12.5 Z M 111.3 15.6 C 111.3 15.6 112.42 15.61 112.4 15.6 C 113.7 15.6 114.2 15.1 114.2 14.4 C 114.2 13.7 113.7 13.1 112.4 13.1 C 112.42 13.14 111.3 13.1 111.3 13.1 L 111.3 15.6 Z M 119 16.7 C 119 16.7 119.04 16.57 119 16.6 C 119 15.8 118.6 15.4 117.8 15.4 C 117.3 15.4 116.8 15.5 116.4 15.9 C 116.4 15.9 116 15.4 116 15.4 C 116.4 15 117.1 14.8 118 14.8 C 118.9 14.8 119.7 15.3 119.7 16.4 C 119.7 16.4 119.7 18.5 119.7 18.5 C 119.7 18.9 119.7 19.3 119.8 19.6 C 119.8 19.6 119.1 19.6 119.1 19.6 C 119.1 19.3 119.1 19 119.1 18.8 C 119.1 18.8 119.1 18.8 119.1 18.8 C 118.7 19.4 118.2 19.7 117.4 19.7 C 116.6 19.7 115.8 19.2 115.8 18.3 C 115.8 16.8 117.6 16.7 118.7 16.7 C 118.71 16.69 119 16.7 119 16.7 Z M 118.7 17.2 C 118 17.2 116.5 17.3 116.5 18.2 C 116.5 18.8 117.1 19.1 117.6 19.1 C 118.6 19.1 119 18.4 119 17.6 C 119.04 17.57 119 17.2 119 17.2 C 119 17.2 118.7 17.23 118.7 17.2 Z M 121.3 16.3 C 121.3 15.9 121.3 15.6 121.3 14.9 C 121.26 14.88 121.9 14.9 121.9 14.9 L 121.9 15.7 C 121.9 15.7 121.93 15.75 121.9 15.7 C 122.1 15.2 122.6 14.8 123.4 14.8 C 123.6 14.8 123.8 14.8 123.9 14.8 C 123.9 14.8 123.8 15.5 123.8 15.5 C 123.7 15.4 123.6 15.4 123.4 15.4 C 122.4 15.4 122 16.3 122 16.9 C 121.96 16.92 122 19.6 122 19.6 L 121.3 19.6 C 121.3 19.6 121.3 16.34 121.3 16.3 Z M 125.2 17 L 127.4 14.9 L 128.4 14.9 L 126.1 17 L 128.7 19.6 L 127.6 19.6 L 125.2 17.1 L 125.2 19.6 L 124.5 19.6 L 124.5 12 L 125.2 12 L 125.2 17 Z " stroke="none" fill="#f28620"/>  </g>  <g id="Polygon17813">    <path d="M 0.9 0.5 C 0.9 0.5 3.21 0.48 3.2 0.5 C 5 0.5 6.9 1.7 6.9 4 C 6.9 6.4 5 7.6 3.2 7.6 C 3.21 7.56 0.9 7.6 0.9 7.6 L 0.9 0.5 Z M 1.6 6.9 C 1.6 6.9 2.98 6.9 3 6.9 C 5.1 6.9 6.2 5.5 6.2 4 C 6.2 2.6 5.1 1.1 3 1.1 C 2.98 1.14 1.6 1.1 1.6 1.1 L 1.6 6.9 Z M 11.7 1.6 C 11.4 1.2 11 1 10.4 1 C 9.6 1 8.8 1.3 8.8 2.2 C 8.8 4.2 12.5 3.1 12.5 5.7 C 12.5 7 11.3 7.7 10.1 7.7 C 9.3 7.7 8.4 7.4 7.9 6.7 C 7.9 6.7 8.6 6.2 8.6 6.2 C 8.9 6.7 9.4 7.1 10.2 7.1 C 10.9 7.1 11.7 6.6 11.7 5.8 C 11.7 3.8 8.1 4.9 8.1 2.3 C 8.1 0.9 9.2 0.3 10.4 0.3 C 11.2 0.3 11.8 0.5 12.3 1.2 C 12.3 1.2 11.7 1.6 11.7 1.6 Z M 15.5 6.5 L 15.5 6.5 L 17.3 0.5 L 18.1 0.5 L 19.9 6.5 L 19.9 6.5 L 21.6 0.5 L 22.4 0.5 L 20.3 7.6 L 19.5 7.6 L 17.7 1.5 L 17.7 1.5 L 15.9 7.6 L 15.1 7.6 L 13 0.5 L 13.8 0.5 L 15.5 6.5 Z M 26.2 0.5 L 26.9 0.5 L 26.9 3.6 L 30.7 3.6 L 30.7 0.5 L 31.4 0.5 L 31.4 7.6 L 30.7 7.6 L 30.7 4.2 L 26.9 4.2 L 26.9 7.6 L 26.2 7.6 L 26.2 0.5 Z M 35.4 7.7 C 33.9 7.7 32.9 6.6 32.9 5.2 C 32.9 3.8 33.9 2.8 35.4 2.8 C 36.8 2.8 37.9 3.8 37.9 5.2 C 37.9 6.6 36.8 7.7 35.4 7.7 Z M 35.4 3.4 C 34.3 3.4 33.6 4.2 33.6 5.2 C 33.6 6.3 34.3 7.1 35.4 7.1 C 36.5 7.1 37.1 6.3 37.1 5.2 C 37.1 4.2 36.5 3.4 35.4 3.4 Z M 42.4 7.6 C 42.4 7.3 42.4 7.1 42.4 6.8 C 42.4 6.8 42.4 6.8 42.4 6.8 C 42.1 7.3 41.4 7.7 40.8 7.7 C 39.6 7.7 39.1 7 39.1 5.9 C 39.06 5.85 39.1 2.9 39.1 2.9 L 39.7 2.9 C 39.7 2.9 39.72 5.47 39.7 5.5 C 39.7 6.5 40 7.1 41 7.1 C 41.1 7.1 42.4 7 42.4 5.3 C 42.41 5.28 42.4 2.9 42.4 2.9 L 43.1 2.9 C 43.1 2.9 43.07 6.53 43.1 6.5 C 43.1 6.8 43.1 7.2 43.1 7.6 C 43.1 7.6 42.4 7.6 42.4 7.6 Z M 47.1 4 C 46.9 3.6 46.6 3.4 46.1 3.4 C 45.6 3.4 45.1 3.6 45.1 4.1 C 45.1 4.5 45.4 4.7 46 4.8 C 46 4.8 46.7 5 46.7 5 C 47.4 5.1 47.8 5.6 47.8 6.2 C 47.8 7.3 46.9 7.7 46 7.7 C 45.3 7.7 44.7 7.4 44.2 6.8 C 44.2 6.8 44.8 6.4 44.8 6.4 C 45.1 6.8 45.5 7.1 46 7.1 C 46.6 7.1 47.1 6.8 47.1 6.3 C 47.1 5.8 46.7 5.7 46.2 5.6 C 46.2 5.6 45.6 5.4 45.6 5.4 C 45.3 5.3 44.4 5.1 44.4 4.2 C 44.4 3.2 45.2 2.8 46.1 2.8 C 46.8 2.8 47.4 3 47.7 3.6 C 47.7 3.6 47.1 4 47.1 4 Z M 49.3 5.4 C 49.4 6.3 50.1 7.1 51.1 7.1 C 51.8 7.1 52.3 6.7 52.6 6.3 C 52.6 6.3 53.1 6.7 53.1 6.7 C 52.5 7.4 51.8 7.7 51.1 7.7 C 49.7 7.7 48.6 6.6 48.6 5.2 C 48.6 3.8 49.7 2.8 51 2.8 C 52.4 2.8 53.2 3.8 53.2 5.1 C 53.24 5.1 53.2 5.4 53.2 5.4 C 53.2 5.4 49.34 5.4 49.3 5.4 Z M 52.5 4.9 C 52.5 4 51.9 3.4 51 3.4 C 50.1 3.4 49.4 4.1 49.4 4.9 C 49.4 4.9 52.5 4.9 52.5 4.9 Z " stroke="none" fill="#f28620"/>  </g></svg>