<?xml version="1.0" standalone="no"?><!DOCTYPE svg PUBLIC "-//W3C//DTD SVG 1.1//EN" "http://www.w3.org/Graphics/SVG/1.1/DTD/svg11.dtd"><svg xmlns="http://www.w3.org/2000/svg" version="1.1" width="114.2px" height="60.4px" viewBox="0 -5 114.2 60.4" style="top:-5px">  <desc>Title</desc>  <defs/>  <g id="Polygon16440">    <path d="M 4.9 30 L 0.2 30 L 0.2 27.5 L 12.5 27.5 L 12.5 30 L 7.7 30 L 7.7 43 L 4.9 43 L 4.9 30 Z M 18.5 41.6 C 18.5 41.6 18.46 41.58 18.5 41.6 C 17.7 42.8 16.5 43.3 15.1 43.3 C 13.1 43.3 11.2 42.2 11.2 40.1 C 11.2 36.7 15.2 36.5 17.9 36.5 C 17.86 36.45 18.5 36.5 18.5 36.5 C 18.5 36.5 18.52 36.17 18.5 36.2 C 18.5 34.9 17.5 34.2 16.1 34.2 C 15 34.2 14 34.6 13.3 35.3 C 13.3 35.3 11.9 33.9 11.9 33.9 C 13.1 32.7 14.7 32.2 16.4 32.2 C 20.9 32.2 20.9 35.5 20.9 37 C 20.9 36.96 20.9 43 20.9 43 L 18.5 43 L 18.5 41.6 Z M 18.4 38.3 C 18.4 38.3 17.82 38.3 17.8 38.3 C 16.4 38.3 13.9 38.4 13.9 39.9 C 13.9 40.9 14.8 41.3 15.7 41.3 C 17.5 41.3 18.4 40.4 18.4 38.9 C 18.37 38.9 18.4 38.3 18.4 38.3 Z M 23.8 26.4 L 26.4 26.4 L 26.4 43 L 23.8 43 L 23.8 26.4 Z M 31.6 38.7 C 31.7 40.2 32.9 41.2 34.4 41.2 C 35.7 41.2 36.6 40.6 37.2 39.8 C 37.2 39.8 39.1 41.2 39.1 41.2 C 37.9 42.7 36.3 43.3 34.7 43.3 C 31.5 43.3 28.9 41.1 28.9 37.8 C 28.9 34.4 31.5 32.2 34.7 32.2 C 37.6 32.2 39.6 34.3 39.6 37.9 C 39.62 37.95 39.6 38.7 39.6 38.7 C 39.6 38.7 31.57 38.68 31.6 38.7 Z M 37 36.7 C 37 35.2 35.9 34.2 34.3 34.2 C 32.7 34.2 31.8 35.2 31.6 36.7 C 31.6 36.7 37 36.7 37 36.7 Z M 42.1 32.5 L 44.6 32.5 L 44.6 34.2 C 44.6 34.2 44.64 34.17 44.6 34.2 C 45.1 33.1 46.1 32.2 47.9 32.2 C 50.7 32.2 51.7 34.2 51.7 36.4 C 51.72 36.37 51.7 43 51.7 43 L 49.1 43 C 49.1 43 49.08 37.69 49.1 37.7 C 49.1 36.5 49 34.6 47.1 34.6 C 45.4 34.6 44.7 35.9 44.7 37.3 C 44.73 37.27 44.7 43 44.7 43 L 42.1 43 L 42.1 32.5 Z M 53.5 34.7 L 53.5 32.5 L 55.7 32.5 L 55.7 29.4 L 58.3 29.4 L 58.3 32.5 L 61.2 32.5 L 61.2 34.7 L 58.3 34.7 C 58.3 34.7 58.3 39.34 58.3 39.3 C 58.3 40.4 58.6 41.1 59.8 41.1 C 60.2 41.1 60.9 41 61.2 40.7 C 61.2 40.7 61.2 42.9 61.2 42.9 C 60.7 43.2 59.7 43.3 59.1 43.3 C 56.3 43.3 55.7 42 55.7 39.6 C 55.66 39.56 55.7 34.7 55.7 34.7 L 53.5 34.7 Z M 70 27.5 C 70 27.5 75.2 27.46 75.2 27.5 C 78.2 27.5 80.9 28.5 80.9 32 C 80.9 35.9 78 36.6 74.7 36.6 C 74.71 36.59 72.7 36.6 72.7 36.6 L 72.7 43 L 70 43 L 70 27.5 Z M 74.4 34.2 C 76 34.2 78 34.1 78 32 C 78 30.1 76.2 29.8 74.7 29.8 C 74.71 29.83 72.7 29.8 72.7 29.8 L 72.7 34.2 C 72.7 34.2 74.41 34.21 74.4 34.2 Z M 88.4 32.2 C 91.6 32.2 94.1 34.4 94.1 37.8 C 94.1 41.1 91.6 43.3 88.4 43.3 C 85.2 43.3 82.6 41.1 82.6 37.8 C 82.6 34.4 85.2 32.2 88.4 32.2 Z M 88.4 40.9 C 90.3 40.9 91.5 39.4 91.5 37.8 C 91.5 36.1 90.3 34.6 88.4 34.6 C 86.4 34.6 85.3 36.1 85.3 37.8 C 85.3 39.4 86.4 40.9 88.4 40.9 Z M 101.8 32.2 C 105 32.2 107.5 34.4 107.5 37.8 C 107.5 41.1 105 43.3 101.8 43.3 C 98.6 43.3 96.1 41.1 96.1 37.8 C 96.1 34.4 98.6 32.2 101.8 32.2 Z M 101.8 40.9 C 103.7 40.9 104.9 39.4 104.9 37.8 C 104.9 36.1 103.7 34.6 101.8 34.6 C 99.9 34.6 98.7 36.1 98.7 37.8 C 98.7 39.4 99.9 40.9 101.8 40.9 Z M 110 26.4 L 112.7 26.4 L 112.7 43 L 110 43 L 110 26.4 Z " stroke="none" fill="#253885"/>  </g>  <g id="Polygon16439">    <path d="M 1.7 1.1 L 4.5 1.1 L 4.5 14.1 L 11.1 14.1 L 11.1 16.6 L 1.7 16.6 L 1.7 1.1 Z M 24 13 L 27.4 16.6 L 24 16.6 C 24 16.6 22.35 14.85 22.4 14.8 C 21.1 16.3 19.7 17 17.8 17 C 15 17 12.5 15.4 12.5 12.5 C 12.5 10.4 14 8.8 15.8 8.1 C 14.8 7 14.1 6 14.1 4.5 C 14.1 1.9 16.2 0.7 18.5 0.7 C 20.9 0.7 22.9 1.8 22.9 4.4 C 22.9 6.3 21.4 7.6 19.8 8.4 C 19.82 8.38 22.3 11.1 22.3 11.1 L 24.1 8.4 L 27.2 8.4 L 24 13 Z M 16.7 4.6 C 16.7 5.4 17.5 6.2 18.2 6.9 C 19.1 6.4 20.3 5.6 20.3 4.5 C 20.3 3.7 19.5 3 18.6 3 C 17.6 3 16.7 3.7 16.7 4.6 Z M 17.5 9.6 C 16.5 10.3 15.4 11 15.4 12.3 C 15.4 13.7 16.5 14.7 17.8 14.7 C 19.1 14.7 19.9 13.9 20.7 13.1 C 20.7 13.1 17.5 9.6 17.5 9.6 Z M 29.5 1.1 C 29.5 1.1 35.6 1.06 35.6 1.1 C 39.7 1.1 43.5 3.6 43.5 8.8 C 43.5 14.2 39 16.6 35.3 16.6 C 35.27 16.63 29.5 16.6 29.5 16.6 L 29.5 1.1 Z M 34.3 14.1 C 37.8 14.1 40.6 12.6 40.6 8.8 C 40.6 5.1 38.1 3.6 34.8 3.6 C 34.76 3.56 32.2 3.6 32.2 3.6 L 32.2 14.1 C 32.2 14.1 34.3 14.12 34.3 14.1 Z " stroke="none" fill="#253885"/>  </g></svg>