<?xml version="1.0" standalone="no"?><!DOCTYPE svg PUBLIC "-//W3C//DTD SVG 1.1//EN" "http://www.w3.org/Graphics/SVG/1.1/DTD/svg11.dtd"><svg xmlns="http://www.w3.org/2000/svg" version="1.1" width="89.3px" height="28.4px" viewBox="0 -3 89.3 28.4" style="top:-3px">  <desc>Leadership, Management &amp; HR</desc>  <defs/>  <g id="Polygon17054">    <path d="M 1 12.5 L 2.9 12.5 L 4.8 17.4 L 6.7 12.5 L 8.6 12.5 L 8.6 19.6 L 7.4 19.6 L 7.4 13.7 L 7.4 13.7 L 5.3 19.6 L 4.4 19.6 L 2.2 13.7 L 2.2 13.7 L 2.2 19.6 L 1 19.6 L 1 12.5 Z M 13.1 18.9 C 13.1 18.9 13.1 18.9 13.1 18.9 C 12.8 19.4 12.2 19.7 11.6 19.7 C 10.7 19.7 9.8 19.2 9.8 18.2 C 9.8 16.7 11.6 16.6 12.8 16.6 C 12.83 16.57 13.1 16.6 13.1 16.6 C 13.1 16.6 13.13 16.44 13.1 16.4 C 13.1 15.8 12.7 15.5 12 15.5 C 11.5 15.5 11.1 15.7 10.7 16 C 10.7 16 10.1 15.4 10.1 15.4 C 10.6 14.9 11.4 14.6 12.2 14.6 C 14.2 14.6 14.2 16.1 14.2 16.8 C 14.21 16.8 14.2 19.6 14.2 19.6 L 13.1 19.6 L 13.1 18.9 Z M 13.1 17.4 C 13.1 17.4 12.81 17.41 12.8 17.4 C 12.1 17.4 11 17.5 11 18.2 C 11 18.6 11.5 18.8 11.8 18.8 C 12.7 18.8 13.1 18.4 13.1 17.7 C 13.06 17.68 13.1 17.4 13.1 17.4 Z M 15.5 14.8 L 16.6 14.8 L 16.6 15.5 C 16.6 15.5 16.66 15.53 16.7 15.5 C 16.9 15.1 17.3 14.6 18.1 14.6 C 19.4 14.6 19.9 15.5 19.9 16.5 C 19.88 16.53 19.9 19.6 19.9 19.6 L 18.7 19.6 C 18.7 19.6 18.68 17.13 18.7 17.1 C 18.7 16.6 18.6 15.7 17.8 15.7 C 17 15.7 16.7 16.3 16.7 16.9 C 16.7 16.94 16.7 19.6 16.7 19.6 L 15.5 19.6 L 15.5 14.8 Z M 24.2 18.9 C 24.2 18.9 24.21 18.9 24.2 18.9 C 23.9 19.4 23.3 19.7 22.7 19.7 C 21.8 19.7 20.9 19.2 20.9 18.2 C 20.9 16.7 22.7 16.6 23.9 16.6 C 23.94 16.57 24.2 16.6 24.2 16.6 C 24.2 16.6 24.24 16.44 24.2 16.4 C 24.2 15.8 23.8 15.5 23.1 15.5 C 22.6 15.5 22.2 15.7 21.9 16 C 21.9 16 21.2 15.4 21.2 15.4 C 21.8 14.9 22.5 14.6 23.3 14.6 C 25.3 14.6 25.3 16.1 25.3 16.8 C 25.32 16.8 25.3 19.6 25.3 19.6 L 24.2 19.6 L 24.2 18.9 Z M 24.2 17.4 C 24.2 17.4 23.92 17.41 23.9 17.4 C 23.3 17.4 22.1 17.5 22.1 18.2 C 22.1 18.6 22.6 18.8 23 18.8 C 23.8 18.8 24.2 18.4 24.2 17.7 C 24.17 17.68 24.2 17.4 24.2 17.4 Z M 31.5 14.8 C 31.5 14.8 31.55 19.13 31.5 19.1 C 31.5 20.9 30.7 22 28.8 22 C 27.9 22 27.1 21.8 26.5 21.2 C 26.5 21.2 27.2 20.2 27.2 20.2 C 27.7 20.6 28.2 20.9 28.8 20.9 C 30 20.9 30.3 20.2 30.3 19.3 C 30.35 19.27 30.3 18.9 30.3 18.9 C 30.3 18.9 30.33 18.92 30.3 18.9 C 30 19.4 29.4 19.6 28.8 19.6 C 27.3 19.6 26.4 18.5 26.4 17.2 C 26.4 15.7 27.3 14.6 28.7 14.6 C 29.4 14.6 30 14.9 30.4 15.5 C 30.39 15.48 30.4 15.5 30.4 15.5 L 30.4 14.8 L 31.5 14.8 Z M 27.6 17.1 C 27.6 17.9 28.2 18.5 29 18.5 C 29.9 18.5 30.4 17.9 30.4 17.1 C 30.4 16.3 29.9 15.7 29 15.7 C 28.1 15.7 27.6 16.3 27.6 17.1 Z M 33.9 17.6 C 33.9 18.3 34.5 18.7 35.2 18.7 C 35.8 18.7 36.1 18.4 36.4 18.1 C 36.4 18.1 37.3 18.7 37.3 18.7 C 36.7 19.4 36 19.7 35.3 19.7 C 33.8 19.7 32.7 18.7 32.7 17.2 C 32.7 15.6 33.8 14.6 35.3 14.6 C 36.6 14.6 37.5 15.6 37.5 17.2 C 37.53 17.25 37.5 17.6 37.5 17.6 C 37.5 17.6 33.87 17.58 33.9 17.6 Z M 36.3 16.7 C 36.3 16 35.9 15.5 35.1 15.5 C 34.4 15.5 34 16 33.9 16.7 C 33.9 16.7 36.3 16.7 36.3 16.7 Z M 38.6 14.8 L 39.7 14.8 L 39.7 15.5 C 39.7 15.5 39.76 15.51 39.8 15.5 C 40 15.1 40.4 14.6 41.2 14.6 C 42 14.6 42.5 14.9 42.7 15.5 C 43.1 14.9 43.6 14.6 44.3 14.6 C 45.6 14.6 46 15.5 46 16.7 C 46.04 16.7 46 19.6 46 19.6 L 44.8 19.6 C 44.8 19.6 44.84 16.84 44.8 16.8 C 44.8 16.2 44.7 15.7 43.9 15.7 C 43.2 15.7 42.9 16.3 42.9 17 C 42.92 16.96 42.9 19.6 42.9 19.6 L 41.7 19.6 C 41.7 19.6 41.72 16.7 41.7 16.7 C 41.7 16.1 41.5 15.7 40.9 15.7 C 40.1 15.7 39.8 16.3 39.8 16.9 C 39.8 16.94 39.8 19.6 39.8 19.6 L 38.6 19.6 L 38.6 14.8 Z M 48.3 17.6 C 48.4 18.3 48.9 18.7 49.6 18.7 C 50.2 18.7 50.6 18.4 50.9 18.1 C 50.9 18.1 51.7 18.7 51.7 18.7 C 51.2 19.4 50.5 19.7 49.7 19.7 C 48.3 19.7 47.1 18.7 47.1 17.2 C 47.1 15.6 48.3 14.6 49.7 14.6 C 51.1 14.6 52 15.6 52 17.2 C 51.97 17.25 52 17.6 52 17.6 C 52 17.6 48.31 17.58 48.3 17.6 Z M 50.8 16.7 C 50.8 16 50.3 15.5 49.5 15.5 C 48.8 15.5 48.4 16 48.3 16.7 C 48.3 16.7 50.8 16.7 50.8 16.7 Z M 53.1 14.8 L 54.2 14.8 L 54.2 15.5 C 54.2 15.5 54.25 15.53 54.2 15.5 C 54.5 15.1 54.9 14.6 55.7 14.6 C 57 14.6 57.5 15.5 57.5 16.5 C 57.47 16.53 57.5 19.6 57.5 19.6 L 56.3 19.6 C 56.3 19.6 56.27 17.13 56.3 17.1 C 56.3 16.6 56.2 15.7 55.4 15.7 C 54.6 15.7 54.3 16.3 54.3 16.9 C 54.29 16.94 54.3 19.6 54.3 19.6 L 53.1 19.6 L 53.1 14.8 Z M 58.3 15.8 L 58.3 14.8 L 59.3 14.8 L 59.3 13.4 L 60.5 13.4 L 60.5 14.8 L 61.8 14.8 L 61.8 15.8 L 60.5 15.8 C 60.5 15.8 60.46 17.88 60.5 17.9 C 60.5 18.4 60.6 18.7 61.1 18.7 C 61.3 18.7 61.6 18.6 61.8 18.5 C 61.8 18.5 61.8 19.5 61.8 19.5 C 61.5 19.6 61.1 19.7 60.8 19.7 C 59.6 19.7 59.3 19.1 59.3 18 C 59.26 17.98 59.3 15.8 59.3 15.8 L 58.3 15.8 Z M 70.7 17.9 L 72.3 19.6 L 70.7 19.6 C 70.7 19.6 69.97 18.75 70 18.8 C 69.4 19.4 68.8 19.7 67.9 19.7 C 66.6 19.7 65.5 19 65.5 17.7 C 65.5 16.7 66.2 16 67 15.7 C 66.6 15.2 66.2 14.7 66.2 14 C 66.2 12.9 67.2 12.3 68.2 12.3 C 69.3 12.3 70.2 12.8 70.2 14 C 70.2 14.8 69.5 15.4 68.8 15.8 C 68.82 15.81 70 17 70 17 L 70.7 15.8 L 72.2 15.8 L 70.7 17.9 Z M 67.4 14.1 C 67.4 14.5 67.8 14.8 68.1 15.1 C 68.5 14.9 69 14.6 69 14 C 69 13.7 68.7 13.4 68.2 13.4 C 67.8 13.4 67.4 13.7 67.4 14.1 Z M 67.8 16.4 C 67.3 16.7 66.8 17 66.8 17.6 C 66.8 18.2 67.3 18.7 67.9 18.7 C 68.5 18.7 68.9 18.3 69.2 18 C 69.2 18 67.8 16.4 67.8 16.4 Z M 76.2 12.5 L 77.4 12.5 L 77.4 15.3 L 80.7 15.3 L 80.7 12.5 L 82 12.5 L 82 19.6 L 80.7 19.6 L 80.7 16.4 L 77.4 16.4 L 77.4 19.6 L 76.2 19.6 L 76.2 12.5 Z M 83.6 12.5 C 83.6 12.5 86.03 12.48 86 12.5 C 87.4 12.5 88.7 12.9 88.7 14.5 C 88.7 15.5 88.1 16.3 87 16.4 C 87.03 16.43 88.9 19.6 88.9 19.6 L 87.4 19.6 L 85.7 16.6 L 84.8 16.6 L 84.8 19.6 L 83.6 19.6 L 83.6 12.5 Z M 85.8 15.5 C 86.5 15.5 87.3 15.4 87.3 14.5 C 87.3 13.7 86.6 13.6 85.9 13.6 C 85.92 13.56 84.8 13.6 84.8 13.6 L 84.8 15.5 C 84.8 15.5 85.81 15.48 85.8 15.5 Z " stroke="none" fill="#fff"/>  </g>  <g id="Polygon17053">    <path d="M 18.3 0.5 L 19.5 0.5 L 19.5 6.4 L 22.6 6.4 L 22.6 7.6 L 18.3 7.6 L 18.3 0.5 Z M 24.3 5.6 C 24.4 6.3 24.9 6.7 25.6 6.7 C 26.2 6.7 26.6 6.4 26.9 6.1 C 26.9 6.1 27.8 6.7 27.8 6.7 C 27.2 7.4 26.5 7.7 25.7 7.7 C 24.3 7.7 23.1 6.7 23.1 5.2 C 23.1 3.6 24.3 2.6 25.7 2.6 C 27.1 2.6 28 3.6 28 5.2 C 27.99 5.25 28 5.6 28 5.6 C 28 5.6 24.33 5.58 24.3 5.6 Z M 26.8 4.7 C 26.8 4 26.3 3.5 25.6 3.5 C 24.9 3.5 24.4 4 24.3 4.7 C 24.3 4.7 26.8 4.7 26.8 4.7 Z M 32.1 6.9 C 32.1 6.9 32.08 6.9 32.1 6.9 C 31.7 7.4 31.2 7.7 30.5 7.7 C 29.6 7.7 28.8 7.2 28.8 6.2 C 28.8 4.7 30.6 4.6 31.8 4.6 C 31.81 4.57 32.1 4.6 32.1 4.6 C 32.1 4.6 32.11 4.44 32.1 4.4 C 32.1 3.8 31.6 3.5 31 3.5 C 30.5 3.5 30 3.7 29.7 4 C 29.7 4 29.1 3.4 29.1 3.4 C 29.6 2.9 30.4 2.6 31.1 2.6 C 33.2 2.6 33.2 4.1 33.2 4.8 C 33.19 4.8 33.2 7.6 33.2 7.6 L 32.1 7.6 L 32.1 6.9 Z M 32 5.4 C 32 5.4 31.79 5.41 31.8 5.4 C 31.1 5.4 30 5.5 30 6.2 C 30 6.6 30.4 6.8 30.8 6.8 C 31.6 6.8 32 6.4 32 5.7 C 32.04 5.68 32 5.4 32 5.4 Z M 38.3 6.8 C 38.3 6.8 38.26 6.84 38.3 6.8 C 37.9 7.4 37.3 7.7 36.6 7.7 C 35.1 7.7 34.2 6.6 34.2 5.2 C 34.2 3.7 35.2 2.6 36.6 2.6 C 37.5 2.6 37.9 3.1 38.2 3.4 C 38.19 3.37 38.2 3.4 38.2 3.4 L 38.2 0 L 39.4 0 L 39.4 7.6 L 38.3 7.6 L 38.3 6.8 Z M 36.8 6.6 C 37.7 6.6 38.3 5.9 38.3 5.2 C 38.3 4.4 37.7 3.7 36.8 3.7 C 36 3.7 35.4 4.4 35.4 5.2 C 35.4 5.9 36 6.6 36.8 6.6 Z M 41.7 5.6 C 41.8 6.3 42.4 6.7 43 6.7 C 43.6 6.7 44 6.4 44.3 6.1 C 44.3 6.1 45.2 6.7 45.2 6.7 C 44.6 7.4 43.9 7.7 43.1 7.7 C 41.7 7.7 40.5 6.7 40.5 5.2 C 40.5 3.6 41.7 2.6 43.1 2.6 C 44.5 2.6 45.4 3.6 45.4 5.2 C 45.4 5.25 45.4 5.6 45.4 5.6 C 45.4 5.6 41.74 5.58 41.7 5.6 Z M 44.2 4.7 C 44.2 4 43.7 3.5 43 3.5 C 42.3 3.5 41.8 4 41.7 4.7 C 41.7 4.7 44.2 4.7 44.2 4.7 Z M 46.5 2.8 L 47.7 2.8 L 47.7 3.5 C 47.7 3.5 47.74 3.52 47.7 3.5 C 48 3 48.5 2.6 49.2 2.6 C 49.3 2.6 49.4 2.7 49.6 2.7 C 49.6 2.7 49.6 3.9 49.6 3.9 C 49.4 3.8 49.2 3.8 49 3.8 C 47.9 3.8 47.7 4.7 47.7 5 C 47.72 4.99 47.7 7.6 47.7 7.6 L 46.5 7.6 L 46.5 2.8 Z M 53 4.1 C 52.7 3.8 52.4 3.6 52 3.6 C 51.7 3.6 51.3 3.8 51.3 4.1 C 51.3 5 53.9 4.3 53.9 6.1 C 53.9 7.3 52.8 7.7 51.8 7.7 C 51.1 7.7 50.5 7.5 50 6.9 C 50 6.9 50.8 6.2 50.8 6.2 C 51.1 6.5 51.4 6.8 51.9 6.8 C 52.3 6.8 52.7 6.6 52.7 6.2 C 52.7 5.2 50.1 6 50.1 4.2 C 50.1 3.1 51.1 2.6 52.1 2.6 C 52.7 2.6 53.4 2.8 53.8 3.4 C 53.8 3.4 53 4.1 53 4.1 Z M 56 3.4 C 56 3.4 56.07 3.43 56.1 3.4 C 56.3 3 56.7 2.6 57.5 2.6 C 58.8 2.6 59.2 3.5 59.2 4.5 C 59.23 4.53 59.2 7.6 59.2 7.6 L 58 7.6 C 58 7.6 58.03 5.13 58 5.1 C 58 4.6 58 3.7 57.1 3.7 C 56.4 3.7 56 4.3 56 4.9 C 56.05 4.94 56 7.6 56 7.6 L 54.8 7.6 L 54.8 0 L 56 0 L 56 3.4 Z M 60.6 2.8 L 61.8 2.8 L 61.8 7.6 L 60.6 7.6 L 60.6 2.8 Z M 61.2 0.4 C 61.6 0.4 62 0.7 62 1.1 C 62 1.5 61.6 1.8 61.2 1.8 C 60.8 1.8 60.4 1.5 60.4 1.1 C 60.4 0.8 60.8 0.4 61.2 0.4 Z M 63.2 2.8 L 64.3 2.8 L 64.3 3.5 C 64.3 3.5 64.35 3.48 64.3 3.5 C 64.7 2.9 65.3 2.6 66 2.6 C 67.5 2.6 68.4 3.7 68.4 5.2 C 68.4 6.6 67.4 7.7 66 7.7 C 65.1 7.7 64.7 7.3 64.4 7 C 64.42 6.95 64.4 7 64.4 7 L 64.4 9.8 L 63.2 9.8 L 63.2 2.8 Z M 65.8 3.7 C 64.9 3.7 64.3 4.4 64.3 5.2 C 64.3 5.9 64.9 6.6 65.8 6.6 C 66.6 6.6 67.2 5.9 67.2 5.2 C 67.2 4.4 66.6 3.7 65.8 3.7 Z M 69.9 6.2 L 71.1 6.2 L 70.3 8.8 L 69.2 8.8 L 69.9 6.2 Z " stroke="none" fill="#fff"/>  </g></svg>