<?xml version="1.0" standalone="no"?><!DOCTYPE svg PUBLIC "-//W3C//DTD SVG 1.1//EN" "http://www.w3.org/Graphics/SVG/1.1/DTD/svg11.dtd"><svg xmlns="http://www.w3.org/2000/svg" version="1.1" width="127px" height="16.4px" viewBox="0 -3 127 16.4" style="top:-3px">  <desc>ikasbia@dswlearnining.co.uk</desc>  <defs/>  <g id="Polygon18283">    <path d="M 1.5 7.6 L 0.9 7.6 L 0.9 2.9 L 1.5 2.9 L 1.5 7.6 Z M 1.2 1.6 C 1 1.6 0.7 1.4 0.7 1.1 C 0.7 0.8 1 0.6 1.2 0.6 C 1.4 0.6 1.7 0.8 1.7 1.1 C 1.7 1.4 1.4 1.6 1.2 1.6 Z M 3.8 5 L 6 2.9 L 7 2.9 L 4.6 5 L 7.2 7.6 L 6.2 7.6 L 3.8 5.1 L 3.8 7.6 L 3.1 7.6 L 3.1 0 L 3.8 0 L 3.8 5 Z M 10.9 4.7 C 10.9 4.7 10.94 4.57 10.9 4.6 C 10.9 3.8 10.6 3.4 9.7 3.4 C 9.2 3.4 8.7 3.5 8.3 3.9 C 8.3 3.9 7.9 3.4 7.9 3.4 C 8.3 3 9 2.8 9.9 2.8 C 10.8 2.8 11.6 3.3 11.6 4.4 C 11.6 4.4 11.6 6.5 11.6 6.5 C 11.6 6.9 11.6 7.3 11.7 7.6 C 11.7 7.6 11 7.6 11 7.6 C 11 7.3 11 7 11 6.8 C 11 6.8 11 6.8 11 6.8 C 10.6 7.4 10.1 7.7 9.3 7.7 C 8.5 7.7 7.7 7.2 7.7 6.3 C 7.7 4.8 9.5 4.7 10.6 4.7 C 10.61 4.69 10.9 4.7 10.9 4.7 Z M 10.6 5.2 C 9.9 5.2 8.4 5.3 8.4 6.2 C 8.4 6.8 9 7.1 9.5 7.1 C 10.5 7.1 10.9 6.4 10.9 5.6 C 10.94 5.57 10.9 5.2 10.9 5.2 C 10.9 5.2 10.6 5.23 10.6 5.2 Z M 15.6 4 C 15.4 3.6 15.1 3.4 14.6 3.4 C 14.1 3.4 13.6 3.6 13.6 4.1 C 13.6 4.5 13.9 4.7 14.5 4.8 C 14.5 4.8 15.2 5 15.2 5 C 15.9 5.1 16.4 5.6 16.4 6.2 C 16.4 7.3 15.5 7.7 14.5 7.7 C 13.8 7.7 13.2 7.4 12.7 6.8 C 12.7 6.8 13.3 6.4 13.3 6.4 C 13.6 6.8 14 7.1 14.5 7.1 C 15.1 7.1 15.6 6.8 15.6 6.3 C 15.6 5.8 15.2 5.7 14.7 5.6 C 14.7 5.6 14.1 5.4 14.1 5.4 C 13.8 5.3 12.9 5.1 12.9 4.2 C 12.9 3.2 13.8 2.8 14.6 2.8 C 15.3 2.8 15.9 3 16.2 3.6 C 16.2 3.6 15.6 4 15.6 4 Z M 17.4 0 L 18 0 L 18 3.7 C 18 3.7 18.07 3.66 18.1 3.7 C 18.5 3 19.3 2.8 19.9 2.8 C 21.4 2.8 22.4 3.8 22.4 5.2 C 22.4 6.6 21.4 7.7 19.9 7.7 C 19.3 7.7 18.5 7.4 18.1 6.8 C 18.07 6.78 18 6.8 18 6.8 L 18 7.6 L 17.4 7.6 L 17.4 0 Z M 19.9 3.4 C 18.8 3.4 18 4.2 18 5.2 C 18 6.3 18.8 7.1 19.9 7.1 C 21 7.1 21.7 6.3 21.7 5.2 C 21.7 4.2 21 3.4 19.9 3.4 Z M 24.3 7.6 L 23.7 7.6 L 23.7 2.9 L 24.3 2.9 L 24.3 7.6 Z M 24 1.6 C 23.7 1.6 23.5 1.4 23.5 1.1 C 23.5 0.8 23.7 0.6 24 0.6 C 24.2 0.6 24.5 0.8 24.5 1.1 C 24.5 1.4 24.2 1.6 24 1.6 Z M 28.9 4.7 C 28.9 4.7 28.9 4.57 28.9 4.6 C 28.9 3.8 28.5 3.4 27.7 3.4 C 27.1 3.4 26.7 3.5 26.3 3.9 C 26.3 3.9 25.9 3.4 25.9 3.4 C 26.3 3 27 2.8 27.8 2.8 C 28.8 2.8 29.6 3.3 29.6 4.4 C 29.6 4.4 29.6 6.5 29.6 6.5 C 29.6 6.9 29.6 7.3 29.6 7.6 C 29.6 7.6 29 7.6 29 7.6 C 29 7.3 28.9 7 28.9 6.8 C 28.9 6.8 28.9 6.8 28.9 6.8 C 28.5 7.4 28 7.7 27.3 7.7 C 26.4 7.7 25.7 7.2 25.7 6.3 C 25.7 4.8 27.4 4.7 28.6 4.7 C 28.57 4.69 28.9 4.7 28.9 4.7 Z M 28.6 5.2 C 27.9 5.2 26.4 5.3 26.4 6.2 C 26.4 6.8 26.9 7.1 27.5 7.1 C 28.4 7.1 28.9 6.4 28.9 5.6 C 28.9 5.57 28.9 5.2 28.9 5.2 C 28.9 5.2 28.56 5.23 28.6 5.2 Z M 34.6 2.5 C 33.6 2.5 32.9 3.7 32.9 4.6 C 32.9 5.2 33.3 5.6 33.8 5.6 C 34.7 5.6 35.4 4.3 35.4 3.5 C 35.4 2.9 35 2.5 34.6 2.5 Z M 36 2.1 L 36.5 2.1 C 36.5 2.1 35.69 4.88 35.7 4.9 C 35.6 5.1 35.6 5.2 35.6 5.4 C 35.6 5.5 35.7 5.6 35.8 5.6 C 36.5 5.6 37.3 4.5 37.3 3.4 C 37.3 1.9 35.9 0.8 34.5 0.8 C 32.8 0.8 31.4 2.4 31.4 4 C 31.4 5.7 32.8 7.2 34.5 7.2 C 35.5 7.2 36.5 6.8 37.1 6 C 37.1 6 37.7 6 37.7 6 C 37.1 7.1 35.8 7.7 34.5 7.7 C 32.5 7.7 30.8 6.1 30.8 4 C 30.8 1.9 32.5 0.3 34.5 0.3 C 36.4 0.3 37.9 1.6 37.9 3.4 C 37.9 5.1 36.5 6.2 35.6 6.2 C 35.2 6.2 35 6 34.9 5.6 C 34.9 5.6 34.9 5.6 34.9 5.6 C 34.6 5.9 34.3 6.2 33.7 6.2 C 32.8 6.2 32.3 5.6 32.3 4.7 C 32.3 3.3 33.2 1.9 34.6 1.9 C 35.1 1.9 35.5 2.1 35.7 2.7 C 35.73 2.69 35.7 2.7 35.7 2.7 L 36 2.1 Z M 43.8 7.6 L 43.1 7.6 L 43.1 6.8 C 43.1 6.8 43.08 6.78 43.1 6.8 C 42.6 7.4 41.9 7.7 41.3 7.7 C 39.8 7.7 38.8 6.6 38.8 5.2 C 38.8 3.8 39.8 2.8 41.3 2.8 C 41.9 2.8 42.6 3 43.1 3.7 C 43.08 3.66 43.1 3.7 43.1 3.7 L 43.1 0 L 43.8 0 L 43.8 7.6 Z M 41.3 7.1 C 42.3 7.1 43.1 6.3 43.1 5.2 C 43.1 4.2 42.3 3.4 41.3 3.4 C 40.2 3.4 39.5 4.2 39.5 5.2 C 39.5 6.3 40.2 7.1 41.3 7.1 Z M 47.7 4 C 47.5 3.6 47.1 3.4 46.7 3.4 C 46.2 3.4 45.7 3.6 45.7 4.1 C 45.7 4.5 46 4.7 46.6 4.8 C 46.6 4.8 47.3 5 47.3 5 C 47.9 5.1 48.4 5.6 48.4 6.2 C 48.4 7.3 47.5 7.7 46.6 7.7 C 45.9 7.7 45.2 7.4 44.8 6.8 C 44.8 6.8 45.4 6.4 45.4 6.4 C 45.6 6.8 46.1 7.1 46.6 7.1 C 47.1 7.1 47.7 6.8 47.7 6.3 C 47.7 5.8 47.3 5.7 46.8 5.6 C 46.8 5.6 46.2 5.4 46.2 5.4 C 45.9 5.3 45 5.1 45 4.2 C 45 3.2 45.8 2.8 46.7 2.8 C 47.4 2.8 48 3 48.3 3.6 C 48.3 3.6 47.7 4 47.7 4 Z M 49.7 2.9 L 50.7 6.7 L 50.8 6.7 L 52 2.9 L 52.7 2.9 L 53.9 6.7 L 54 6.7 L 55 2.9 L 55.8 2.9 L 54.3 7.6 L 53.6 7.6 L 52.4 3.7 L 52.3 3.7 L 51.1 7.6 L 50.4 7.6 L 48.9 2.9 L 49.7 2.9 Z M 57.5 7.6 L 56.8 7.6 L 56.8 0 L 57.5 0 L 57.5 7.6 Z M 59.5 5.4 C 59.6 6.3 60.3 7.1 61.3 7.1 C 62 7.1 62.5 6.7 62.8 6.3 C 62.8 6.3 63.3 6.7 63.3 6.7 C 62.7 7.4 62 7.7 61.3 7.7 C 59.9 7.7 58.8 6.6 58.8 5.2 C 58.8 3.8 59.9 2.8 61.2 2.8 C 62.6 2.8 63.4 3.8 63.4 5.1 C 63.44 5.1 63.4 5.4 63.4 5.4 C 63.4 5.4 59.54 5.4 59.5 5.4 Z M 62.7 4.9 C 62.7 4 62.1 3.4 61.2 3.4 C 60.3 3.4 59.6 4.1 59.6 4.9 C 59.6 4.9 62.7 4.9 62.7 4.9 Z M 67.6 4.7 C 67.6 4.7 67.64 4.57 67.6 4.6 C 67.6 3.8 67.2 3.4 66.4 3.4 C 65.9 3.4 65.4 3.5 65 3.9 C 65 3.9 64.6 3.4 64.6 3.4 C 65 3 65.7 2.8 66.6 2.8 C 67.5 2.8 68.3 3.3 68.3 4.4 C 68.3 4.4 68.3 6.5 68.3 6.5 C 68.3 6.9 68.3 7.3 68.4 7.6 C 68.4 7.6 67.7 7.6 67.7 7.6 C 67.7 7.3 67.7 7 67.7 6.8 C 67.7 6.8 67.7 6.8 67.7 6.8 C 67.3 7.4 66.8 7.7 66 7.7 C 65.2 7.7 64.4 7.2 64.4 6.3 C 64.4 4.8 66.2 4.7 67.3 4.7 C 67.31 4.69 67.6 4.7 67.6 4.7 Z M 67.3 5.2 C 66.6 5.2 65.1 5.3 65.1 6.2 C 65.1 6.8 65.7 7.1 66.2 7.1 C 67.2 7.1 67.6 6.4 67.6 5.6 C 67.64 5.57 67.6 5.2 67.6 5.2 C 67.6 5.2 67.3 5.23 67.3 5.2 Z M 69.9 4.3 C 69.9 3.9 69.9 3.6 69.9 2.9 C 69.86 2.88 70.5 2.9 70.5 2.9 L 70.5 3.7 C 70.5 3.7 70.53 3.75 70.5 3.7 C 70.7 3.2 71.2 2.8 72 2.8 C 72.2 2.8 72.4 2.8 72.5 2.8 C 72.5 2.8 72.4 3.5 72.4 3.5 C 72.3 3.4 72.2 3.4 72 3.4 C 71 3.4 70.6 4.3 70.6 4.9 C 70.56 4.92 70.6 7.6 70.6 7.6 L 69.9 7.6 C 69.9 7.6 69.9 4.34 69.9 4.3 Z M 74 2.9 C 74 3.1 74 3.4 74 3.6 C 74 3.6 74 3.6 74 3.6 C 74.3 3.1 75 2.8 75.6 2.8 C 76.8 2.8 77.3 3.4 77.3 4.6 C 77.34 4.59 77.3 7.6 77.3 7.6 L 76.7 7.6 C 76.7 7.6 76.68 4.97 76.7 5 C 76.7 3.9 76.4 3.4 75.4 3.4 C 75.3 3.4 74 3.4 74 5.2 C 73.99 5.16 74 7.6 74 7.6 L 73.3 7.6 C 73.3 7.6 73.33 3.91 73.3 3.9 C 73.3 3.7 73.3 3.2 73.3 2.9 C 73.3 2.9 74 2.9 74 2.9 Z M 79.7 7.6 L 79 7.6 L 79 2.9 L 79.7 2.9 L 79.7 7.6 Z M 79.4 1.6 C 79.1 1.6 78.9 1.4 78.9 1.1 C 78.9 0.8 79.1 0.6 79.4 0.6 C 79.6 0.6 79.8 0.8 79.8 1.1 C 79.8 1.4 79.6 1.6 79.4 1.6 Z M 81.9 2.9 C 81.9 3.1 81.9 3.4 81.9 3.6 C 81.9 3.6 82 3.6 82 3.6 C 82.3 3.1 82.9 2.8 83.5 2.8 C 84.7 2.8 85.3 3.4 85.3 4.6 C 85.3 4.59 85.3 7.6 85.3 7.6 L 84.6 7.6 C 84.6 7.6 84.64 4.97 84.6 5 C 84.6 3.9 84.3 3.4 83.4 3.4 C 83.2 3.4 81.9 3.4 81.9 5.2 C 81.95 5.16 81.9 7.6 81.9 7.6 L 81.3 7.6 C 81.3 7.6 81.29 3.91 81.3 3.9 C 81.3 3.7 81.3 3.2 81.2 2.9 C 81.2 2.9 81.9 2.9 81.9 2.9 Z M 87.7 7.6 L 87 7.6 L 87 2.9 L 87.7 2.9 L 87.7 7.6 Z M 87.3 1.6 C 87.1 1.6 86.8 1.4 86.8 1.1 C 86.8 0.8 87.1 0.6 87.3 0.6 C 87.6 0.6 87.8 0.8 87.8 1.1 C 87.8 1.4 87.6 1.6 87.3 1.6 Z M 89.9 2.9 C 89.9 3.1 89.9 3.4 89.9 3.6 C 89.9 3.6 89.9 3.6 89.9 3.6 C 90.2 3.1 90.9 2.8 91.5 2.8 C 92.7 2.8 93.3 3.4 93.3 4.6 C 93.26 4.59 93.3 7.6 93.3 7.6 L 92.6 7.6 C 92.6 7.6 92.6 4.97 92.6 5 C 92.6 3.9 92.3 3.4 91.3 3.4 C 91.2 3.4 89.9 3.4 89.9 5.2 C 89.91 5.16 89.9 7.6 89.9 7.6 L 89.2 7.6 C 89.2 7.6 89.25 3.91 89.2 3.9 C 89.2 3.7 89.2 3.2 89.2 2.9 C 89.2 2.9 89.9 2.9 89.9 2.9 Z M 95.2 8.5 C 95.6 9 96.2 9.4 97 9.4 C 98.3 9.4 98.8 8.5 98.8 7.5 C 98.78 7.52 98.8 6.7 98.8 6.7 C 98.8 6.7 98.76 6.68 98.8 6.7 C 98.3 7.3 97.7 7.6 97 7.6 C 95.7 7.6 94.6 6.6 94.6 5.2 C 94.6 3.8 95.6 2.8 96.9 2.8 C 97.5 2.8 98.2 2.9 98.8 3.7 C 98.76 3.66 98.8 3.7 98.8 3.7 L 98.8 2.9 L 99.4 2.9 C 99.4 2.9 99.44 7.52 99.4 7.5 C 99.4 8.5 99 10 96.9 10 C 96 10 95.3 9.7 94.7 9 C 94.7 9 95.2 8.5 95.2 8.5 Z M 97 7 C 98 7 98.8 6.2 98.8 5.2 C 98.8 4.2 98.1 3.4 97 3.4 C 96 3.4 95.3 4.2 95.3 5.2 C 95.3 6.1 96 7 97 7 Z M 101.6 7.6 C 101.3 7.6 101 7.4 101 7.1 C 101 6.8 101.3 6.5 101.6 6.5 C 101.9 6.5 102.1 6.8 102.1 7.1 C 102.1 7.4 101.9 7.6 101.6 7.6 Z M 107.1 4 C 106.9 3.6 106.5 3.4 105.9 3.4 C 104.8 3.3 104.2 4.1 104.2 5.2 C 104.2 6.3 104.8 7.1 105.9 7.1 C 106.5 7.1 106.9 6.8 107.1 6.5 C 107.1 6.5 107.6 6.9 107.6 6.9 C 107.2 7.4 106.6 7.7 105.9 7.7 C 104.4 7.7 103.5 6.6 103.5 5.2 C 103.5 3.8 104.4 2.7 105.9 2.8 C 106.6 2.8 107.2 3 107.6 3.6 C 107.6 3.6 107.1 4 107.1 4 Z M 110.8 7.7 C 109.3 7.7 108.3 6.6 108.3 5.2 C 108.3 3.8 109.3 2.8 110.8 2.8 C 112.2 2.8 113.2 3.8 113.2 5.2 C 113.2 6.6 112.2 7.7 110.8 7.7 Z M 110.8 3.4 C 109.7 3.4 109 4.2 109 5.2 C 109 6.3 109.7 7.1 110.8 7.1 C 111.8 7.1 112.5 6.3 112.5 5.2 C 112.5 4.2 111.8 3.4 110.8 3.4 Z M 115.1 7.6 C 114.8 7.6 114.6 7.4 114.6 7.1 C 114.6 6.8 114.8 6.5 115.1 6.5 C 115.4 6.5 115.7 6.8 115.7 7.1 C 115.7 7.4 115.4 7.6 115.1 7.6 Z M 120.6 7.6 C 120.6 7.3 120.6 7.1 120.6 6.8 C 120.6 6.8 120.6 6.8 120.6 6.8 C 120.3 7.3 119.6 7.7 119 7.7 C 117.8 7.7 117.2 7 117.2 5.9 C 117.23 5.85 117.2 2.9 117.2 2.9 L 117.9 2.9 C 117.9 2.9 117.89 5.47 117.9 5.5 C 117.9 6.5 118.2 7.1 119.2 7.1 C 119.3 7.1 120.6 7 120.6 5.3 C 120.58 5.28 120.6 2.9 120.6 2.9 L 121.2 2.9 C 121.2 2.9 121.24 6.53 121.2 6.5 C 121.2 6.8 121.3 7.2 121.3 7.6 C 121.3 7.6 120.6 7.6 120.6 7.6 Z M 123.4 5 L 125.7 2.9 L 126.6 2.9 L 124.3 5 L 126.9 7.6 L 125.9 7.6 L 123.4 5.1 L 123.4 7.6 L 122.8 7.6 L 122.8 0 L 123.4 0 L 123.4 5 Z " stroke="none" fill="#f28620"/>  </g></svg>