<?xml version="1.0" standalone="no"?><!DOCTYPE svg PUBLIC "-//W3C//DTD SVG 1.1//EN" "http://www.w3.org/Graphics/SVG/1.1/DTD/svg11.dtd"><svg xmlns="http://www.w3.org/2000/svg" version="1.1" width="104px" height="28.4px" viewBox="0 -3 104 28.4" style="top:-3px">  <desc>Coaching &amp; Mentoring</desc>  <defs/>  <g id="Polygon17109">    <path d="M 27.8 17.9 L 29.3 19.6 L 27.7 19.6 C 27.7 19.6 26.99 18.75 27 18.8 C 26.4 19.4 25.8 19.7 24.9 19.7 C 23.6 19.7 22.5 19 22.5 17.7 C 22.5 16.7 23.2 16 24 15.7 C 23.6 15.2 23.2 14.7 23.2 14 C 23.2 12.9 24.2 12.3 25.2 12.3 C 26.3 12.3 27.2 12.8 27.2 14 C 27.2 14.8 26.5 15.4 25.8 15.8 C 25.84 15.81 27 17 27 17 L 27.8 15.8 L 29.2 15.8 L 27.8 17.9 Z M 24.4 14.1 C 24.4 14.5 24.8 14.8 25.1 15.1 C 25.5 14.9 26 14.6 26 14 C 26 13.7 25.7 13.4 25.3 13.4 C 24.8 13.4 24.4 13.7 24.4 14.1 Z M 24.8 16.4 C 24.3 16.7 23.8 17 23.8 17.6 C 23.8 18.2 24.3 18.7 24.9 18.7 C 25.5 18.7 25.9 18.3 26.2 18 C 26.2 18 24.8 16.4 24.8 16.4 Z M 33.2 12.5 L 35.1 12.5 L 37 17.4 L 38.9 12.5 L 40.8 12.5 L 40.8 19.6 L 39.6 19.6 L 39.6 13.7 L 39.6 13.7 L 37.5 19.6 L 36.6 19.6 L 34.4 13.7 L 34.4 13.7 L 34.4 19.6 L 33.2 19.6 L 33.2 12.5 Z M 43.3 17.6 C 43.4 18.3 43.9 18.7 44.6 18.7 C 45.2 18.7 45.6 18.4 45.9 18.1 C 45.9 18.1 46.7 18.7 46.7 18.7 C 46.2 19.4 45.5 19.7 44.7 19.7 C 43.2 19.7 42.1 18.7 42.1 17.2 C 42.1 15.6 43.2 14.6 44.7 14.6 C 46 14.6 46.9 15.6 46.9 17.2 C 46.95 17.25 46.9 17.6 46.9 17.6 C 46.9 17.6 43.29 17.58 43.3 17.6 Z M 45.7 16.7 C 45.7 16 45.3 15.5 44.5 15.5 C 43.8 15.5 43.4 16 43.3 16.7 C 43.3 16.7 45.7 16.7 45.7 16.7 Z M 48.1 14.8 L 49.2 14.8 L 49.2 15.5 C 49.2 15.5 49.23 15.53 49.2 15.5 C 49.4 15.1 49.9 14.6 50.7 14.6 C 52 14.6 52.4 15.5 52.4 16.5 C 52.45 16.53 52.4 19.6 52.4 19.6 L 51.2 19.6 C 51.2 19.6 51.25 17.13 51.2 17.1 C 51.2 16.6 51.2 15.7 50.4 15.7 C 49.6 15.7 49.3 16.3 49.3 16.9 C 49.27 16.94 49.3 19.6 49.3 19.6 L 48.1 19.6 L 48.1 14.8 Z M 53.2 15.8 L 53.2 14.8 L 54.2 14.8 L 54.2 13.4 L 55.4 13.4 L 55.4 14.8 L 56.8 14.8 L 56.8 15.8 L 55.4 15.8 C 55.4 15.8 55.44 17.88 55.4 17.9 C 55.4 18.4 55.6 18.7 56.1 18.7 C 56.3 18.7 56.6 18.6 56.8 18.5 C 56.8 18.5 56.8 19.5 56.8 19.5 C 56.5 19.6 56.1 19.7 55.8 19.7 C 54.5 19.7 54.2 19.1 54.2 18 C 54.24 17.98 54.2 15.8 54.2 15.8 L 53.2 15.8 Z M 60.1 14.6 C 61.5 14.6 62.7 15.6 62.7 17.2 C 62.7 18.7 61.5 19.7 60.1 19.7 C 58.6 19.7 57.5 18.7 57.5 17.2 C 57.5 15.6 58.6 14.6 60.1 14.6 Z M 60.1 18.6 C 60.9 18.6 61.5 17.9 61.5 17.2 C 61.5 16.4 60.9 15.7 60.1 15.7 C 59.2 15.7 58.7 16.4 58.7 17.2 C 58.7 17.9 59.2 18.6 60.1 18.6 Z M 63.8 14.8 L 65 14.8 L 65 15.5 C 65 15.5 65.02 15.52 65 15.5 C 65.3 15 65.8 14.6 66.4 14.6 C 66.6 14.6 66.7 14.7 66.9 14.7 C 66.9 14.7 66.9 15.9 66.9 15.9 C 66.7 15.8 66.5 15.8 66.3 15.8 C 65.2 15.8 65 16.7 65 17 C 65 16.99 65 19.6 65 19.6 L 63.8 19.6 L 63.8 14.8 Z M 67.7 14.8 L 68.9 14.8 L 68.9 19.6 L 67.7 19.6 L 67.7 14.8 Z M 68.3 12.4 C 68.7 12.4 69.1 12.7 69.1 13.1 C 69.1 13.5 68.7 13.8 68.3 13.8 C 67.9 13.8 67.5 13.5 67.5 13.1 C 67.5 12.8 67.9 12.4 68.3 12.4 Z M 70.3 14.8 L 71.4 14.8 L 71.4 15.5 C 71.4 15.5 71.45 15.53 71.4 15.5 C 71.7 15.1 72.1 14.6 72.9 14.6 C 74.2 14.6 74.7 15.5 74.7 16.5 C 74.67 16.53 74.7 19.6 74.7 19.6 L 73.5 19.6 C 73.5 19.6 73.47 17.13 73.5 17.1 C 73.5 16.6 73.4 15.7 72.6 15.7 C 71.8 15.7 71.5 16.3 71.5 16.9 C 71.49 16.94 71.5 19.6 71.5 19.6 L 70.3 19.6 L 70.3 14.8 Z M 81 14.8 C 81 14.8 80.97 19.13 81 19.1 C 81 20.9 80.1 22 78.3 22 C 77.4 22 76.6 21.8 75.9 21.2 C 75.9 21.2 76.6 20.2 76.6 20.2 C 77.1 20.6 77.6 20.9 78.2 20.9 C 79.4 20.9 79.8 20.2 79.8 19.3 C 79.77 19.27 79.8 18.9 79.8 18.9 C 79.8 18.9 79.75 18.92 79.7 18.9 C 79.4 19.4 78.8 19.6 78.2 19.6 C 76.7 19.6 75.8 18.5 75.8 17.2 C 75.8 15.7 76.7 14.6 78.2 14.6 C 78.8 14.6 79.5 14.9 79.8 15.5 C 79.81 15.48 79.8 15.5 79.8 15.5 L 79.8 14.8 L 81 14.8 Z M 77 17.1 C 77 17.9 77.6 18.5 78.4 18.5 C 79.3 18.5 79.8 17.9 79.8 17.1 C 79.8 16.3 79.3 15.7 78.4 15.7 C 77.6 15.7 77 16.3 77 17.1 Z " stroke="none" fill="#fff"/>  </g>  <g id="Polygon17108">    <path d="M 35.7 2.1 C 35.2 1.6 34.7 1.4 34.2 1.4 C 32.8 1.4 31.8 2.6 31.8 4 C 31.8 5.5 32.8 6.6 34.2 6.6 C 34.8 6.6 35.4 6.3 35.8 5.7 C 35.8 5.7 36.9 6.5 36.9 6.5 C 36.2 7.4 35.3 7.7 34.2 7.7 C 32 7.7 30.5 6.3 30.5 4 C 30.5 1.8 32 0.3 34.2 0.3 C 35.2 0.3 36 0.6 36.7 1.4 C 36.7 1.4 35.7 2.1 35.7 2.1 Z M 40 2.6 C 41.4 2.6 42.6 3.6 42.6 5.2 C 42.6 6.7 41.4 7.7 40 7.7 C 38.5 7.7 37.4 6.7 37.4 5.2 C 37.4 3.6 38.5 2.6 40 2.6 Z M 40 6.6 C 40.9 6.6 41.4 5.9 41.4 5.2 C 41.4 4.4 40.9 3.7 40 3.7 C 39.1 3.7 38.6 4.4 38.6 5.2 C 38.6 5.9 39.1 6.6 40 6.6 Z M 46.7 6.9 C 46.7 6.9 46.67 6.9 46.7 6.9 C 46.3 7.4 45.8 7.7 45.1 7.7 C 44.2 7.7 43.4 7.2 43.4 6.2 C 43.4 4.7 45.2 4.6 46.4 4.6 C 46.4 4.57 46.7 4.6 46.7 4.6 C 46.7 4.6 46.7 4.44 46.7 4.4 C 46.7 3.8 46.2 3.5 45.6 3.5 C 45.1 3.5 44.6 3.7 44.3 4 C 44.3 4 43.7 3.4 43.7 3.4 C 44.2 2.9 45 2.6 45.7 2.6 C 47.8 2.6 47.8 4.1 47.8 4.8 C 47.78 4.8 47.8 7.6 47.8 7.6 L 46.7 7.6 L 46.7 6.9 Z M 46.6 5.4 C 46.6 5.4 46.38 5.41 46.4 5.4 C 45.7 5.4 44.6 5.5 44.6 6.2 C 44.6 6.6 45 6.8 45.4 6.8 C 46.2 6.8 46.6 6.4 46.6 5.7 C 46.63 5.68 46.6 5.4 46.6 5.4 Z M 52.4 4.2 C 52.1 3.9 51.8 3.7 51.4 3.7 C 50.6 3.7 50 4.4 50 5.2 C 50 5.9 50.6 6.6 51.4 6.6 C 51.8 6.6 52.2 6.4 52.4 6.2 C 52.4 6.2 53.2 7 53.2 7 C 52.7 7.5 51.9 7.7 51.4 7.7 C 50 7.7 48.8 6.7 48.8 5.2 C 48.8 3.6 50 2.6 51.4 2.6 C 52.1 2.6 52.7 2.9 53.2 3.4 C 53.2 3.4 52.4 4.2 52.4 4.2 Z M 55.1 3.4 C 55.1 3.4 55.11 3.43 55.1 3.4 C 55.3 3 55.8 2.6 56.5 2.6 C 57.8 2.6 58.3 3.5 58.3 4.5 C 58.27 4.53 58.3 7.6 58.3 7.6 L 57.1 7.6 C 57.1 7.6 57.07 5.13 57.1 5.1 C 57.1 4.6 57 3.7 56.2 3.7 C 55.4 3.7 55.1 4.3 55.1 4.9 C 55.09 4.94 55.1 7.6 55.1 7.6 L 53.9 7.6 L 53.9 0 L 55.1 0 L 55.1 3.4 Z M 59.7 2.8 L 60.9 2.8 L 60.9 7.6 L 59.7 7.6 L 59.7 2.8 Z M 60.2 0.4 C 60.7 0.4 61 0.7 61 1.1 C 61 1.5 60.7 1.8 60.2 1.8 C 59.8 1.8 59.5 1.5 59.5 1.1 C 59.5 0.8 59.8 0.4 60.2 0.4 Z M 62.2 2.8 L 63.4 2.8 L 63.4 3.5 C 63.4 3.5 63.39 3.53 63.4 3.5 C 63.6 3.1 64.1 2.6 64.9 2.6 C 66.2 2.6 66.6 3.5 66.6 4.5 C 66.61 4.53 66.6 7.6 66.6 7.6 L 65.4 7.6 C 65.4 7.6 65.41 5.13 65.4 5.1 C 65.4 4.6 65.4 3.7 64.5 3.7 C 63.7 3.7 63.4 4.3 63.4 4.9 C 63.43 4.94 63.4 7.6 63.4 7.6 L 62.2 7.6 L 62.2 2.8 Z M 72.9 2.8 C 72.9 2.8 72.91 7.13 72.9 7.1 C 72.9 8.9 72.1 10 70.2 10 C 69.3 10 68.5 9.8 67.8 9.2 C 67.8 9.2 68.5 8.2 68.5 8.2 C 69 8.6 69.5 8.9 70.2 8.9 C 71.4 8.9 71.7 8.2 71.7 7.3 C 71.71 7.27 71.7 6.9 71.7 6.9 C 71.7 6.9 71.69 6.92 71.7 6.9 C 71.3 7.4 70.7 7.6 70.1 7.6 C 68.7 7.6 67.7 6.5 67.7 5.2 C 67.7 3.7 68.6 2.6 70.1 2.6 C 70.8 2.6 71.4 2.9 71.8 3.5 C 71.75 3.48 71.8 3.5 71.8 3.5 L 71.8 2.8 L 72.9 2.8 Z M 68.9 5.1 C 68.9 5.9 69.5 6.5 70.3 6.5 C 71.2 6.5 71.8 5.9 71.8 5.1 C 71.8 4.3 71.2 3.7 70.4 3.7 C 69.5 3.7 68.9 4.3 68.9 5.1 Z " stroke="none" fill="#fff"/>  </g></svg>