<?xml version="1.0" standalone="no"?><!DOCTYPE svg PUBLIC "-//W3C//DTD SVG 1.1//EN" "http://www.w3.org/Graphics/SVG/1.1/DTD/svg11.dtd"><svg xmlns="http://www.w3.org/2000/svg" version="1.1" width="84px" height="28.4px" viewBox="0 -3 84 28.4" style="top:-3px">  <desc>Compliance / Risk Specialists</desc>  <defs/>  <g id="Polygon16834">    <path d="M 21.9 14 C 21.7 13.6 21.2 13.4 20.7 13.4 C 20.1 13.4 19.5 13.7 19.5 14.3 C 19.5 15.8 22.9 15 22.9 17.5 C 22.9 19 21.7 19.7 20.3 19.7 C 19.4 19.7 18.6 19.5 18 18.8 C 18 18.8 18.9 17.9 18.9 17.9 C 19.2 18.3 19.8 18.6 20.3 18.6 C 20.9 18.6 21.6 18.3 21.6 17.6 C 21.6 16.1 18.2 17 18.2 14.4 C 18.2 13 19.5 12.3 20.8 12.3 C 21.6 12.3 22.3 12.5 22.9 13 C 22.9 13 21.9 14 21.9 14 Z M 24.1 14.8 L 25.2 14.8 L 25.2 15.5 C 25.2 15.5 25.25 15.48 25.3 15.5 C 25.6 14.9 26.2 14.6 26.9 14.6 C 28.4 14.6 29.3 15.7 29.3 17.2 C 29.3 18.6 28.3 19.7 27 19.7 C 26.1 19.7 25.6 19.3 25.3 19 C 25.32 18.95 25.3 19 25.3 19 L 25.3 21.8 L 24.1 21.8 L 24.1 14.8 Z M 26.7 15.7 C 25.8 15.7 25.3 16.4 25.3 17.2 C 25.3 17.9 25.8 18.6 26.7 18.6 C 27.5 18.6 28.1 17.9 28.1 17.2 C 28.1 16.4 27.5 15.7 26.7 15.7 Z M 31.4 17.6 C 31.4 18.3 32 18.7 32.6 18.7 C 33.2 18.7 33.6 18.4 33.9 18.1 C 33.9 18.1 34.8 18.7 34.8 18.7 C 34.2 19.4 33.5 19.7 32.8 19.7 C 31.3 19.7 30.2 18.7 30.2 17.2 C 30.2 15.6 31.3 14.6 32.8 14.6 C 34.1 14.6 35 15.6 35 17.2 C 35.01 17.25 35 17.6 35 17.6 C 35 17.6 31.35 17.58 31.4 17.6 Z M 33.8 16.7 C 33.8 16 33.3 15.5 32.6 15.5 C 31.9 15.5 31.4 16 31.4 16.7 C 31.4 16.7 33.8 16.7 33.8 16.7 Z M 39.4 16.2 C 39.1 15.9 38.8 15.7 38.5 15.7 C 37.6 15.7 37.1 16.4 37.1 17.2 C 37.1 17.9 37.6 18.6 38.5 18.6 C 38.9 18.6 39.2 18.4 39.4 18.2 C 39.4 18.2 40.2 19 40.2 19 C 39.7 19.5 38.9 19.7 38.5 19.7 C 37.1 19.7 35.9 18.7 35.9 17.2 C 35.9 15.6 37.1 14.6 38.5 14.6 C 39.1 14.6 39.8 14.9 40.2 15.4 C 40.2 15.4 39.4 16.2 39.4 16.2 Z M 41 14.8 L 42.2 14.8 L 42.2 19.6 L 41 19.6 L 41 14.8 Z M 41.6 12.4 C 42 12.4 42.3 12.7 42.3 13.1 C 42.3 13.5 42 13.8 41.6 13.8 C 41.1 13.8 40.8 13.5 40.8 13.1 C 40.8 12.8 41.1 12.4 41.6 12.4 Z M 46.6 18.9 C 46.6 18.9 46.53 18.9 46.5 18.9 C 46.2 19.4 45.6 19.7 45 19.7 C 44.1 19.7 43.2 19.2 43.2 18.2 C 43.2 16.7 45.1 16.6 46.3 16.6 C 46.26 16.57 46.6 16.6 46.6 16.6 C 46.6 16.6 46.56 16.44 46.6 16.4 C 46.6 15.8 46.1 15.5 45.5 15.5 C 45 15.5 44.5 15.7 44.2 16 C 44.2 16 43.5 15.4 43.5 15.4 C 44.1 14.9 44.8 14.6 45.6 14.6 C 47.6 14.6 47.6 16.1 47.6 16.8 C 47.63 16.8 47.6 19.6 47.6 19.6 L 46.6 19.6 L 46.6 18.9 Z M 46.5 17.4 C 46.5 17.4 46.24 17.41 46.2 17.4 C 45.6 17.4 44.4 17.5 44.4 18.2 C 44.4 18.6 44.9 18.8 45.3 18.8 C 46.1 18.8 46.5 18.4 46.5 17.7 C 46.49 17.68 46.5 17.4 46.5 17.4 Z M 48.9 12 L 50.1 12 L 50.1 19.6 L 48.9 19.6 L 48.9 12 Z M 51.5 14.8 L 52.7 14.8 L 52.7 19.6 L 51.5 19.6 L 51.5 14.8 Z M 52.1 12.4 C 52.6 12.4 52.9 12.7 52.9 13.1 C 52.9 13.5 52.6 13.8 52.1 13.8 C 51.7 13.8 51.4 13.5 51.4 13.1 C 51.4 12.8 51.7 12.4 52.1 12.4 Z M 56.7 16.1 C 56.5 15.8 56.2 15.6 55.7 15.6 C 55.4 15.6 55 15.8 55 16.1 C 55 17 57.6 16.3 57.6 18.1 C 57.6 19.3 56.5 19.7 55.6 19.7 C 54.8 19.7 54.2 19.5 53.7 18.9 C 53.7 18.9 54.5 18.2 54.5 18.2 C 54.8 18.5 55.1 18.8 55.6 18.8 C 56 18.8 56.4 18.6 56.4 18.2 C 56.4 17.2 53.8 18 53.8 16.2 C 53.8 15.1 54.8 14.6 55.8 14.6 C 56.4 14.6 57.1 14.8 57.5 15.4 C 57.5 15.4 56.7 16.1 56.7 16.1 Z M 58 15.8 L 58 14.8 L 59 14.8 L 59 13.4 L 60.2 13.4 L 60.2 14.8 L 61.5 14.8 L 61.5 15.8 L 60.2 15.8 C 60.2 15.8 60.19 17.88 60.2 17.9 C 60.2 18.4 60.3 18.7 60.9 18.7 C 61.1 18.7 61.4 18.6 61.5 18.5 C 61.5 18.5 61.5 19.5 61.5 19.5 C 61.3 19.6 60.8 19.7 60.6 19.7 C 59.3 19.7 59 19.1 59 18 C 58.99 17.98 59 15.8 59 15.8 L 58 15.8 Z M 65 16.1 C 64.8 15.8 64.5 15.6 64.1 15.6 C 63.8 15.6 63.4 15.8 63.4 16.1 C 63.4 17 66 16.3 66 18.1 C 66 19.3 64.9 19.7 63.9 19.7 C 63.2 19.7 62.5 19.5 62 18.9 C 62 18.9 62.8 18.2 62.8 18.2 C 63.1 18.5 63.5 18.8 64 18.8 C 64.3 18.8 64.8 18.6 64.8 18.2 C 64.8 17.2 62.2 18 62.2 16.2 C 62.2 15.1 63.1 14.6 64.1 14.6 C 64.7 14.6 65.4 14.8 65.8 15.4 C 65.8 15.4 65 16.1 65 16.1 Z " stroke="none" fill="#000"/>  </g>  <g id="Polygon16833">    <path d="M 5.9 2.1 C 5.4 1.6 4.9 1.4 4.4 1.4 C 3 1.4 2 2.6 2 4 C 2 5.5 3 6.6 4.4 6.6 C 5 6.6 5.6 6.3 6 5.7 C 6 5.7 7.1 6.5 7.1 6.5 C 6.4 7.4 5.5 7.7 4.4 7.7 C 2.2 7.7 0.7 6.3 0.7 4 C 0.7 1.8 2.2 0.3 4.4 0.3 C 5.4 0.3 6.2 0.6 6.9 1.4 C 6.9 1.4 5.9 2.1 5.9 2.1 Z M 10.2 2.6 C 11.6 2.6 12.8 3.6 12.8 5.2 C 12.8 6.7 11.6 7.7 10.2 7.7 C 8.7 7.7 7.6 6.7 7.6 5.2 C 7.6 3.6 8.7 2.6 10.2 2.6 Z M 10.2 6.6 C 11.1 6.6 11.6 5.9 11.6 5.2 C 11.6 4.4 11.1 3.7 10.2 3.7 C 9.3 3.7 8.8 4.4 8.8 5.2 C 8.8 5.9 9.3 6.6 10.2 6.6 Z M 13.9 2.8 L 15 2.8 L 15 3.5 C 15 3.5 15.01 3.51 15 3.5 C 15.2 3.1 15.7 2.6 16.5 2.6 C 17.2 2.6 17.7 2.9 18 3.5 C 18.3 2.9 18.8 2.6 19.6 2.6 C 20.8 2.6 21.3 3.5 21.3 4.7 C 21.29 4.7 21.3 7.6 21.3 7.6 L 20.1 7.6 C 20.1 7.6 20.1 4.84 20.1 4.8 C 20.1 4.2 19.9 3.7 19.2 3.7 C 18.5 3.7 18.2 4.3 18.2 5 C 18.17 4.96 18.2 7.6 18.2 7.6 L 17 7.6 C 17 7.6 16.98 4.7 17 4.7 C 17 4.1 16.7 3.7 16.2 3.7 C 15.4 3.7 15.1 4.3 15.1 4.9 C 15.05 4.94 15.1 7.6 15.1 7.6 L 13.9 7.6 L 13.9 2.8 Z M 22.6 2.8 L 23.7 2.8 L 23.7 3.5 C 23.7 3.5 23.76 3.48 23.8 3.5 C 24.1 2.9 24.7 2.6 25.4 2.6 C 26.9 2.6 27.8 3.7 27.8 5.2 C 27.8 6.6 26.8 7.7 25.5 7.7 C 24.6 7.7 24.1 7.3 23.8 7 C 23.83 6.95 23.8 7 23.8 7 L 23.8 9.8 L 22.6 9.8 L 22.6 2.8 Z M 25.2 3.7 C 24.3 3.7 23.8 4.4 23.8 5.2 C 23.8 5.9 24.3 6.6 25.2 6.6 C 26.1 6.6 26.6 5.9 26.6 5.2 C 26.6 4.4 26.1 3.7 25.2 3.7 Z M 28.9 0 L 30.1 0 L 30.1 7.6 L 28.9 7.6 L 28.9 0 Z M 31.5 2.8 L 32.7 2.8 L 32.7 7.6 L 31.5 7.6 L 31.5 2.8 Z M 32.1 0.4 C 32.6 0.4 32.9 0.7 32.9 1.1 C 32.9 1.5 32.6 1.8 32.1 1.8 C 31.7 1.8 31.4 1.5 31.4 1.1 C 31.4 0.8 31.7 0.4 32.1 0.4 Z M 37.1 6.9 C 37.1 6.9 37.08 6.9 37.1 6.9 C 36.7 7.4 36.2 7.7 35.5 7.7 C 34.6 7.7 33.8 7.2 33.8 6.2 C 33.8 4.7 35.6 4.6 36.8 4.6 C 36.81 4.57 37.1 4.6 37.1 4.6 C 37.1 4.6 37.11 4.44 37.1 4.4 C 37.1 3.8 36.6 3.5 36 3.5 C 35.5 3.5 35 3.7 34.7 4 C 34.7 4 34.1 3.4 34.1 3.4 C 34.6 2.9 35.4 2.6 36.1 2.6 C 38.2 2.6 38.2 4.1 38.2 4.8 C 38.18 4.8 38.2 7.6 38.2 7.6 L 37.1 7.6 L 37.1 6.9 Z M 37 5.4 C 37 5.4 36.79 5.41 36.8 5.4 C 36.1 5.4 35 5.5 35 6.2 C 35 6.6 35.4 6.8 35.8 6.8 C 36.6 6.8 37 6.4 37 5.7 C 37.04 5.68 37 5.4 37 5.4 Z M 39.5 2.8 L 40.6 2.8 L 40.6 3.5 C 40.6 3.5 40.63 3.53 40.6 3.5 C 40.9 3.1 41.3 2.6 42.1 2.6 C 43.4 2.6 43.9 3.5 43.9 4.5 C 43.85 4.53 43.9 7.6 43.9 7.6 L 42.7 7.6 C 42.7 7.6 42.66 5.13 42.7 5.1 C 42.7 4.6 42.6 3.7 41.8 3.7 C 41 3.7 40.7 4.3 40.7 4.9 C 40.67 4.94 40.7 7.6 40.7 7.6 L 39.5 7.6 L 39.5 2.8 Z M 48.5 4.2 C 48.2 3.9 47.9 3.7 47.6 3.7 C 46.7 3.7 46.2 4.4 46.2 5.2 C 46.2 5.9 46.7 6.6 47.6 6.6 C 48 6.6 48.3 6.4 48.5 6.2 C 48.5 6.2 49.3 7 49.3 7 C 48.8 7.5 48 7.7 47.6 7.7 C 46.1 7.7 45 6.7 45 5.2 C 45 3.6 46.1 2.6 47.6 2.6 C 48.2 2.6 48.9 2.9 49.3 3.4 C 49.3 3.4 48.5 4.2 48.5 4.2 Z M 51 5.6 C 51.1 6.3 51.6 6.7 52.3 6.7 C 52.9 6.7 53.3 6.4 53.6 6.1 C 53.6 6.1 54.4 6.7 54.4 6.7 C 53.9 7.4 53.2 7.7 52.4 7.7 C 51 7.7 49.8 6.7 49.8 5.2 C 49.8 3.6 51 2.6 52.4 2.6 C 53.7 2.6 54.7 3.6 54.7 5.2 C 54.65 5.25 54.7 5.6 54.7 5.6 C 54.7 5.6 50.99 5.58 51 5.6 Z M 53.5 4.7 C 53.4 4 53 3.5 52.2 3.5 C 51.5 3.5 51.1 4 51 4.7 C 51 4.7 53.5 4.7 53.5 4.7 Z M 58.8 8 L 58 7.7 L 61.1 0 L 61.9 0.3 L 58.8 8 Z M 65.7 0.5 C 65.7 0.5 68.15 0.48 68.2 0.5 C 69.5 0.5 70.8 0.9 70.8 2.5 C 70.8 3.5 70.2 4.3 69.2 4.4 C 69.15 4.43 71 7.6 71 7.6 L 69.5 7.6 L 67.9 4.6 L 67 4.6 L 67 7.6 L 65.7 7.6 L 65.7 0.5 Z M 67.9 3.5 C 68.6 3.5 69.5 3.4 69.5 2.5 C 69.5 1.7 68.7 1.6 68 1.6 C 68.04 1.56 67 1.6 67 1.6 L 67 3.5 C 67 3.5 67.93 3.48 67.9 3.5 Z M 71.9 2.8 L 73.1 2.8 L 73.1 7.6 L 71.9 7.6 L 71.9 2.8 Z M 72.5 0.4 C 72.9 0.4 73.3 0.7 73.3 1.1 C 73.3 1.5 72.9 1.8 72.5 1.8 C 72.1 1.8 71.7 1.5 71.7 1.1 C 71.7 0.8 72.1 0.4 72.5 0.4 Z M 77 4.1 C 76.8 3.8 76.5 3.6 76.1 3.6 C 75.8 3.6 75.4 3.8 75.4 4.1 C 75.4 5 78 4.3 78 6.1 C 78 7.3 76.9 7.7 75.9 7.7 C 75.2 7.7 74.5 7.5 74.1 6.9 C 74.1 6.9 74.9 6.2 74.9 6.2 C 75.2 6.5 75.5 6.8 76 6.8 C 76.3 6.8 76.8 6.6 76.8 6.2 C 76.8 5.2 74.2 6 74.2 4.2 C 74.2 3.1 75.2 2.6 76.1 2.6 C 76.8 2.6 77.5 2.8 77.8 3.4 C 77.8 3.4 77 4.1 77 4.1 Z M 78.9 0 L 80.1 0 L 80.1 4.8 L 82 2.8 L 83.5 2.8 L 81.5 4.9 L 83.6 7.6 L 82.1 7.6 L 80.1 5.1 L 80.1 5.1 L 80.1 7.6 L 78.9 7.6 L 78.9 0 Z " stroke="none" fill="#000"/>  </g></svg>