<?xml version="1.0" standalone="no"?><!DOCTYPE svg PUBLIC "-//W3C//DTD SVG 1.1//EN" "http://www.w3.org/Graphics/SVG/1.1/DTD/svg11.dtd"><svg xmlns="http://www.w3.org/2000/svg" version="1.1" width="65px" height="28.4px" viewBox="0 -3 65 28.4" style="top:-3px">  <desc>Programme Managers</desc>  <defs/>  <g id="Polygon16779">    <path d="M 10.1 12.5 L 12 12.5 L 13.9 17.4 L 15.8 12.5 L 17.7 12.5 L 17.7 19.6 L 16.5 19.6 L 16.5 13.7 L 16.5 13.7 L 14.3 19.6 L 13.5 19.6 L 11.3 13.7 L 11.3 13.7 L 11.3 19.6 L 10.1 19.6 L 10.1 12.5 Z M 22.2 18.9 C 22.2 18.9 22.18 18.9 22.2 18.9 C 21.8 19.4 21.3 19.7 20.6 19.7 C 19.8 19.7 18.9 19.2 18.9 18.2 C 18.9 16.7 20.7 16.6 21.9 16.6 C 21.91 16.57 22.2 16.6 22.2 16.6 C 22.2 16.6 22.21 16.44 22.2 16.4 C 22.2 15.8 21.8 15.5 21.1 15.5 C 20.6 15.5 20.1 15.7 19.8 16 C 19.8 16 19.2 15.4 19.2 15.4 C 19.7 14.9 20.5 14.6 21.2 14.6 C 23.3 14.6 23.3 16.1 23.3 16.8 C 23.29 16.8 23.3 19.6 23.3 19.6 L 22.2 19.6 L 22.2 18.9 Z M 22.1 17.4 C 22.1 17.4 21.89 17.41 21.9 17.4 C 21.2 17.4 20.1 17.5 20.1 18.2 C 20.1 18.6 20.5 18.8 20.9 18.8 C 21.8 18.8 22.1 18.4 22.1 17.7 C 22.14 17.68 22.1 17.4 22.1 17.4 Z M 24.6 14.8 L 25.7 14.8 L 25.7 15.5 C 25.7 15.5 25.74 15.53 25.7 15.5 C 26 15.1 26.4 14.6 27.2 14.6 C 28.5 14.6 29 15.5 29 16.5 C 28.96 16.53 29 19.6 29 19.6 L 27.8 19.6 C 27.8 19.6 27.76 17.13 27.8 17.1 C 27.8 16.6 27.7 15.7 26.9 15.7 C 26.1 15.7 25.8 16.3 25.8 16.9 C 25.78 16.94 25.8 19.6 25.8 19.6 L 24.6 19.6 L 24.6 14.8 Z M 33.3 18.9 C 33.3 18.9 33.29 18.9 33.3 18.9 C 33 19.4 32.4 19.7 31.7 19.7 C 30.9 19.7 30 19.2 30 18.2 C 30 16.7 31.8 16.6 33 16.6 C 33.02 16.57 33.3 16.6 33.3 16.6 C 33.3 16.6 33.32 16.44 33.3 16.4 C 33.3 15.8 32.9 15.5 32.2 15.5 C 31.7 15.5 31.3 15.7 30.9 16 C 30.9 16 30.3 15.4 30.3 15.4 C 30.8 14.9 31.6 14.6 32.4 14.6 C 34.4 14.6 34.4 16.1 34.4 16.8 C 34.4 16.8 34.4 19.6 34.4 19.6 L 33.3 19.6 L 33.3 18.9 Z M 33.3 17.4 C 33.3 17.4 33 17.41 33 17.4 C 32.3 17.4 31.2 17.5 31.2 18.2 C 31.2 18.6 31.6 18.8 32 18.8 C 32.9 18.8 33.3 18.4 33.3 17.7 C 33.25 17.68 33.3 17.4 33.3 17.4 Z M 40.6 14.8 C 40.6 14.8 40.63 19.13 40.6 19.1 C 40.6 20.9 39.8 22 37.9 22 C 37 22 36.2 21.8 35.5 21.2 C 35.5 21.2 36.3 20.2 36.3 20.2 C 36.7 20.6 37.2 20.9 37.9 20.9 C 39.1 20.9 39.4 20.2 39.4 19.3 C 39.43 19.27 39.4 18.9 39.4 18.9 C 39.4 18.9 39.41 18.92 39.4 18.9 C 39.1 19.4 38.4 19.6 37.8 19.6 C 36.4 19.6 35.5 18.5 35.5 17.2 C 35.5 15.7 36.3 14.6 37.8 14.6 C 38.5 14.6 39.1 14.9 39.5 15.5 C 39.47 15.48 39.5 15.5 39.5 15.5 L 39.5 14.8 L 40.6 14.8 Z M 36.6 17.1 C 36.6 17.9 37.2 18.5 38.1 18.5 C 39 18.5 39.5 17.9 39.5 17.1 C 39.5 16.3 38.9 15.7 38.1 15.7 C 37.2 15.7 36.6 16.3 36.6 17.1 Z M 42.9 17.6 C 43 18.3 43.6 18.7 44.2 18.7 C 44.8 18.7 45.2 18.4 45.5 18.1 C 45.5 18.1 46.4 18.7 46.4 18.7 C 45.8 19.4 45.1 19.7 44.4 19.7 C 42.9 19.7 41.8 18.7 41.8 17.2 C 41.8 15.6 42.9 14.6 44.4 14.6 C 45.7 14.6 46.6 15.6 46.6 17.2 C 46.61 17.25 46.6 17.6 46.6 17.6 C 46.6 17.6 42.95 17.58 42.9 17.6 Z M 45.4 16.7 C 45.4 16 44.9 15.5 44.2 15.5 C 43.5 15.5 43 16 42.9 16.7 C 42.9 16.7 45.4 16.7 45.4 16.7 Z M 47.7 14.8 L 48.9 14.8 L 48.9 15.5 C 48.9 15.5 48.95 15.52 48.9 15.5 C 49.2 15 49.7 14.6 50.4 14.6 C 50.5 14.6 50.7 14.7 50.8 14.7 C 50.8 14.7 50.8 15.9 50.8 15.9 C 50.6 15.8 50.4 15.8 50.2 15.8 C 49.1 15.8 48.9 16.7 48.9 17 C 48.93 16.99 48.9 19.6 48.9 19.6 L 47.7 19.6 L 47.7 14.8 Z M 54.2 16.1 C 54 15.8 53.7 15.6 53.2 15.6 C 52.9 15.6 52.5 15.8 52.5 16.1 C 52.5 17 55.1 16.3 55.1 18.1 C 55.1 19.3 54 19.7 53.1 19.7 C 52.3 19.7 51.7 19.5 51.2 18.9 C 51.2 18.9 52 18.2 52 18.2 C 52.3 18.5 52.6 18.8 53.1 18.8 C 53.5 18.8 53.9 18.6 53.9 18.2 C 53.9 17.2 51.3 18 51.3 16.2 C 51.3 15.1 52.3 14.6 53.3 14.6 C 53.9 14.6 54.6 14.8 55 15.4 C 55 15.4 54.2 16.1 54.2 16.1 Z " stroke="none" fill="#000"/>  </g>  <g id="Polygon16778">    <path d="M 5.8 0.5 C 5.8 0.5 8.19 0.48 8.2 0.5 C 9.6 0.5 10.8 1 10.8 2.5 C 10.8 4.3 9.5 4.6 8 4.6 C 7.97 4.63 7.1 4.6 7.1 4.6 L 7.1 7.6 L 5.8 7.6 L 5.8 0.5 Z M 7.8 3.6 C 8.5 3.6 9.5 3.5 9.5 2.5 C 9.5 1.7 8.6 1.6 8 1.6 C 7.97 1.56 7.1 1.6 7.1 1.6 L 7.1 3.6 C 7.1 3.6 7.83 3.55 7.8 3.6 Z M 11.8 2.8 L 13 2.8 L 13 3.5 C 13 3.5 13.02 3.52 13 3.5 C 13.3 3 13.8 2.6 14.4 2.6 C 14.6 2.6 14.7 2.7 14.9 2.7 C 14.9 2.7 14.9 3.9 14.9 3.9 C 14.7 3.8 14.5 3.8 14.3 3.8 C 13.2 3.8 13 4.7 13 5 C 13 4.99 13 7.6 13 7.6 L 11.8 7.6 L 11.8 2.8 Z M 17.9 2.6 C 19.3 2.6 20.5 3.6 20.5 5.2 C 20.5 6.7 19.3 7.7 17.9 7.7 C 16.4 7.7 15.3 6.7 15.3 5.2 C 15.3 3.6 16.4 2.6 17.9 2.6 Z M 17.9 6.6 C 18.8 6.6 19.3 5.9 19.3 5.2 C 19.3 4.4 18.8 3.7 17.9 3.7 C 17 3.7 16.5 4.4 16.5 5.2 C 16.5 5.9 17 6.6 17.9 6.6 Z M 26.6 2.8 C 26.6 2.8 26.55 7.13 26.6 7.1 C 26.6 8.9 25.7 10 23.8 10 C 23 10 22.1 9.8 21.5 9.2 C 21.5 9.2 22.2 8.2 22.2 8.2 C 22.7 8.6 23.2 8.9 23.8 8.9 C 25 8.9 25.4 8.2 25.4 7.3 C 25.36 7.27 25.4 6.9 25.4 6.9 C 25.4 6.9 25.34 6.92 25.3 6.9 C 25 7.4 24.4 7.6 23.8 7.6 C 22.3 7.6 21.4 6.5 21.4 5.2 C 21.4 3.7 22.3 2.6 23.7 2.6 C 24.4 2.6 25 2.9 25.4 3.5 C 25.4 3.48 25.4 3.5 25.4 3.5 L 25.4 2.8 L 26.6 2.8 Z M 22.6 5.1 C 22.6 5.9 23.2 6.5 24 6.5 C 24.9 6.5 25.4 5.9 25.4 5.1 C 25.4 4.3 24.9 3.7 24 3.7 C 23.2 3.7 22.6 4.3 22.6 5.1 Z M 27.9 2.8 L 29.1 2.8 L 29.1 3.5 C 29.1 3.5 29.13 3.52 29.1 3.5 C 29.4 3 29.9 2.6 30.6 2.6 C 30.7 2.6 30.8 2.7 31 2.7 C 31 2.7 31 3.9 31 3.9 C 30.8 3.8 30.6 3.8 30.4 3.8 C 29.3 3.8 29.1 4.7 29.1 5 C 29.11 4.99 29.1 7.6 29.1 7.6 L 27.9 7.6 L 27.9 2.8 Z M 34.8 6.9 C 34.8 6.9 34.78 6.9 34.8 6.9 C 34.4 7.4 33.9 7.7 33.2 7.7 C 32.3 7.7 31.5 7.2 31.5 6.2 C 31.5 4.7 33.3 4.6 34.5 4.6 C 34.51 4.57 34.8 4.6 34.8 4.6 C 34.8 4.6 34.81 4.44 34.8 4.4 C 34.8 3.8 34.3 3.5 33.7 3.5 C 33.2 3.5 32.7 3.7 32.4 4 C 32.4 4 31.8 3.4 31.8 3.4 C 32.3 2.9 33.1 2.6 33.8 2.6 C 35.9 2.6 35.9 4.1 35.9 4.8 C 35.88 4.8 35.9 7.6 35.9 7.6 L 34.8 7.6 L 34.8 6.9 Z M 34.7 5.4 C 34.7 5.4 34.49 5.41 34.5 5.4 C 33.8 5.4 32.7 5.5 32.7 6.2 C 32.7 6.6 33.1 6.8 33.5 6.8 C 34.3 6.8 34.7 6.4 34.7 5.7 C 34.74 5.68 34.7 5.4 34.7 5.4 Z M 37.1 2.8 L 38.3 2.8 L 38.3 3.5 C 38.3 3.5 38.28 3.51 38.3 3.5 C 38.5 3.1 39 2.6 39.8 2.6 C 40.5 2.6 41 2.9 41.3 3.5 C 41.6 2.9 42.1 2.6 42.8 2.6 C 44.1 2.6 44.6 3.5 44.6 4.7 C 44.56 4.7 44.6 7.6 44.6 7.6 L 43.4 7.6 C 43.4 7.6 43.37 4.84 43.4 4.8 C 43.4 4.2 43.2 3.7 42.5 3.7 C 41.7 3.7 41.4 4.3 41.4 5 C 41.44 4.96 41.4 7.6 41.4 7.6 L 40.2 7.6 C 40.2 7.6 40.25 4.7 40.2 4.7 C 40.2 4.1 40 3.7 39.4 3.7 C 38.6 3.7 38.3 4.3 38.3 4.9 C 38.32 4.94 38.3 7.6 38.3 7.6 L 37.1 7.6 L 37.1 2.8 Z M 45.8 2.8 L 47 2.8 L 47 3.5 C 47 3.5 46.98 3.51 47 3.5 C 47.2 3.1 47.7 2.6 48.5 2.6 C 49.2 2.6 49.7 2.9 50 3.5 C 50.3 2.9 50.8 2.6 51.5 2.6 C 52.8 2.6 53.3 3.5 53.3 4.7 C 53.26 4.7 53.3 7.6 53.3 7.6 L 52.1 7.6 C 52.1 7.6 52.07 4.84 52.1 4.8 C 52.1 4.2 51.9 3.7 51.2 3.7 C 50.4 3.7 50.1 4.3 50.1 5 C 50.14 4.96 50.1 7.6 50.1 7.6 L 48.9 7.6 C 48.9 7.6 48.95 4.7 48.9 4.7 C 48.9 4.1 48.7 3.7 48.1 3.7 C 47.3 3.7 47 4.3 47 4.9 C 47.02 4.94 47 7.6 47 7.6 L 45.8 7.6 L 45.8 2.8 Z M 55.5 5.6 C 55.6 6.3 56.2 6.7 56.8 6.7 C 57.4 6.7 57.8 6.4 58.1 6.1 C 58.1 6.1 59 6.7 59 6.7 C 58.4 7.4 57.7 7.7 56.9 7.7 C 55.5 7.7 54.3 6.7 54.3 5.2 C 54.3 3.6 55.5 2.6 56.9 2.6 C 58.3 2.6 59.2 3.6 59.2 5.2 C 59.19 5.25 59.2 5.6 59.2 5.6 C 59.2 5.6 55.53 5.58 55.5 5.6 Z M 58 4.7 C 58 4 57.5 3.5 56.8 3.5 C 56.1 3.5 55.6 4 55.5 4.7 C 55.5 4.7 58 4.7 58 4.7 Z " stroke="none" fill="#000"/>  </g></svg>