<?xml version="1.0" standalone="no"?><!DOCTYPE svg PUBLIC "-//W3C//DTD SVG 1.1//EN" "http://www.w3.org/Graphics/SVG/1.1/DTD/svg11.dtd"><svg xmlns="http://www.w3.org/2000/svg" version="1.1" width="79px" height="28.4px" viewBox="0 -3 79 28.4" style="top:-3px">  <desc>Financial Crime &amp; Cyber Security</desc>  <defs/>  <g id="Polygon16999">    <path d="M 5.8 17.9 L 7.3 19.6 L 5.8 19.6 C 5.8 19.6 5.03 18.75 5 18.8 C 4.5 19.4 3.8 19.7 2.9 19.7 C 1.7 19.7 0.5 19 0.5 17.7 C 0.5 16.7 1.2 16 2.1 15.7 C 1.6 15.2 1.3 14.7 1.3 14 C 1.3 12.9 2.2 12.3 3.3 12.3 C 4.4 12.3 5.3 12.8 5.3 14 C 5.3 14.8 4.6 15.4 3.9 15.8 C 3.88 15.81 5 17 5 17 L 5.8 15.8 L 7.2 15.8 L 5.8 17.9 Z M 2.5 14.1 C 2.5 14.5 2.8 14.8 3.1 15.1 C 3.5 14.9 4.1 14.6 4.1 14 C 4.1 13.7 3.7 13.4 3.3 13.4 C 2.9 13.4 2.5 13.7 2.5 14.1 Z M 2.8 16.4 C 2.4 16.7 1.9 17 1.9 17.6 C 1.9 18.2 2.4 18.7 3 18.7 C 3.5 18.7 3.9 18.3 4.3 18 C 4.3 18 2.8 16.4 2.8 16.4 Z M 16.1 14.1 C 15.6 13.6 15.1 13.4 14.6 13.4 C 13.1 13.4 12.2 14.6 12.2 16 C 12.2 17.5 13.1 18.6 14.6 18.6 C 15.2 18.6 15.7 18.3 16.2 17.7 C 16.2 17.7 17.2 18.5 17.2 18.5 C 16.6 19.4 15.6 19.7 14.6 19.7 C 12.4 19.7 10.8 18.3 10.8 16 C 10.8 13.8 12.4 12.3 14.6 12.3 C 15.5 12.3 16.4 12.6 17.1 13.4 C 17.1 13.4 16.1 14.1 16.1 14.1 Z M 17.3 14.8 L 18.6 14.8 L 20 18.1 L 20 18.1 L 21.2 14.8 L 22.4 14.8 C 22.4 14.8 20.17 20.59 20.2 20.6 C 19.8 21.5 19.4 22 18.3 22 C 18 22 17.7 21.9 17.4 21.8 C 17.4 21.8 17.6 20.8 17.6 20.8 C 17.8 20.8 18 20.9 18.2 20.9 C 18.8 20.9 18.9 20.7 19.1 20.2 C 19.13 20.17 19.4 19.6 19.4 19.6 L 17.3 14.8 Z M 23.2 12 L 24.4 12 L 24.4 15.4 C 24.4 15.4 24.38 15.37 24.4 15.4 C 24.6 15.1 25.1 14.6 26 14.6 C 27.4 14.6 28.3 15.7 28.3 17.2 C 28.3 18.6 27.4 19.7 26 19.7 C 25.3 19.7 24.7 19.4 24.3 18.8 C 24.31 18.84 24.3 18.8 24.3 18.8 L 24.3 19.6 L 23.2 19.6 L 23.2 12 Z M 25.7 15.7 C 24.8 15.7 24.3 16.4 24.3 17.2 C 24.3 17.9 24.8 18.6 25.7 18.6 C 26.6 18.6 27.1 17.9 27.1 17.2 C 27.1 16.4 26.6 15.7 25.7 15.7 Z M 30.4 17.6 C 30.5 18.3 31 18.7 31.7 18.7 C 32.3 18.7 32.7 18.4 33 18.1 C 33 18.1 33.9 18.7 33.9 18.7 C 33.3 19.4 32.6 19.7 31.8 19.7 C 30.4 19.7 29.2 18.7 29.2 17.2 C 29.2 15.6 30.4 14.6 31.8 14.6 C 33.2 14.6 34.1 15.6 34.1 17.2 C 34.07 17.25 34.1 17.6 34.1 17.6 C 34.1 17.6 30.41 17.58 30.4 17.6 Z M 32.9 16.7 C 32.9 16 32.4 15.5 31.7 15.5 C 30.9 15.5 30.5 16 30.4 16.7 C 30.4 16.7 32.9 16.7 32.9 16.7 Z M 35.2 14.8 L 36.4 14.8 L 36.4 15.5 C 36.4 15.5 36.41 15.52 36.4 15.5 C 36.7 15 37.2 14.6 37.8 14.6 C 38 14.6 38.1 14.7 38.3 14.7 C 38.3 14.7 38.3 15.9 38.3 15.9 C 38.1 15.8 37.9 15.8 37.7 15.8 C 36.6 15.8 36.4 16.7 36.4 17 C 36.39 16.99 36.4 19.6 36.4 19.6 L 35.2 19.6 L 35.2 14.8 Z M 45.6 14 C 45.4 13.6 44.9 13.4 44.4 13.4 C 43.8 13.4 43.2 13.7 43.2 14.3 C 43.2 15.8 46.6 15 46.6 17.5 C 46.6 19 45.4 19.7 44 19.7 C 43.1 19.7 42.3 19.5 41.7 18.8 C 41.7 18.8 42.6 17.9 42.6 17.9 C 42.9 18.3 43.5 18.6 44 18.6 C 44.6 18.6 45.3 18.3 45.3 17.6 C 45.3 16.1 41.9 17 41.9 14.4 C 41.9 13 43.2 12.3 44.5 12.3 C 45.3 12.3 46 12.5 46.5 13 C 46.5 13 45.6 14 45.6 14 Z M 48.7 17.6 C 48.8 18.3 49.4 18.7 50 18.7 C 50.6 18.7 51 18.4 51.3 18.1 C 51.3 18.1 52.2 18.7 52.2 18.7 C 51.6 19.4 50.9 19.7 50.2 19.7 C 48.7 19.7 47.5 18.7 47.5 17.2 C 47.5 15.6 48.7 14.6 50.2 14.6 C 51.5 14.6 52.4 15.6 52.4 17.2 C 52.4 17.25 52.4 17.6 52.4 17.6 C 52.4 17.6 48.74 17.58 48.7 17.6 Z M 51.2 16.7 C 51.2 16 50.7 15.5 50 15.5 C 49.3 15.5 48.8 16 48.7 16.7 C 48.7 16.7 51.2 16.7 51.2 16.7 Z M 56.8 16.2 C 56.5 15.9 56.2 15.7 55.9 15.7 C 55 15.7 54.5 16.4 54.5 17.2 C 54.5 17.9 55 18.6 55.9 18.6 C 56.3 18.6 56.6 18.4 56.8 18.2 C 56.8 18.2 57.6 19 57.6 19 C 57.1 19.5 56.3 19.7 55.9 19.7 C 54.4 19.7 53.3 18.7 53.3 17.2 C 53.3 15.6 54.4 14.6 55.9 14.6 C 56.5 14.6 57.2 14.9 57.6 15.4 C 57.6 15.4 56.8 16.2 56.8 16.2 Z M 62.7 19.6 L 61.6 19.6 L 61.6 18.8 C 61.6 18.8 61.56 18.79 61.6 18.8 C 61.3 19.3 60.9 19.7 60.1 19.7 C 58.8 19.7 58.3 18.8 58.3 17.8 C 58.34 17.79 58.3 14.8 58.3 14.8 L 59.5 14.8 C 59.5 14.8 59.54 17.19 59.5 17.2 C 59.5 17.7 59.6 18.6 60.4 18.6 C 61.2 18.6 61.5 18 61.5 17.4 C 61.52 17.38 61.5 14.8 61.5 14.8 L 62.7 14.8 L 62.7 19.6 Z M 64.1 14.8 L 65.3 14.8 L 65.3 15.5 C 65.3 15.5 65.3 15.52 65.3 15.5 C 65.6 15 66.1 14.6 66.7 14.6 C 66.9 14.6 67 14.7 67.2 14.7 C 67.2 14.7 67.2 15.9 67.2 15.9 C 67 15.8 66.8 15.8 66.6 15.8 C 65.4 15.8 65.3 16.7 65.3 17 C 65.28 16.99 65.3 19.6 65.3 19.6 L 64.1 19.6 L 64.1 14.8 Z M 68 14.8 L 69.2 14.8 L 69.2 19.6 L 68 19.6 L 68 14.8 Z M 68.6 12.4 C 69 12.4 69.4 12.7 69.4 13.1 C 69.4 13.5 69 13.8 68.6 13.8 C 68.1 13.8 67.8 13.5 67.8 13.1 C 67.8 12.8 68.1 12.4 68.6 12.4 Z M 70 15.8 L 70 14.8 L 71 14.8 L 71 13.4 L 72.2 13.4 L 72.2 14.8 L 73.5 14.8 L 73.5 15.8 L 72.2 15.8 C 72.2 15.8 72.2 17.88 72.2 17.9 C 72.2 18.4 72.3 18.7 72.9 18.7 C 73.1 18.7 73.4 18.6 73.5 18.5 C 73.5 18.5 73.5 19.5 73.5 19.5 C 73.3 19.6 72.9 19.7 72.6 19.7 C 71.3 19.7 71 19.1 71 18 C 71 17.98 71 15.8 71 15.8 L 70 15.8 Z M 73.8 14.8 L 75.1 14.8 L 76.5 18.1 L 76.5 18.1 L 77.7 14.8 L 78.9 14.8 C 78.9 14.8 76.67 20.59 76.7 20.6 C 76.3 21.5 75.9 22 74.8 22 C 74.5 22 74.2 21.9 73.9 21.8 C 73.9 21.8 74.1 20.8 74.1 20.8 C 74.3 20.8 74.5 20.9 74.7 20.9 C 75.3 20.9 75.4 20.7 75.6 20.2 C 75.63 20.17 75.9 19.6 75.9 19.6 L 73.8 14.8 Z " stroke="none" fill="#fff"/>  </g>  <g id="Polygon16998">    <path d="M 4.6 0.5 L 9.2 0.5 L 9.2 1.6 L 5.9 1.6 L 5.9 3.5 L 9 3.5 L 9 4.6 L 5.9 4.6 L 5.9 7.6 L 4.6 7.6 L 4.6 0.5 Z M 10.3 2.8 L 11.5 2.8 L 11.5 7.6 L 10.3 7.6 L 10.3 2.8 Z M 10.9 0.4 C 11.3 0.4 11.7 0.7 11.7 1.1 C 11.7 1.5 11.3 1.8 10.9 1.8 C 10.4 1.8 10.1 1.5 10.1 1.1 C 10.1 0.8 10.4 0.4 10.9 0.4 Z M 12.9 2.8 L 14 2.8 L 14 3.5 C 14 3.5 14.04 3.53 14 3.5 C 14.3 3.1 14.7 2.6 15.5 2.6 C 16.8 2.6 17.3 3.5 17.3 4.5 C 17.26 4.53 17.3 7.6 17.3 7.6 L 16.1 7.6 C 16.1 7.6 16.06 5.13 16.1 5.1 C 16.1 4.6 16 3.7 15.2 3.7 C 14.4 3.7 14.1 4.3 14.1 4.9 C 14.08 4.94 14.1 7.6 14.1 7.6 L 12.9 7.6 L 12.9 2.8 Z M 21.6 6.9 C 21.6 6.9 21.59 6.9 21.6 6.9 C 21.2 7.4 20.7 7.7 20 7.7 C 19.2 7.7 18.3 7.2 18.3 6.2 C 18.3 4.7 20.1 4.6 21.3 4.6 C 21.32 4.57 21.6 4.6 21.6 4.6 C 21.6 4.6 21.62 4.44 21.6 4.4 C 21.6 3.8 21.2 3.5 20.5 3.5 C 20 3.5 19.6 3.7 19.2 4 C 19.2 4 18.6 3.4 18.6 3.4 C 19.1 2.9 19.9 2.6 20.6 2.6 C 22.7 2.6 22.7 4.1 22.7 4.8 C 22.7 4.8 22.7 7.6 22.7 7.6 L 21.6 7.6 L 21.6 6.9 Z M 21.5 5.4 C 21.5 5.4 21.3 5.41 21.3 5.4 C 20.6 5.4 19.5 5.5 19.5 6.2 C 19.5 6.6 19.9 6.8 20.3 6.8 C 21.2 6.8 21.5 6.4 21.5 5.7 C 21.55 5.68 21.5 5.4 21.5 5.4 Z M 24 2.8 L 25.1 2.8 L 25.1 3.5 C 25.1 3.5 25.15 3.53 25.1 3.5 C 25.4 3.1 25.8 2.6 26.6 2.6 C 27.9 2.6 28.4 3.5 28.4 4.5 C 28.37 4.53 28.4 7.6 28.4 7.6 L 27.2 7.6 C 27.2 7.6 27.17 5.13 27.2 5.1 C 27.2 4.6 27.1 3.7 26.3 3.7 C 25.5 3.7 25.2 4.3 25.2 4.9 C 25.19 4.94 25.2 7.6 25.2 7.6 L 24 7.6 L 24 2.8 Z M 33 4.2 C 32.7 3.9 32.4 3.7 32.1 3.7 C 31.2 3.7 30.7 4.4 30.7 5.2 C 30.7 5.9 31.2 6.6 32.1 6.6 C 32.5 6.6 32.8 6.4 33 6.2 C 33 6.2 33.8 7 33.8 7 C 33.3 7.5 32.5 7.7 32.1 7.7 C 30.6 7.7 29.5 6.7 29.5 5.2 C 29.5 3.6 30.6 2.6 32.1 2.6 C 32.7 2.6 33.4 2.9 33.8 3.4 C 33.8 3.4 33 4.2 33 4.2 Z M 34.6 2.8 L 35.8 2.8 L 35.8 7.6 L 34.6 7.6 L 34.6 2.8 Z M 35.2 0.4 C 35.6 0.4 35.9 0.7 35.9 1.1 C 35.9 1.5 35.6 1.8 35.2 1.8 C 34.7 1.8 34.4 1.5 34.4 1.1 C 34.4 0.8 34.7 0.4 35.2 0.4 Z M 40.1 6.9 C 40.1 6.9 40.12 6.9 40.1 6.9 C 39.8 7.4 39.2 7.7 38.6 7.7 C 37.7 7.7 36.8 7.2 36.8 6.2 C 36.8 4.7 38.6 4.6 39.8 4.6 C 39.85 4.57 40.1 4.6 40.1 4.6 C 40.1 4.6 40.15 4.44 40.1 4.4 C 40.1 3.8 39.7 3.5 39 3.5 C 38.5 3.5 38.1 3.7 37.8 4 C 37.8 4 37.1 3.4 37.1 3.4 C 37.7 2.9 38.4 2.6 39.2 2.6 C 41.2 2.6 41.2 4.1 41.2 4.8 C 41.23 4.8 41.2 7.6 41.2 7.6 L 40.1 7.6 L 40.1 6.9 Z M 40.1 5.4 C 40.1 5.4 39.83 5.41 39.8 5.4 C 39.2 5.4 38 5.5 38 6.2 C 38 6.6 38.5 6.8 38.9 6.8 C 39.7 6.8 40.1 6.4 40.1 5.7 C 40.08 5.68 40.1 5.4 40.1 5.4 Z M 42.5 0 L 43.7 0 L 43.7 7.6 L 42.5 7.6 L 42.5 0 Z M 53 2.1 C 52.5 1.6 52 1.4 51.6 1.4 C 50.1 1.4 49.1 2.6 49.1 4 C 49.1 5.5 50.1 6.6 51.6 6.6 C 52.1 6.6 52.7 6.3 53.1 5.7 C 53.1 5.7 54.2 6.5 54.2 6.5 C 53.5 7.4 52.6 7.7 51.5 7.7 C 49.4 7.7 47.8 6.3 47.8 4 C 47.8 1.8 49.4 0.3 51.5 0.3 C 52.5 0.3 53.3 0.6 54 1.4 C 54 1.4 53 2.1 53 2.1 Z M 54.9 2.8 L 56.1 2.8 L 56.1 3.5 C 56.1 3.5 56.15 3.52 56.1 3.5 C 56.4 3 56.9 2.6 57.6 2.6 C 57.7 2.6 57.9 2.7 58 2.7 C 58 2.7 58 3.9 58 3.9 C 57.8 3.8 57.6 3.8 57.4 3.8 C 56.3 3.8 56.1 4.7 56.1 5 C 56.13 4.99 56.1 7.6 56.1 7.6 L 54.9 7.6 L 54.9 2.8 Z M 58.8 2.8 L 60 2.8 L 60 7.6 L 58.8 7.6 L 58.8 2.8 Z M 59.4 0.4 C 59.9 0.4 60.2 0.7 60.2 1.1 C 60.2 1.5 59.9 1.8 59.4 1.8 C 59 1.8 58.7 1.5 58.7 1.1 C 58.7 0.8 59 0.4 59.4 0.4 Z M 61.4 2.8 L 62.5 2.8 L 62.5 3.5 C 62.5 3.5 62.53 3.51 62.5 3.5 C 62.7 3.1 63.2 2.6 64 2.6 C 64.7 2.6 65.2 2.9 65.5 3.5 C 65.8 2.9 66.4 2.6 67.1 2.6 C 68.4 2.6 68.8 3.5 68.8 4.7 C 68.81 4.7 68.8 7.6 68.8 7.6 L 67.6 7.6 C 67.6 7.6 67.61 4.84 67.6 4.8 C 67.6 4.2 67.4 3.7 66.7 3.7 C 66 3.7 65.7 4.3 65.7 5 C 65.69 4.96 65.7 7.6 65.7 7.6 L 64.5 7.6 C 64.5 7.6 64.49 4.7 64.5 4.7 C 64.5 4.1 64.2 3.7 63.7 3.7 C 62.9 3.7 62.6 4.3 62.6 4.9 C 62.57 4.94 62.6 7.6 62.6 7.6 L 61.4 7.6 L 61.4 2.8 Z M 71.1 5.6 C 71.2 6.3 71.7 6.7 72.4 6.7 C 73 6.7 73.4 6.4 73.7 6.1 C 73.7 6.1 74.5 6.7 74.5 6.7 C 74 7.4 73.2 7.7 72.5 7.7 C 71 7.7 69.9 6.7 69.9 5.2 C 69.9 3.6 71 2.6 72.5 2.6 C 73.8 2.6 74.7 3.6 74.7 5.2 C 74.74 5.25 74.7 5.6 74.7 5.6 C 74.7 5.6 71.08 5.58 71.1 5.6 Z M 73.5 4.7 C 73.5 4 73.1 3.5 72.3 3.5 C 71.6 3.5 71.2 4 71.1 4.7 C 71.1 4.7 73.5 4.7 73.5 4.7 Z " stroke="none" fill="#fff"/>  </g></svg>