<?xml version="1.0" standalone="no"?><!DOCTYPE svg PUBLIC "-//W3C//DTD SVG 1.1//EN" "http://www.w3.org/Graphics/SVG/1.1/DTD/svg11.dtd"><svg xmlns="http://www.w3.org/2000/svg" version="1.1" width="252px" height="33.4px" viewBox="0 -5 252 33.4" style="top:-5px">  <desc>See what our clients say</desc>  <defs/>  <g id="Polygon17505">    <path d="M 9.3 4.9 C 8.7 4.2 7.6 3.8 6.8 3.8 C 5.8 3.8 4.5 4.3 4.5 5.4 C 4.5 8.3 11.7 6.4 11.7 11.9 C 11.7 15.4 8.9 17 5.7 17 C 3.7 17 1.9 16.4 0.4 15.1 C 0.4 15.1 2.9 12.4 2.9 12.4 C 3.6 13.3 4.7 13.9 5.9 13.9 C 7 13.9 8.2 13.3 8.2 12.2 C 8.2 9.4 0.9 10.9 0.9 5.7 C 0.9 2.4 3.8 0.7 6.9 0.7 C 8.6 0.7 10.3 1.1 11.6 2.3 C 11.6 2.3 9.3 4.9 9.3 4.9 Z M 23.9 14.8 C 22.9 16.1 21.1 16.9 19.4 16.9 C 16.1 16.9 13.5 14.7 13.5 11.3 C 13.5 7.9 16.1 5.7 19.4 5.7 C 22.5 5.7 24.4 7.9 24.4 11.3 C 24.42 11.29 24.4 12.3 24.4 12.3 C 24.4 12.3 16.76 12.32 16.8 12.3 C 17 13.6 18 14.4 19.2 14.4 C 20.3 14.4 21.1 13.8 21.6 13.1 C 21.6 13.1 23.9 14.8 23.9 14.8 Z M 21.1 10.1 C 21.1 9 20.3 8.1 19.1 8.1 C 17.6 8.1 16.9 9 16.8 10.1 C 16.8 10.1 21.1 10.1 21.1 10.1 Z M 36.5 14.8 C 35.5 16.1 33.7 16.9 32 16.9 C 28.7 16.9 26.1 14.7 26.1 11.3 C 26.1 7.9 28.7 5.7 32 5.7 C 35.1 5.7 37 7.9 37 11.3 C 37.05 11.29 37 12.3 37 12.3 C 37 12.3 29.39 12.32 29.4 12.3 C 29.7 13.6 30.6 14.4 31.9 14.4 C 33 14.4 33.7 13.8 34.2 13.1 C 34.2 13.1 36.5 14.8 36.5 14.8 Z M 33.7 10.1 C 33.8 9 32.9 8.1 31.7 8.1 C 30.3 8.1 29.5 9 29.4 10.1 C 29.4 10.1 33.7 10.1 33.7 10.1 Z M 44.3 5.9 L 47.8 5.9 L 50 12.6 L 50 12.6 L 51.9 5.9 L 55.5 5.9 L 57.4 12.6 L 57.5 12.6 L 59.5 5.9 L 62.8 5.9 L 59 16.6 L 55.8 16.6 L 53.5 9.5 L 53.5 9.5 L 51.5 16.6 L 48.2 16.6 L 44.3 5.9 Z M 67.2 0 L 67.2 7.4 C 67.2 7.4 67.23 7.39 67.2 7.4 C 67.5 6.6 68.6 5.7 70.2 5.7 C 73.6 5.7 74.2 7.9 74.2 10.7 C 74.18 10.74 74.2 16.6 74.2 16.6 L 70.9 16.6 C 70.9 16.6 70.88 11.4 70.9 11.4 C 70.9 10.2 70.9 8.6 69.2 8.6 C 67.5 8.6 67.2 9.9 67.2 11.3 C 67.19 11.31 67.2 16.6 67.2 16.6 L 63.9 16.6 L 63.9 0 L 67.2 0 Z M 83.2 15.3 C 83.2 15.3 83.18 15.29 83.2 15.3 C 82.5 16.4 81.1 16.9 79.8 16.9 C 77.8 16.9 76 15.8 76 13.6 C 76 9.9 80.5 9.8 83.2 9.8 C 83.2 8.7 82.3 7.9 81.1 7.9 C 80 7.9 79.1 8.4 78.4 9.2 C 78.4 9.2 76.7 7.4 76.7 7.4 C 77.9 6.2 79.6 5.7 81.4 5.7 C 85.2 5.7 86.3 7.6 86.3 11.2 C 86.26 11.2 86.3 16.6 86.3 16.6 L 83.2 16.6 L 83.2 15.3 Z M 82.4 11.9 C 81.4 11.9 79.2 12 79.2 13.5 C 79.2 14.3 80 14.7 80.7 14.7 C 82 14.7 83.2 14 83.2 12.6 C 83.22 12.65 83.2 11.9 83.2 11.9 C 83.2 11.9 82.41 11.95 82.4 11.9 Z M 95.6 8.6 L 92.7 8.6 C 92.7 8.6 92.71 12.14 92.7 12.1 C 92.7 13.3 92.8 14.1 94.3 14.1 C 94.6 14.1 95.3 14.1 95.6 13.8 C 95.6 13.8 95.6 16.6 95.6 16.6 C 94.9 16.8 94.1 16.9 93.3 16.9 C 91.1 16.9 89.4 16 89.4 13.7 C 89.41 13.66 89.4 8.6 89.4 8.6 L 87.3 8.6 L 87.3 5.9 L 89.4 5.9 L 89.4 2.8 L 92.7 2.8 L 92.7 5.9 L 95.6 5.9 L 95.6 8.6 Z M 109.3 5.7 C 112.6 5.7 115.3 7.9 115.3 11.3 C 115.3 14.7 112.6 16.9 109.3 16.9 C 106 16.9 103.4 14.7 103.4 11.3 C 103.4 7.9 106 5.7 109.3 5.7 Z M 109.3 14 C 111 14 112 12.9 112 11.3 C 112 9.7 111 8.6 109.3 8.6 C 107.7 8.6 106.7 9.7 106.7 11.3 C 106.7 12.9 107.7 14 109.3 14 Z M 127.5 16.6 L 124.3 16.6 L 124.3 15.2 C 124.3 15.2 124.3 15.18 124.3 15.2 C 123.9 16 122.8 16.9 121.2 16.9 C 117.8 16.9 117.2 14.7 117.2 11.8 C 117.21 11.84 117.2 5.9 117.2 5.9 L 120.5 5.9 C 120.5 5.9 120.51 11.18 120.5 11.2 C 120.5 12.4 120.5 14 122.2 14 C 123.9 14 124.2 12.6 124.2 11.3 C 124.21 11.26 124.2 5.9 124.2 5.9 L 127.5 5.9 L 127.5 16.6 Z M 129.8 5.9 L 133.1 5.9 L 133.1 7.7 C 133.1 7.7 133.19 7.66 133.2 7.7 C 133.9 6.4 134.8 5.7 136.3 5.7 C 136.6 5.7 137.1 5.7 137.4 5.8 C 137.4 5.8 137.4 8.8 137.4 8.8 C 136.9 8.7 136.4 8.6 136 8.6 C 133.4 8.6 133.1 10 133.1 12.2 C 133.14 12.17 133.1 16.6 133.1 16.6 L 129.8 16.6 L 129.8 5.9 Z M 152.5 9.4 C 152.2 8.9 151.6 8.6 150.9 8.6 C 149.3 8.6 148.3 9.7 148.3 11.3 C 148.3 12.9 149.3 14 150.9 14 C 151.6 14 152.2 13.6 152.5 13.2 C 152.5 13.2 154.7 15.5 154.7 15.5 C 153.7 16.5 152.2 16.9 150.9 16.9 C 147.6 16.9 145 14.7 145 11.3 C 145 7.9 147.6 5.7 150.9 5.7 C 152.2 5.7 153.7 6 154.7 7.1 C 154.7 7.1 152.5 9.4 152.5 9.4 Z M 156 0 L 159.3 0 L 159.3 16.6 L 156 16.6 L 156 0 Z M 161.7 5.9 L 165 5.9 L 165 16.6 L 161.7 16.6 L 161.7 5.9 Z M 163.3 0.7 C 164.4 0.7 165.2 1.5 165.2 2.6 C 165.2 3.6 164.4 4.5 163.3 4.5 C 162.3 4.5 161.4 3.6 161.4 2.6 C 161.4 1.5 162.3 0.7 163.3 0.7 Z M 177.5 14.8 C 176.4 16.1 174.7 16.9 173 16.9 C 169.7 16.9 167 14.7 167 11.3 C 167 7.9 169.7 5.7 173 5.7 C 176 5.7 178 7.9 178 11.3 C 177.98 11.29 178 12.3 178 12.3 C 178 12.3 170.32 12.32 170.3 12.3 C 170.6 13.6 171.5 14.4 172.8 14.4 C 173.9 14.4 174.6 13.8 175.2 13.1 C 175.2 13.1 177.5 14.8 177.5 14.8 Z M 174.7 10.1 C 174.7 9 173.8 8.1 172.7 8.1 C 171.2 8.1 170.4 9 170.3 10.1 C 170.3 10.1 174.7 10.1 174.7 10.1 Z M 180 5.9 L 183.1 5.9 L 183.1 7.4 C 183.1 7.4 183.19 7.39 183.2 7.4 C 183.6 6.6 184.7 5.7 186.3 5.7 C 189.7 5.7 190.3 7.9 190.3 10.7 C 190.27 10.74 190.3 16.6 190.3 16.6 L 187 16.6 C 187 16.6 186.97 11.4 187 11.4 C 187 10.2 187 8.6 185.3 8.6 C 183.5 8.6 183.3 9.9 183.3 11.3 C 183.28 11.31 183.3 16.6 183.3 16.6 L 180 16.6 L 180 5.9 Z M 199.9 8.6 L 197 8.6 C 197 8.6 196.98 12.14 197 12.1 C 197 13.3 197.1 14.1 198.5 14.1 C 198.9 14.1 199.6 14.1 199.9 13.8 C 199.9 13.8 199.9 16.6 199.9 16.6 C 199.2 16.8 198.3 16.9 197.6 16.9 C 195.4 16.9 193.7 16 193.7 13.7 C 193.68 13.66 193.7 8.6 193.7 8.6 L 191.6 8.6 L 191.6 5.9 L 193.7 5.9 L 193.7 2.8 L 197 2.8 L 197 5.9 L 199.9 5.9 L 199.9 8.6 Z M 207.6 9.1 C 207.1 8.5 206.5 8.2 205.7 8.2 C 205.1 8.2 204.5 8.4 204.5 9.1 C 204.5 10.6 210.1 9.3 210.1 13.4 C 210.1 16.1 207.4 16.9 205.1 16.9 C 203.6 16.9 202 16.5 200.9 15.4 C 200.9 15.4 202.9 13.2 202.9 13.2 C 203.5 14 204.3 14.4 205.3 14.4 C 206 14.4 206.8 14.2 206.8 13.6 C 206.8 11.9 201.2 13.4 201.2 9.3 C 201.2 6.8 203.4 5.7 205.7 5.7 C 207.1 5.7 208.6 6 209.6 7.1 C 209.6 7.1 207.6 9.1 207.6 9.1 Z M 224.3 9.1 C 223.8 8.5 223.2 8.2 222.4 8.2 C 221.8 8.2 221.2 8.4 221.2 9.1 C 221.2 10.6 226.8 9.3 226.8 13.4 C 226.8 16.1 224.1 16.9 221.8 16.9 C 220.3 16.9 218.7 16.5 217.6 15.4 C 217.6 15.4 219.6 13.2 219.6 13.2 C 220.2 14 221 14.4 222 14.4 C 222.7 14.4 223.5 14.2 223.5 13.6 C 223.5 11.9 217.9 13.4 217.9 9.3 C 217.9 6.8 220.1 5.7 222.4 5.7 C 223.8 5.7 225.3 6 226.3 7.1 C 226.3 7.1 224.3 9.1 224.3 9.1 Z M 235.2 15.3 C 235.2 15.3 235.11 15.29 235.1 15.3 C 234.4 16.4 233.1 16.9 231.7 16.9 C 229.7 16.9 227.9 15.8 227.9 13.6 C 227.9 9.9 232.4 9.8 235.2 9.8 C 235.2 8.7 234.2 7.9 233 7.9 C 232 7.9 231.1 8.4 230.4 9.2 C 230.4 9.2 228.6 7.4 228.6 7.4 C 229.8 6.2 231.6 5.7 233.3 5.7 C 237.2 5.7 238.2 7.6 238.2 11.2 C 238.19 11.2 238.2 16.6 238.2 16.6 L 235.2 16.6 L 235.2 15.3 Z M 234.3 11.9 C 233.3 11.9 231.1 12 231.1 13.5 C 231.1 14.3 231.9 14.7 232.6 14.7 C 233.9 14.7 235.2 14 235.2 12.6 C 235.15 12.65 235.2 11.9 235.2 11.9 C 235.2 11.9 234.34 11.95 234.3 11.9 Z M 246.4 18.4 C 245.5 20.6 245 21.9 241.9 21.9 C 241 21.9 240.2 21.8 239.4 21.5 C 239.4 21.5 239.9 18.8 239.9 18.8 C 240.4 19 240.9 19.1 241.4 19.1 C 242.9 19.1 243.1 18.5 243.6 17.3 C 243.6 17.34 243.8 16.7 243.8 16.7 L 239.2 5.9 L 242.7 5.9 L 245.5 13 L 245.5 13 L 247.9 5.9 L 251.3 5.9 C 251.3 5.9 246.42 18.37 246.4 18.4 Z " stroke="none" fill="#fff"/>  </g></svg>