<?xml version="1.0" standalone="no"?><!DOCTYPE svg PUBLIC "-//W3C//DTD SVG 1.1//EN" "http://www.w3.org/Graphics/SVG/1.1/DTD/svg11.dtd"><svg xmlns="http://www.w3.org/2000/svg" version="1.1" width="114.1px" height="16.4px" viewBox="0 -3 114.1 16.4" style="top:-3px">  <desc>www.dswconsulting.co.uk</desc>  <defs/>  <g id="Polygon18511">    <path d="M 0.9 2.9 L 2 6.7 L 2 6.7 L 3.3 2.9 L 3.9 2.9 L 5.2 6.7 L 5.2 6.7 L 6.3 2.9 L 7.1 2.9 L 5.6 7.6 L 4.9 7.6 L 3.6 3.7 L 3.6 3.7 L 2.4 7.6 L 1.6 7.6 L 0.1 2.9 L 0.9 2.9 Z M 8.1 2.9 L 9.2 6.7 L 9.2 6.7 L 10.5 2.9 L 11.2 2.9 L 12.4 6.7 L 12.4 6.7 L 13.5 2.9 L 14.3 2.9 L 12.8 7.6 L 12.1 7.6 L 10.8 3.7 L 10.8 3.7 L 9.6 7.6 L 8.8 7.6 L 7.4 2.9 L 8.1 2.9 Z M 15.4 2.9 L 16.4 6.7 L 16.5 6.7 L 17.7 2.9 L 18.4 2.9 L 19.6 6.7 L 19.7 6.7 L 20.7 2.9 L 21.5 2.9 L 20 7.6 L 19.3 7.6 L 18.1 3.7 L 18 3.7 L 16.8 7.6 L 16.1 7.6 L 14.6 2.9 L 15.4 2.9 Z M 22.5 7.6 C 22.2 7.6 22 7.4 22 7.1 C 22 6.8 22.2 6.5 22.5 6.5 C 22.8 6.5 23 6.8 23 7.1 C 23 7.4 22.8 7.6 22.5 7.6 Z M 29.3 7.6 L 28.6 7.6 L 28.6 6.8 C 28.6 6.8 28.6 6.78 28.6 6.8 C 28.2 7.4 27.4 7.7 26.8 7.7 C 25.3 7.7 24.3 6.6 24.3 5.2 C 24.3 3.8 25.3 2.8 26.8 2.8 C 27.4 2.8 28.2 3 28.6 3.7 C 28.6 3.66 28.6 3.7 28.6 3.7 L 28.6 0 L 29.3 0 L 29.3 7.6 Z M 26.8 7.1 C 27.9 7.1 28.7 6.3 28.7 5.2 C 28.7 4.2 27.9 3.4 26.8 3.4 C 25.7 3.4 25 4.2 25 5.2 C 25 6.3 25.7 7.1 26.8 7.1 Z M 33.2 4 C 33 3.6 32.7 3.4 32.2 3.4 C 31.7 3.4 31.2 3.6 31.2 4.1 C 31.2 4.5 31.5 4.7 32.1 4.8 C 32.1 4.8 32.8 5 32.8 5 C 33.5 5.1 33.9 5.6 33.9 6.2 C 33.9 7.3 33 7.7 32.1 7.7 C 31.4 7.7 30.8 7.4 30.3 6.8 C 30.3 6.8 30.9 6.4 30.9 6.4 C 31.2 6.8 31.6 7.1 32.1 7.1 C 32.7 7.1 33.2 6.8 33.2 6.3 C 33.2 5.8 32.8 5.7 32.3 5.6 C 32.3 5.6 31.7 5.4 31.7 5.4 C 31.4 5.3 30.5 5.1 30.5 4.2 C 30.5 3.2 31.3 2.8 32.2 2.8 C 32.9 2.8 33.5 3 33.8 3.6 C 33.8 3.6 33.2 4 33.2 4 Z M 35.2 2.9 L 36.3 6.7 L 36.3 6.7 L 37.5 2.9 L 38.2 2.9 L 39.5 6.7 L 39.5 6.7 L 40.6 2.9 L 41.3 2.9 L 39.9 7.6 L 39.1 7.6 L 37.9 3.7 L 37.9 3.7 L 36.6 7.6 L 35.9 7.6 L 34.4 2.9 L 35.2 2.9 Z M 45.6 4 C 45.4 3.6 45 3.4 44.4 3.4 C 43.3 3.3 42.7 4.1 42.7 5.2 C 42.7 6.3 43.3 7.1 44.4 7.1 C 45 7.1 45.4 6.8 45.6 6.5 C 45.6 6.5 46.1 6.9 46.1 6.9 C 45.7 7.4 45.1 7.7 44.4 7.7 C 42.9 7.7 42 6.6 42 5.2 C 42 3.8 42.9 2.7 44.4 2.8 C 45.1 2.8 45.7 3 46.1 3.6 C 46.1 3.6 45.6 4 45.6 4 Z M 49.3 7.7 C 47.8 7.7 46.8 6.6 46.8 5.2 C 46.8 3.8 47.8 2.8 49.3 2.8 C 50.7 2.8 51.7 3.8 51.7 5.2 C 51.7 6.6 50.7 7.7 49.3 7.7 Z M 49.3 3.4 C 48.2 3.4 47.5 4.2 47.5 5.2 C 47.5 6.3 48.2 7.1 49.3 7.1 C 50.3 7.1 51 6.3 51 5.2 C 51 4.2 50.3 3.4 49.3 3.4 Z M 53.6 2.9 C 53.6 3.1 53.6 3.4 53.6 3.6 C 53.6 3.6 53.6 3.6 53.6 3.6 C 53.9 3.1 54.6 2.8 55.2 2.8 C 56.4 2.8 57 3.4 57 4.6 C 56.96 4.59 57 7.6 57 7.6 L 56.3 7.6 C 56.3 7.6 56.3 4.97 56.3 5 C 56.3 3.9 56 3.4 55 3.4 C 54.9 3.4 53.6 3.4 53.6 5.2 C 53.61 5.16 53.6 7.6 53.6 7.6 L 52.9 7.6 C 52.9 7.6 52.95 3.91 52.9 3.9 C 52.9 3.7 52.9 3.2 52.9 2.9 C 52.9 2.9 53.6 2.9 53.6 2.9 Z M 61 4 C 60.8 3.6 60.5 3.4 60 3.4 C 59.5 3.4 59 3.6 59 4.1 C 59 4.5 59.3 4.7 59.9 4.8 C 59.9 4.8 60.6 5 60.6 5 C 61.2 5.1 61.7 5.6 61.7 6.2 C 61.7 7.3 60.8 7.7 59.9 7.7 C 59.2 7.7 58.6 7.4 58.1 6.8 C 58.1 6.8 58.7 6.4 58.7 6.4 C 59 6.8 59.4 7.1 59.9 7.1 C 60.5 7.1 61 6.8 61 6.3 C 61 5.8 60.6 5.7 60.1 5.6 C 60.1 5.6 59.5 5.4 59.5 5.4 C 59.2 5.3 58.3 5.1 58.3 4.2 C 58.3 3.2 59.1 2.8 60 2.8 C 60.7 2.8 61.3 3 61.6 3.6 C 61.6 3.6 61 4 61 4 Z M 66.1 7.6 C 66.1 7.3 66.1 7.1 66.1 6.8 C 66.1 6.8 66.1 6.8 66.1 6.8 C 65.8 7.3 65.1 7.7 64.5 7.7 C 63.3 7.7 62.8 7 62.8 5.9 C 62.77 5.85 62.8 2.9 62.8 2.9 L 63.4 2.9 C 63.4 2.9 63.43 5.47 63.4 5.5 C 63.4 6.5 63.7 7.1 64.7 7.1 C 64.8 7.1 66.1 7 66.1 5.3 C 66.12 5.28 66.1 2.9 66.1 2.9 L 66.8 2.9 C 66.8 2.9 66.78 6.53 66.8 6.5 C 66.8 6.8 66.8 7.2 66.8 7.6 C 66.8 7.6 66.1 7.6 66.1 7.6 Z M 69.1 7.6 L 68.5 7.6 L 68.5 0 L 69.1 0 L 69.1 7.6 Z M 73.1 3.5 L 71.8 3.5 C 71.8 3.5 71.8 6.24 71.8 6.2 C 71.8 6.9 72.1 7.1 72.5 7.1 C 72.7 7.1 73 7 73.2 6.9 C 73.2 6.9 73.2 7.5 73.2 7.5 C 72.9 7.6 72.6 7.7 72.3 7.7 C 71.8 7.7 71.1 7.5 71.1 6.4 C 71.14 6.43 71.1 3.5 71.1 3.5 L 70.1 3.5 L 70.1 2.9 L 71.1 2.9 L 71.1 1.6 L 71.8 1.6 L 71.8 2.9 L 73.1 2.9 L 73.1 3.5 Z M 74.9 7.6 L 74.2 7.6 L 74.2 2.9 L 74.9 2.9 L 74.9 7.6 Z M 74.5 1.6 C 74.3 1.6 74 1.4 74 1.1 C 74 0.8 74.3 0.6 74.5 0.6 C 74.8 0.6 75 0.8 75 1.1 C 75 1.4 74.8 1.6 74.5 1.6 Z M 77.1 2.9 C 77.1 3.1 77.1 3.4 77.1 3.6 C 77.1 3.6 77.1 3.6 77.1 3.6 C 77.4 3.1 78.1 2.8 78.7 2.8 C 79.9 2.8 80.5 3.4 80.5 4.6 C 80.46 4.59 80.5 7.6 80.5 7.6 L 79.8 7.6 C 79.8 7.6 79.8 4.97 79.8 5 C 79.8 3.9 79.5 3.4 78.5 3.4 C 78.4 3.4 77.1 3.4 77.1 5.2 C 77.11 5.16 77.1 7.6 77.1 7.6 L 76.4 7.6 C 76.4 7.6 76.45 3.91 76.4 3.9 C 76.4 3.7 76.4 3.2 76.4 2.9 C 76.4 2.9 77.1 2.9 77.1 2.9 Z M 82.4 8.5 C 82.8 9 83.4 9.4 84.2 9.4 C 85.5 9.4 86 8.5 86 7.5 C 85.98 7.52 86 6.7 86 6.7 C 86 6.7 85.96 6.68 86 6.7 C 85.5 7.3 84.9 7.6 84.2 7.6 C 82.9 7.6 81.8 6.6 81.8 5.2 C 81.8 3.8 82.8 2.8 84.1 2.8 C 84.7 2.8 85.4 2.9 86 3.7 C 85.96 3.66 86 3.7 86 3.7 L 86 2.9 L 86.6 2.9 C 86.6 2.9 86.64 7.52 86.6 7.5 C 86.6 8.5 86.2 10 84.1 10 C 83.2 10 82.5 9.7 81.9 9 C 81.9 9 82.4 8.5 82.4 8.5 Z M 84.2 7 C 85.2 7 86 6.2 86 5.2 C 86 4.2 85.3 3.4 84.2 3.4 C 83.2 3.4 82.5 4.2 82.5 5.2 C 82.5 6.1 83.2 7 84.2 7 Z M 88.8 7.6 C 88.5 7.6 88.2 7.4 88.2 7.1 C 88.2 6.8 88.5 6.5 88.8 6.5 C 89.1 6.5 89.3 6.8 89.3 7.1 C 89.3 7.4 89.1 7.6 88.8 7.6 Z M 94.3 4 C 94.1 3.6 93.7 3.4 93.1 3.4 C 92 3.3 91.4 4.1 91.4 5.2 C 91.4 6.3 92 7.1 93.1 7.1 C 93.7 7.1 94.1 6.8 94.3 6.5 C 94.3 6.5 94.8 6.9 94.8 6.9 C 94.4 7.4 93.8 7.7 93.1 7.7 C 91.6 7.7 90.7 6.6 90.7 5.2 C 90.7 3.8 91.6 2.7 93.1 2.8 C 93.8 2.8 94.4 3 94.8 3.6 C 94.8 3.6 94.3 4 94.3 4 Z M 98 7.7 C 96.5 7.7 95.5 6.6 95.5 5.2 C 95.5 3.8 96.5 2.8 98 2.8 C 99.4 2.8 100.4 3.8 100.4 5.2 C 100.4 6.6 99.4 7.7 98 7.7 Z M 98 3.4 C 96.9 3.4 96.2 4.2 96.2 5.2 C 96.2 6.3 96.9 7.1 98 7.1 C 99 7.1 99.7 6.3 99.7 5.2 C 99.7 4.2 99 3.4 98 3.4 Z M 102.3 7.6 C 102 7.6 101.8 7.4 101.8 7.1 C 101.8 6.8 102 6.5 102.3 6.5 C 102.6 6.5 102.9 6.8 102.9 7.1 C 102.9 7.4 102.6 7.6 102.3 7.6 Z M 107.8 7.6 C 107.8 7.3 107.8 7.1 107.8 6.8 C 107.8 6.8 107.8 6.8 107.8 6.8 C 107.5 7.3 106.8 7.7 106.2 7.7 C 105 7.7 104.4 7 104.4 5.9 C 104.43 5.85 104.4 2.9 104.4 2.9 L 105.1 2.9 C 105.1 2.9 105.09 5.47 105.1 5.5 C 105.1 6.5 105.4 7.1 106.4 7.1 C 106.5 7.1 107.8 7 107.8 5.3 C 107.78 5.28 107.8 2.9 107.8 2.9 L 108.4 2.9 C 108.4 2.9 108.44 6.53 108.4 6.5 C 108.4 6.8 108.5 7.2 108.5 7.6 C 108.5 7.6 107.8 7.6 107.8 7.6 Z M 110.6 5 L 112.9 2.9 L 113.8 2.9 L 111.5 5 L 114.1 7.6 L 113.1 7.6 L 110.6 5.1 L 110.6 7.6 L 110 7.6 L 110 0 L 110.6 0 L 110.6 5 Z " stroke="none" fill="#f28620"/>  </g></svg>