<?xml version="1.0" standalone="no"?><!DOCTYPE svg PUBLIC "-//W3C//DTD SVG 1.1//EN" "http://www.w3.org/Graphics/SVG/1.1/DTD/svg11.dtd"><svg xmlns="http://www.w3.org/2000/svg" version="1.1" width="80px" height="18.9px" viewBox="0 -3 80 18.9" style="top:-3px">  <desc>Contact Us</desc>  <defs/>  <g id="Polygon17677">    <path d="M 6.8 2.6 C 6.2 1.9 5.6 1.7 5 1.7 C 3.2 1.7 2.1 3.1 2.1 4.8 C 2.1 6.6 3.2 7.9 5 7.9 C 5.7 7.9 6.3 7.6 6.9 6.9 C 6.9 6.9 8.1 7.8 8.1 7.8 C 7.4 8.8 6.2 9.3 5 9.3 C 2.4 9.3 0.5 7.5 0.5 4.9 C 0.5 2.1 2.4 0.4 5 0.4 C 6.1 0.4 7.1 0.7 8 1.7 C 8 1.7 6.8 2.6 6.8 2.6 Z M 11.9 3.2 C 13.6 3.2 15 4.4 15 6.2 C 15 8 13.6 9.2 11.9 9.2 C 10.1 9.2 8.7 8 8.7 6.2 C 8.7 4.4 10.1 3.2 11.9 3.2 Z M 11.9 7.9 C 12.9 7.9 13.6 7.1 13.6 6.2 C 13.6 5.3 12.9 4.5 11.9 4.5 C 10.8 4.5 10.2 5.3 10.2 6.2 C 10.2 7.1 10.8 7.9 11.9 7.9 Z M 16.4 3.3 L 17.7 3.3 L 17.7 4.2 C 17.7 4.2 17.75 4.24 17.7 4.2 C 18 3.7 18.6 3.2 19.5 3.2 C 21.1 3.2 21.6 4.3 21.6 5.4 C 21.61 5.44 21.6 9.1 21.6 9.1 L 20.2 9.1 C 20.2 9.1 20.17 6.16 20.2 6.2 C 20.2 5.5 20.1 4.5 19.1 4.5 C 18.2 4.5 17.8 5.2 17.8 5.9 C 17.8 5.93 17.8 9.1 17.8 9.1 L 16.4 9.1 L 16.4 3.3 Z M 22.6 4.5 L 22.6 3.3 L 23.8 3.3 L 23.8 1.6 L 25.2 1.6 L 25.2 3.3 L 26.8 3.3 L 26.8 4.5 L 25.2 4.5 C 25.2 4.5 25.2 7.06 25.2 7.1 C 25.2 7.6 25.4 8 26 8 C 26.3 8 26.6 7.9 26.8 7.8 C 26.8 7.8 26.8 9 26.8 9 C 26.5 9.2 26 9.2 25.6 9.2 C 24.1 9.2 23.8 8.5 23.8 7.2 C 23.76 7.18 23.8 4.5 23.8 4.5 L 22.6 4.5 Z M 31.5 8.3 C 31.5 8.3 31.48 8.28 31.5 8.3 C 31.1 8.9 30.4 9.2 29.6 9.2 C 28.6 9.2 27.5 8.6 27.5 7.5 C 27.5 5.6 29.7 5.5 31.2 5.5 C 31.15 5.48 31.5 5.5 31.5 5.5 C 31.5 5.5 31.51 5.33 31.5 5.3 C 31.5 4.6 31 4.2 30.2 4.2 C 29.6 4.2 29 4.5 28.7 4.8 C 28.7 4.8 27.9 4.1 27.9 4.1 C 28.5 3.4 29.4 3.2 30.3 3.2 C 32.8 3.2 32.8 4.9 32.8 5.8 C 32.81 5.76 32.8 9.1 32.8 9.1 L 31.5 9.1 L 31.5 8.3 Z M 31.4 6.5 C 31.4 6.5 31.13 6.49 31.1 6.5 C 30.3 6.5 29 6.6 29 7.4 C 29 7.9 29.5 8.1 30 8.1 C 31 8.1 31.4 7.6 31.4 6.8 C 31.43 6.82 31.4 6.5 31.4 6.5 Z M 38.3 5 C 38 4.7 37.6 4.5 37.2 4.5 C 36.1 4.5 35.5 5.3 35.5 6.2 C 35.5 7.1 36.1 7.9 37.2 7.9 C 37.6 7.9 38.1 7.7 38.3 7.4 C 38.3 7.4 39.3 8.4 39.3 8.4 C 38.7 9 37.7 9.2 37.2 9.2 C 35.5 9.2 34.1 8 34.1 6.2 C 34.1 4.4 35.5 3.2 37.2 3.2 C 37.9 3.2 38.7 3.4 39.3 4 C 39.3 4 38.3 5 38.3 5 Z M 39.5 4.5 L 39.5 3.3 L 40.7 3.3 L 40.7 1.6 L 42.1 1.6 L 42.1 3.3 L 43.7 3.3 L 43.7 4.5 L 42.1 4.5 C 42.1 4.5 42.09 7.06 42.1 7.1 C 42.1 7.6 42.3 8 42.9 8 C 43.2 8 43.5 7.9 43.7 7.8 C 43.7 7.8 43.7 9 43.7 9 C 43.4 9.2 42.9 9.2 42.5 9.2 C 41 9.2 40.7 8.5 40.7 7.2 C 40.66 7.18 40.7 4.5 40.7 4.5 L 39.5 4.5 Z M 55.3 6 C 55.3 8 53.8 9.3 51.9 9.3 C 49.9 9.3 48.5 8 48.5 6 C 48.46 5.95 48.5 0.6 48.5 0.6 L 50 0.6 C 50 0.6 49.97 5.9 50 5.9 C 50 6.7 50.4 7.8 51.9 7.8 C 53.3 7.8 53.8 6.7 53.8 5.9 C 53.78 5.9 53.8 0.6 53.8 0.6 L 55.3 0.6 C 55.3 0.6 55.29 5.95 55.3 6 Z M 60.1 4.9 C 59.8 4.5 59.5 4.3 59 4.3 C 58.6 4.3 58.1 4.5 58.1 4.9 C 58.1 6 61.2 5.1 61.2 7.4 C 61.2 8.7 59.9 9.2 58.8 9.2 C 57.9 9.2 57.1 9 56.5 8.3 C 56.5 8.3 57.5 7.4 57.5 7.4 C 57.8 7.8 58.2 8.1 58.8 8.1 C 59.3 8.1 59.8 7.9 59.8 7.5 C 59.8 6.3 56.7 7.2 56.7 5 C 56.7 3.7 57.8 3.2 59 3.2 C 59.8 3.2 60.6 3.4 61.1 4 C 61.1 4 60.1 4.9 60.1 4.9 Z " stroke="none" fill="#253885"/>  </g></svg>