<?xml version="1.0" standalone="no"?><!DOCTYPE svg PUBLIC "-//W3C//DTD SVG 1.1//EN" "http://www.w3.org/Graphics/SVG/1.1/DTD/svg11.dtd"><svg xmlns="http://www.w3.org/2000/svg" version="1.1" width="83.1px" height="28.4px" viewBox="0 -3 83.1 28.4" style="top:-3px">  <desc>Financial Services Training</desc>  <defs/>  <g id="Polygon16889">    <path d="M 6.7 14 C 6.4 13.6 6 13.4 5.5 13.4 C 4.9 13.4 4.3 13.7 4.3 14.3 C 4.3 15.8 7.7 15 7.7 17.5 C 7.7 19 6.5 19.7 5.1 19.7 C 4.2 19.7 3.3 19.5 2.8 18.8 C 2.8 18.8 3.7 17.9 3.7 17.9 C 4 18.3 4.5 18.6 5.1 18.6 C 5.7 18.6 6.3 18.3 6.3 17.6 C 6.3 16.1 3 17 3 14.4 C 3 13 4.3 12.3 5.6 12.3 C 6.3 12.3 7.1 12.5 7.6 13 C 7.6 13 6.7 14 6.7 14 Z M 9.8 17.6 C 9.9 18.3 10.4 18.7 11.1 18.7 C 11.7 18.7 12.1 18.4 12.4 18.1 C 12.4 18.1 13.3 18.7 13.3 18.7 C 12.7 19.4 12 19.7 11.2 19.7 C 9.8 19.7 8.6 18.7 8.6 17.2 C 8.6 15.6 9.8 14.6 11.2 14.6 C 12.6 14.6 13.5 15.6 13.5 17.2 C 13.48 17.25 13.5 17.6 13.5 17.6 C 13.5 17.6 9.82 17.58 9.8 17.6 Z M 12.3 16.7 C 12.3 16 11.8 15.5 11.1 15.5 C 10.4 15.5 9.9 16 9.8 16.7 C 9.8 16.7 12.3 16.7 12.3 16.7 Z M 14.6 14.8 L 15.8 14.8 L 15.8 15.5 C 15.8 15.5 15.82 15.52 15.8 15.5 C 16.1 15 16.6 14.6 17.2 14.6 C 17.4 14.6 17.5 14.7 17.7 14.7 C 17.7 14.7 17.7 15.9 17.7 15.9 C 17.5 15.8 17.3 15.8 17.1 15.8 C 16 15.8 15.8 16.7 15.8 17 C 15.8 16.99 15.8 19.6 15.8 19.6 L 14.6 19.6 L 14.6 14.8 Z M 17.8 14.8 L 19.2 14.8 L 20.4 18.1 L 20.5 18.1 L 21.7 14.8 L 23 14.8 L 21.1 19.6 L 19.8 19.6 L 17.8 14.8 Z M 23.7 14.8 L 24.9 14.8 L 24.9 19.6 L 23.7 19.6 L 23.7 14.8 Z M 24.3 12.4 C 24.7 12.4 25.1 12.7 25.1 13.1 C 25.1 13.5 24.7 13.8 24.3 13.8 C 23.9 13.8 23.5 13.5 23.5 13.1 C 23.5 12.8 23.9 12.4 24.3 12.4 Z M 29.6 16.2 C 29.3 15.9 29 15.7 28.7 15.7 C 27.8 15.7 27.2 16.4 27.2 17.2 C 27.2 17.9 27.8 18.6 28.7 18.6 C 29 18.6 29.4 18.4 29.6 18.2 C 29.6 18.2 30.4 19 30.4 19 C 29.9 19.5 29.1 19.7 28.7 19.7 C 27.2 19.7 26 18.7 26 17.2 C 26 15.6 27.2 14.6 28.7 14.6 C 29.3 14.6 29.9 14.9 30.4 15.4 C 30.4 15.4 29.6 16.2 29.6 16.2 Z M 32.1 17.6 C 32.1 18.3 32.7 18.7 33.4 18.7 C 34 18.7 34.3 18.4 34.6 18.1 C 34.6 18.1 35.5 18.7 35.5 18.7 C 34.9 19.4 34.2 19.7 33.5 19.7 C 32 19.7 30.9 18.7 30.9 17.2 C 30.9 15.6 32 14.6 33.5 14.6 C 34.8 14.6 35.7 15.6 35.7 17.2 C 35.72 17.25 35.7 17.6 35.7 17.6 C 35.7 17.6 32.06 17.58 32.1 17.6 Z M 34.5 16.7 C 34.5 16 34.1 15.5 33.3 15.5 C 32.6 15.5 32.2 16 32.1 16.7 C 32.1 16.7 34.5 16.7 34.5 16.7 Z M 39.4 16.1 C 39.2 15.8 38.9 15.6 38.5 15.6 C 38.1 15.6 37.8 15.8 37.8 16.1 C 37.8 17 40.4 16.3 40.4 18.1 C 40.4 19.3 39.3 19.7 38.3 19.7 C 37.5 19.7 36.9 19.5 36.4 18.9 C 36.4 18.9 37.2 18.2 37.2 18.2 C 37.5 18.5 37.8 18.8 38.4 18.8 C 38.7 18.8 39.2 18.6 39.2 18.2 C 39.2 17.2 36.6 18 36.6 16.2 C 36.6 15.1 37.5 14.6 38.5 14.6 C 39.1 14.6 39.8 14.8 40.2 15.4 C 40.2 15.4 39.4 16.1 39.4 16.1 Z M 45.8 13.6 L 43.6 13.6 L 43.6 12.5 L 49.2 12.5 L 49.2 13.6 L 47.1 13.6 L 47.1 19.6 L 45.8 19.6 L 45.8 13.6 Z M 49.1 14.8 L 50.3 14.8 L 50.3 15.5 C 50.3 15.5 50.28 15.52 50.3 15.5 C 50.5 15 51.1 14.6 51.7 14.6 C 51.8 14.6 52 14.7 52.1 14.7 C 52.1 14.7 52.1 15.9 52.1 15.9 C 51.9 15.8 51.7 15.8 51.5 15.8 C 50.4 15.8 50.3 16.7 50.3 17 C 50.26 16.99 50.3 19.6 50.3 19.6 L 49.1 19.6 L 49.1 14.8 Z M 56 18.9 C 56 18.9 55.92 18.9 55.9 18.9 C 55.6 19.4 55 19.7 54.4 19.7 C 53.5 19.7 52.6 19.2 52.6 18.2 C 52.6 16.7 54.5 16.6 55.7 16.6 C 55.65 16.57 56 16.6 56 16.6 C 56 16.6 55.95 16.44 56 16.4 C 56 15.8 55.5 15.5 54.9 15.5 C 54.4 15.5 53.9 15.7 53.6 16 C 53.6 16 52.9 15.4 52.9 15.4 C 53.5 14.9 54.2 14.6 55 14.6 C 57 14.6 57 16.1 57 16.8 C 57.03 16.8 57 19.6 57 19.6 L 56 19.6 L 56 18.9 Z M 55.9 17.4 C 55.9 17.4 55.63 17.41 55.6 17.4 C 55 17.4 53.8 17.5 53.8 18.2 C 53.8 18.6 54.3 18.8 54.7 18.8 C 55.5 18.8 55.9 18.4 55.9 17.7 C 55.88 17.68 55.9 17.4 55.9 17.4 Z M 58.3 14.8 L 59.5 14.8 L 59.5 19.6 L 58.3 19.6 L 58.3 14.8 Z M 58.9 12.4 C 59.4 12.4 59.7 12.7 59.7 13.1 C 59.7 13.5 59.4 13.8 58.9 13.8 C 58.5 13.8 58.2 13.5 58.2 13.1 C 58.2 12.8 58.5 12.4 58.9 12.4 Z M 60.9 14.8 L 62.1 14.8 L 62.1 15.5 C 62.1 15.5 62.08 15.53 62.1 15.5 C 62.3 15.1 62.7 14.6 63.6 14.6 C 64.8 14.6 65.3 15.5 65.3 16.5 C 65.3 16.53 65.3 19.6 65.3 19.6 L 64.1 19.6 C 64.1 19.6 64.1 17.13 64.1 17.1 C 64.1 16.6 64.1 15.7 63.2 15.7 C 62.4 15.7 62.1 16.3 62.1 16.9 C 62.12 16.94 62.1 19.6 62.1 19.6 L 60.9 19.6 L 60.9 14.8 Z M 66.7 14.8 L 67.9 14.8 L 67.9 19.6 L 66.7 19.6 L 66.7 14.8 Z M 67.3 12.4 C 67.7 12.4 68 12.7 68 13.1 C 68 13.5 67.7 13.8 67.3 13.8 C 66.8 13.8 66.5 13.5 66.5 13.1 C 66.5 12.8 66.8 12.4 67.3 12.4 Z M 69.3 14.8 L 70.4 14.8 L 70.4 15.5 C 70.4 15.5 70.42 15.53 70.4 15.5 C 70.6 15.1 71.1 14.6 71.9 14.6 C 73.2 14.6 73.6 15.5 73.6 16.5 C 73.64 16.53 73.6 19.6 73.6 19.6 L 72.4 19.6 C 72.4 19.6 72.44 17.13 72.4 17.1 C 72.4 16.6 72.4 15.7 71.6 15.7 C 70.8 15.7 70.5 16.3 70.5 16.9 C 70.46 16.94 70.5 19.6 70.5 19.6 L 69.3 19.6 L 69.3 14.8 Z M 79.9 14.8 C 79.9 14.8 79.94 19.13 79.9 19.1 C 79.9 20.9 79.1 22 77.2 22 C 76.3 22 75.5 21.8 74.9 21.2 C 74.9 21.2 75.6 20.2 75.6 20.2 C 76 20.6 76.5 20.9 77.2 20.9 C 78.4 20.9 78.7 20.2 78.7 19.3 C 78.74 19.27 78.7 18.9 78.7 18.9 C 78.7 18.9 78.72 18.92 78.7 18.9 C 78.4 19.4 77.8 19.6 77.1 19.6 C 75.7 19.6 74.8 18.5 74.8 17.2 C 74.8 15.7 75.6 14.6 77.1 14.6 C 77.8 14.6 78.4 14.9 78.8 15.5 C 78.78 15.48 78.8 15.5 78.8 15.5 L 78.8 14.8 L 79.9 14.8 Z M 76 17.1 C 76 17.9 76.6 18.5 77.4 18.5 C 78.3 18.5 78.8 17.9 78.8 17.1 C 78.8 16.3 78.3 15.7 77.4 15.7 C 76.5 15.7 76 16.3 76 17.1 Z " stroke="none" fill="#fff"/>  </g>  <g id="Polygon16888">    <path d="M 22 0.5 L 26.6 0.5 L 26.6 1.6 L 23.3 1.6 L 23.3 3.5 L 26.4 3.5 L 26.4 4.6 L 23.3 4.6 L 23.3 7.6 L 22 7.6 L 22 0.5 Z M 27.7 2.8 L 28.9 2.8 L 28.9 7.6 L 27.7 7.6 L 27.7 2.8 Z M 28.3 0.4 C 28.7 0.4 29.1 0.7 29.1 1.1 C 29.1 1.5 28.7 1.8 28.3 1.8 C 27.8 1.8 27.5 1.5 27.5 1.1 C 27.5 0.8 27.8 0.4 28.3 0.4 Z M 30.3 2.8 L 31.4 2.8 L 31.4 3.5 C 31.4 3.5 31.42 3.53 31.4 3.5 C 31.6 3.1 32.1 2.6 32.9 2.6 C 34.2 2.6 34.6 3.5 34.6 4.5 C 34.64 4.53 34.6 7.6 34.6 7.6 L 33.4 7.6 C 33.4 7.6 33.44 5.13 33.4 5.1 C 33.4 4.6 33.4 3.7 32.6 3.7 C 31.8 3.7 31.5 4.3 31.5 4.9 C 31.46 4.94 31.5 7.6 31.5 7.6 L 30.3 7.6 L 30.3 2.8 Z M 39 6.9 C 39 6.9 38.97 6.9 39 6.9 C 38.6 7.4 38.1 7.7 37.4 7.7 C 36.5 7.7 35.7 7.2 35.7 6.2 C 35.7 4.7 37.5 4.6 38.7 4.6 C 38.7 4.57 39 4.6 39 4.6 C 39 4.6 39 4.44 39 4.4 C 39 3.8 38.5 3.5 37.9 3.5 C 37.4 3.5 36.9 3.7 36.6 4 C 36.6 4 36 3.4 36 3.4 C 36.5 2.9 37.3 2.6 38 2.6 C 40.1 2.6 40.1 4.1 40.1 4.8 C 40.08 4.8 40.1 7.6 40.1 7.6 L 39 7.6 L 39 6.9 Z M 38.9 5.4 C 38.9 5.4 38.68 5.41 38.7 5.4 C 38 5.4 36.9 5.5 36.9 6.2 C 36.9 6.6 37.3 6.8 37.7 6.8 C 38.5 6.8 38.9 6.4 38.9 5.7 C 38.93 5.68 38.9 5.4 38.9 5.4 Z M 41.4 2.8 L 42.5 2.8 L 42.5 3.5 C 42.5 3.5 42.53 3.53 42.5 3.5 C 42.8 3.1 43.2 2.6 44 2.6 C 45.3 2.6 45.7 3.5 45.7 4.5 C 45.75 4.53 45.7 7.6 45.7 7.6 L 44.6 7.6 C 44.6 7.6 44.55 5.13 44.6 5.1 C 44.6 4.6 44.5 3.7 43.7 3.7 C 42.9 3.7 42.6 4.3 42.6 4.9 C 42.57 4.94 42.6 7.6 42.6 7.6 L 41.4 7.6 L 41.4 2.8 Z M 50.4 4.2 C 50.1 3.9 49.8 3.7 49.5 3.7 C 48.6 3.7 48.1 4.4 48.1 5.2 C 48.1 5.9 48.6 6.6 49.5 6.6 C 49.8 6.6 50.2 6.4 50.4 6.2 C 50.4 6.2 51.2 7 51.2 7 C 50.7 7.5 49.9 7.7 49.5 7.7 C 48 7.7 46.9 6.7 46.9 5.2 C 46.9 3.6 48 2.6 49.5 2.6 C 50.1 2.6 50.8 2.9 51.2 3.4 C 51.2 3.4 50.4 4.2 50.4 4.2 Z M 52 2.8 L 53.1 2.8 L 53.1 7.6 L 52 7.6 L 52 2.8 Z M 52.5 0.4 C 53 0.4 53.3 0.7 53.3 1.1 C 53.3 1.5 53 1.8 52.5 1.8 C 52.1 1.8 51.8 1.5 51.8 1.1 C 51.8 0.8 52.1 0.4 52.5 0.4 Z M 57.5 6.9 C 57.5 6.9 57.5 6.9 57.5 6.9 C 57.2 7.4 56.6 7.7 56 7.7 C 55.1 7.7 54.2 7.2 54.2 6.2 C 54.2 4.7 56 4.6 57.2 4.6 C 57.23 4.57 57.5 4.6 57.5 4.6 C 57.5 4.6 57.53 4.44 57.5 4.4 C 57.5 3.8 57.1 3.5 56.4 3.5 C 55.9 3.5 55.5 3.7 55.1 4 C 55.1 4 54.5 3.4 54.5 3.4 C 55.1 2.9 55.8 2.6 56.6 2.6 C 58.6 2.6 58.6 4.1 58.6 4.8 C 58.61 4.8 58.6 7.6 58.6 7.6 L 57.5 7.6 L 57.5 6.9 Z M 57.5 5.4 C 57.5 5.4 57.21 5.41 57.2 5.4 C 56.6 5.4 55.4 5.5 55.4 6.2 C 55.4 6.6 55.9 6.8 56.3 6.8 C 57.1 6.8 57.5 6.4 57.5 5.7 C 57.46 5.68 57.5 5.4 57.5 5.4 Z M 59.9 0 L 61.1 0 L 61.1 7.6 L 59.9 7.6 L 59.9 0 Z " stroke="none" fill="#fff"/>  </g></svg>