<?xml version="1.0" standalone="no"?><!DOCTYPE svg PUBLIC "-//W3C//DTD SVG 1.1//EN" "http://www.w3.org/Graphics/SVG/1.1/DTD/svg11.dtd"><svg xmlns="http://www.w3.org/2000/svg" version="1.1" width="169.5px" height="16.4px" viewBox="0 -3 169.5 16.4" style="top:-3px">  <desc>on demand, poised and ready to help</desc>  <defs/>  <g id="Polygon16330">    <path d="M 2.9 7.7 C 1.5 7.7 0.6 6.6 0.8 5.2 C 1 3.8 2.2 2.8 3.6 2.8 C 5.1 2.8 6 3.8 5.8 5.2 C 5.6 6.6 4.4 7.7 2.9 7.7 Z M 3.5 3.4 C 2.5 3.4 1.7 4.2 1.5 5.2 C 1.4 6.3 2 7.1 3 7.1 C 4.1 7.1 4.9 6.3 5.1 5.2 C 5.2 4.2 4.6 3.4 3.5 3.4 Z M 7.9 2.9 C 7.9 3.1 7.9 3.4 7.9 3.6 C 7.9 3.6 7.9 3.6 7.9 3.6 C 8.2 3.1 8.9 2.8 9.6 2.8 C 10.8 2.8 11.2 3.4 11.1 4.6 C 11.08 4.59 10.7 7.6 10.7 7.6 L 10 7.6 C 10 7.6 10.36 4.97 10.4 5 C 10.5 3.9 10.3 3.4 9.3 3.4 C 9.2 3.4 7.9 3.4 7.6 5.2 C 7.65 5.16 7.3 7.6 7.3 7.6 L 6.7 7.6 C 6.7 7.6 7.16 3.91 7.2 3.9 C 7.2 3.7 7.2 3.2 7.3 2.9 C 7.3 2.9 7.9 2.9 7.9 2.9 Z M 14.7 5.5 L 12.2 5.5 L 12.3 4.8 L 14.8 4.8 L 14.7 5.5 Z M 20.2 7.6 L 19.5 7.6 L 19.7 6.8 C 19.7 6.8 19.64 6.78 19.6 6.8 C 19.1 7.4 18.3 7.7 17.7 7.7 C 16.2 7.7 15.4 6.6 15.6 5.2 C 15.8 3.8 16.9 2.8 18.4 2.8 C 19 2.8 19.7 3 20.1 3.7 C 20.08 3.66 20.1 3.7 20.1 3.7 L 20.6 0 L 21.3 0 L 20.2 7.6 Z M 17.8 7.1 C 18.9 7.1 19.8 6.3 19.9 5.2 C 20.1 4.2 19.4 3.4 18.3 3.4 C 17.2 3.4 16.4 4.2 16.3 5.2 C 16.1 6.3 16.7 7.1 17.8 7.1 Z M 22.4 5.4 C 22.4 6.3 23 7.1 23.9 7.1 C 24.6 7.1 25.2 6.7 25.5 6.3 C 25.5 6.3 26 6.7 26 6.7 C 25.3 7.4 24.6 7.7 23.8 7.7 C 22.4 7.7 21.5 6.6 21.7 5.2 C 21.9 3.8 23.1 2.8 24.4 2.8 C 25.9 2.8 26.5 3.8 26.4 5.1 C 26.36 5.1 26.3 5.4 26.3 5.4 C 26.3 5.4 22.41 5.4 22.4 5.4 Z M 25.7 4.9 C 25.8 4 25.3 3.4 24.4 3.4 C 23.5 3.4 22.6 4.1 22.5 4.9 C 22.5 4.9 25.7 4.9 25.7 4.9 Z M 27.7 3.9 C 27.8 3.6 27.8 3.2 27.8 2.9 C 27.82 2.88 28.5 2.9 28.5 2.9 L 28.4 3.6 C 28.4 3.6 28.45 3.59 28.4 3.6 C 28.8 3 29.5 2.8 30.1 2.8 C 30.6 2.8 31.2 2.9 31.4 3.7 C 31.8 3.1 32.5 2.8 33.1 2.8 C 34.3 2.8 34.8 3.4 34.6 4.6 C 34.61 4.59 34.2 7.6 34.2 7.6 L 33.5 7.6 C 33.5 7.6 33.91 4.83 33.9 4.8 C 34.1 3.9 33.9 3.4 32.9 3.4 C 32 3.4 31.5 4.2 31.4 5.1 C 31.38 5.07 31 7.6 31 7.6 L 30.4 7.6 C 30.4 7.6 30.75 4.83 30.8 4.8 C 30.9 3.9 30.7 3.4 29.8 3.4 C 29.6 3.4 28.4 3.4 28.2 5.2 C 28.21 5.16 27.9 7.6 27.9 7.6 L 27.2 7.6 C 27.2 7.6 27.72 3.92 27.7 3.9 Z M 39.1 4.7 C 39.1 4.7 39.15 4.57 39.1 4.6 C 39.3 3.8 38.9 3.4 38.1 3.4 C 37.6 3.4 37.1 3.5 36.6 3.9 C 36.6 3.9 36.3 3.4 36.3 3.4 C 36.8 3 37.5 2.8 38.4 2.8 C 39.3 2.8 40 3.3 39.8 4.4 C 39.8 4.4 39.5 6.5 39.5 6.5 C 39.5 6.9 39.5 7.3 39.5 7.6 C 39.5 7.6 38.8 7.6 38.8 7.6 C 38.8 7.3 38.8 7 38.9 6.8 C 38.9 6.8 38.9 6.8 38.9 6.8 C 38.4 7.4 37.8 7.7 37.1 7.7 C 36.3 7.7 35.5 7.2 35.7 6.3 C 35.9 4.8 37.7 4.7 38.8 4.7 C 38.8 4.69 39.1 4.7 39.1 4.7 Z M 38.7 5.2 C 38.1 5.2 36.5 5.3 36.4 6.2 C 36.3 6.8 36.9 7.1 37.4 7.1 C 38.3 7.1 38.9 6.4 39 5.6 C 39.01 5.57 39.1 5.2 39.1 5.2 C 39.1 5.2 38.72 5.23 38.7 5.2 Z M 42.2 2.9 C 42.2 3.1 42.2 3.4 42.1 3.6 C 42.1 3.6 42.1 3.6 42.1 3.6 C 42.5 3.1 43.2 2.8 43.8 2.8 C 45 2.8 45.5 3.4 45.3 4.6 C 45.35 4.59 44.9 7.6 44.9 7.6 L 44.3 7.6 C 44.3 7.6 44.63 4.97 44.6 5 C 44.8 3.9 44.6 3.4 43.6 3.4 C 43.4 3.4 42.2 3.4 41.9 5.2 C 41.92 5.16 41.6 7.6 41.6 7.6 L 40.9 7.6 C 40.9 7.6 41.43 3.91 41.4 3.9 C 41.5 3.7 41.5 3.2 41.5 2.9 C 41.5 2.9 42.2 2.9 42.2 2.9 Z M 51.1 7.6 L 50.5 7.6 L 50.6 6.8 C 50.6 6.8 50.58 6.78 50.6 6.8 C 50.1 7.4 49.2 7.7 48.6 7.7 C 47.2 7.7 46.3 6.6 46.5 5.2 C 46.7 3.8 47.9 2.8 49.3 2.8 C 49.9 2.8 50.7 3 51 3.7 C 51.02 3.66 51 3.7 51 3.7 L 51.5 0 L 52.2 0 L 51.1 7.6 Z M 48.7 7.1 C 49.8 7.1 50.7 6.3 50.8 5.2 C 51 4.2 50.3 3.4 49.2 3.4 C 48.1 3.4 47.4 4.2 47.2 5.2 C 47.1 6.3 47.6 7.1 48.7 7.1 Z M 53 9 L 52.3 9 L 53.3 6.6 L 54.1 6.6 L 53 9 Z M 58.8 2.9 L 59.5 2.9 L 59.4 3.7 C 59.4 3.7 59.38 3.66 59.4 3.7 C 59.9 3 60.7 2.8 61.3 2.8 C 62.8 2.8 63.7 3.8 63.5 5.2 C 63.3 6.6 62.1 7.7 60.6 7.7 C 60 7.7 59.3 7.4 58.9 6.8 C 58.94 6.78 58.9 6.8 58.9 6.8 L 58.4 10.4 L 57.8 10.4 L 58.8 2.9 Z M 61.2 3.4 C 60.2 3.4 59.3 4.2 59.1 5.2 C 59 6.3 59.6 7.1 60.7 7.1 C 61.8 7.1 62.6 6.3 62.7 5.2 C 62.9 4.2 62.3 3.4 61.2 3.4 Z M 66.5 7.7 C 65 7.7 64.2 6.6 64.4 5.2 C 64.5 3.8 65.7 2.8 67.2 2.8 C 68.6 2.8 69.5 3.8 69.3 5.2 C 69.1 6.6 67.9 7.7 66.5 7.7 Z M 67.1 3.4 C 66 3.4 65.2 4.2 65.1 5.2 C 64.9 6.3 65.5 7.1 66.6 7.1 C 67.7 7.1 68.4 6.3 68.6 5.2 C 68.7 4.2 68.2 3.4 67.1 3.4 Z M 71 7.6 L 70.3 7.6 L 71 2.9 L 71.7 2.9 L 71 7.6 Z M 71.5 1.6 C 71.3 1.6 71.1 1.4 71.1 1.1 C 71.1 0.8 71.4 0.6 71.6 0.6 C 71.9 0.6 72.1 0.8 72.1 1.1 C 72 1.4 71.7 1.6 71.5 1.6 Z M 75.6 4 C 75.4 3.6 75.1 3.4 74.6 3.4 C 74.2 3.4 73.6 3.6 73.6 4.1 C 73.5 4.5 73.8 4.7 74.4 4.8 C 74.4 4.8 75 5 75 5 C 75.7 5.1 76.1 5.6 76 6.2 C 75.9 7.3 74.9 7.7 74 7.7 C 73.3 7.7 72.7 7.4 72.3 6.8 C 72.3 6.8 72.9 6.4 72.9 6.4 C 73.1 6.8 73.5 7.1 74.1 7.1 C 74.6 7.1 75.2 6.8 75.3 6.3 C 75.3 5.8 75 5.7 74.5 5.6 C 74.5 5.6 73.9 5.4 73.9 5.4 C 73.6 5.3 72.7 5.1 72.8 4.2 C 73 3.2 73.9 2.8 74.8 2.8 C 75.4 2.8 76 3 76.2 3.6 C 76.2 3.6 75.6 4 75.6 4 Z M 77.6 5.4 C 77.6 6.3 78.2 7.1 79.1 7.1 C 79.8 7.1 80.4 6.7 80.7 6.3 C 80.7 6.3 81.2 6.7 81.2 6.7 C 80.5 7.4 79.8 7.7 79 7.7 C 77.6 7.7 76.7 6.6 76.9 5.2 C 77.1 3.8 78.3 2.8 79.6 2.8 C 81.1 2.8 81.7 3.8 81.6 5.1 C 81.56 5.1 81.5 5.4 81.5 5.4 C 81.5 5.4 77.61 5.4 77.6 5.4 Z M 80.9 4.9 C 81 4 80.5 3.4 79.6 3.4 C 78.7 3.4 77.8 4.1 77.7 4.9 C 77.7 4.9 80.9 4.9 80.9 4.9 Z M 87.1 7.6 L 86.4 7.6 L 86.5 6.8 C 86.5 6.8 86.51 6.78 86.5 6.8 C 86 7.4 85.2 7.7 84.6 7.7 C 83.1 7.7 82.2 6.6 82.4 5.2 C 82.6 3.8 83.8 2.8 85.2 2.8 C 85.9 2.8 86.6 3 86.9 3.7 C 86.95 3.66 87 3.7 87 3.7 L 87.5 0 L 88.1 0 L 87.1 7.6 Z M 84.6 7.1 C 85.7 7.1 86.6 6.3 86.8 5.2 C 86.9 4.2 86.2 3.4 85.2 3.4 C 84.1 3.4 83.3 4.2 83.1 5.2 C 83 6.3 83.6 7.1 84.6 7.1 Z M 94.7 4.7 C 94.7 4.7 94.72 4.57 94.7 4.6 C 94.8 3.8 94.5 3.4 93.7 3.4 C 93.1 3.4 92.6 3.5 92.2 3.9 C 92.2 3.9 91.8 3.4 91.8 3.4 C 92.3 3 93 2.8 93.9 2.8 C 94.8 2.8 95.6 3.3 95.4 4.4 C 95.4 4.4 95.1 6.5 95.1 6.5 C 95.1 6.9 95 7.3 95 7.6 C 95 7.6 94.4 7.6 94.4 7.6 C 94.4 7.3 94.4 7 94.4 6.8 C 94.4 6.8 94.4 6.8 94.4 6.8 C 94 7.4 93.4 7.7 92.6 7.7 C 91.8 7.7 91.1 7.2 91.2 6.3 C 91.4 4.8 93.2 4.7 94.4 4.7 C 94.37 4.69 94.7 4.7 94.7 4.7 Z M 94.3 5.2 C 93.6 5.2 92.1 5.3 92 6.2 C 91.9 6.8 92.4 7.1 92.9 7.1 C 93.9 7.1 94.5 6.4 94.6 5.6 C 94.58 5.57 94.6 5.2 94.6 5.2 C 94.6 5.2 94.29 5.23 94.3 5.2 Z M 97.8 2.9 C 97.8 3.1 97.7 3.4 97.7 3.6 C 97.7 3.6 97.7 3.6 97.7 3.6 C 98.1 3.1 98.8 2.8 99.4 2.8 C 100.6 2.8 101.1 3.4 100.9 4.6 C 100.92 4.59 100.5 7.6 100.5 7.6 L 99.8 7.6 C 99.8 7.6 100.2 4.97 100.2 5 C 100.3 3.9 100.1 3.4 99.2 3.4 C 99 3.4 97.7 3.4 97.5 5.2 C 97.49 5.16 97.1 7.6 97.1 7.6 L 96.5 7.6 C 96.5 7.6 97 3.91 97 3.9 C 97 3.7 97.1 3.2 97.1 2.9 C 97.1 2.9 97.8 2.9 97.8 2.9 Z M 106.7 7.6 L 106.1 7.6 L 106.2 6.8 C 106.2 6.8 106.15 6.78 106.1 6.8 C 105.6 7.4 104.8 7.7 104.2 7.7 C 102.7 7.7 101.9 6.6 102.1 5.2 C 102.3 3.8 103.4 2.8 104.9 2.8 C 105.5 2.8 106.2 3 106.6 3.7 C 106.59 3.66 106.6 3.7 106.6 3.7 L 107.1 0 L 107.8 0 L 106.7 7.6 Z M 104.3 7.1 C 105.4 7.1 106.3 6.3 106.4 5.2 C 106.6 4.2 105.9 3.4 104.8 3.4 C 103.7 3.4 102.9 4.2 102.8 5.2 C 102.6 6.3 103.2 7.1 104.3 7.1 Z M 111.5 4.3 C 111.5 3.9 111.5 3.6 111.6 2.9 C 111.63 2.88 112.3 2.9 112.3 2.9 L 112.2 3.7 C 112.2 3.7 112.18 3.75 112.2 3.7 C 112.4 3.2 113 2.8 113.8 2.8 C 114 2.8 114.2 2.8 114.3 2.8 C 114.3 2.8 114.1 3.5 114.1 3.5 C 114 3.4 113.9 3.4 113.7 3.4 C 112.7 3.4 112.1 4.3 112 4.9 C 112.04 4.92 111.7 7.6 111.7 7.6 L 111 7.6 C 111 7.6 111.46 4.34 111.5 4.3 Z M 114.8 5.4 C 114.8 6.3 115.4 7.1 116.3 7.1 C 117 7.1 117.6 6.7 117.9 6.3 C 117.9 6.3 118.4 6.7 118.4 6.7 C 117.7 7.4 117 7.7 116.2 7.7 C 114.8 7.7 114 6.6 114.2 5.2 C 114.4 3.8 115.5 2.8 116.9 2.8 C 118.3 2.8 119 3.8 118.8 5.1 C 118.79 5.1 118.7 5.4 118.7 5.4 C 118.7 5.4 114.84 5.4 114.8 5.4 Z M 118.1 4.9 C 118.2 4 117.7 3.4 116.8 3.4 C 115.9 3.4 115 4.1 114.9 4.9 C 114.9 4.9 118.1 4.9 118.1 4.9 Z M 123 4.7 C 123 4.7 123.06 4.57 123.1 4.6 C 123.2 3.8 122.8 3.4 122 3.4 C 121.5 3.4 121 3.5 120.5 3.9 C 120.5 3.9 120.2 3.4 120.2 3.4 C 120.7 3 121.4 2.8 122.3 2.8 C 123.2 2.8 123.9 3.3 123.7 4.4 C 123.7 4.4 123.4 6.5 123.4 6.5 C 123.4 6.9 123.4 7.3 123.4 7.6 C 123.4 7.6 122.7 7.6 122.7 7.6 C 122.7 7.3 122.7 7 122.8 6.8 C 122.8 6.8 122.8 6.8 122.8 6.8 C 122.3 7.4 121.7 7.7 121 7.7 C 120.2 7.7 119.4 7.2 119.6 6.3 C 119.8 4.8 121.6 4.7 122.7 4.7 C 122.71 4.69 123 4.7 123 4.7 Z M 122.6 5.2 C 122 5.2 120.4 5.3 120.3 6.2 C 120.2 6.8 120.8 7.1 121.3 7.1 C 122.2 7.1 122.8 6.4 122.9 5.6 C 122.92 5.57 123 5.2 123 5.2 C 123 5.2 122.63 5.23 122.6 5.2 Z M 129.5 7.6 L 128.8 7.6 L 128.9 6.8 C 128.9 6.8 128.93 6.78 128.9 6.8 C 128.4 7.4 127.6 7.7 127 7.7 C 125.5 7.7 124.6 6.6 124.8 5.2 C 125 3.8 126.2 2.8 127.7 2.8 C 128.3 2.8 129 3 129.4 3.7 C 129.37 3.66 129.4 3.7 129.4 3.7 L 129.9 0 L 130.6 0 L 129.5 7.6 Z M 127.1 7.1 C 128.1 7.1 129 6.3 129.2 5.2 C 129.3 4.2 128.7 3.4 127.6 3.4 C 126.5 3.4 125.7 4.2 125.6 5.2 C 125.4 6.3 126 7.1 127.1 7.1 Z M 132.8 6.8 L 134.8 2.9 L 135.6 2.9 C 135.6 2.9 132.4 8.78 132.4 8.8 C 132 9.5 131.6 10 130.8 10 C 130.6 10 130.3 9.9 130.2 9.9 C 130.2 9.9 130.3 9.3 130.3 9.3 C 130.5 9.3 130.6 9.4 130.8 9.4 C 131.3 9.4 131.5 9.1 131.8 8.5 C 131.83 8.52 132.3 7.6 132.3 7.6 L 131 2.9 L 131.9 2.9 L 132.8 6.8 Z M 141.5 3.5 L 140.2 3.5 C 140.2 3.5 139.8 6.24 139.8 6.2 C 139.7 6.9 139.9 7.1 140.4 7.1 C 140.6 7.1 140.8 7 141.1 6.9 C 141.1 6.9 141 7.5 141 7.5 C 140.7 7.6 140.4 7.7 140.1 7.7 C 139.6 7.7 139 7.5 139.1 6.4 C 139.11 6.43 139.5 3.5 139.5 3.5 L 138.5 3.5 L 138.6 2.9 L 139.6 2.9 L 139.8 1.6 L 140.4 1.6 L 140.3 2.9 L 141.6 2.9 L 141.5 3.5 Z M 144.1 7.7 C 142.6 7.7 141.7 6.6 141.9 5.2 C 142.1 3.8 143.3 2.8 144.8 2.8 C 146.2 2.8 147.1 3.8 146.9 5.2 C 146.7 6.6 145.5 7.7 144.1 7.7 Z M 144.7 3.4 C 143.6 3.4 142.8 4.2 142.7 5.2 C 142.5 6.3 143.1 7.1 144.2 7.1 C 145.3 7.1 146 6.3 146.2 5.2 C 146.3 4.2 145.8 3.4 144.7 3.4 Z M 151.6 0 L 152.3 0 L 151.8 3.6 C 151.8 3.6 151.8 3.63 151.8 3.6 C 152.2 3.1 152.9 2.8 153.5 2.8 C 154.7 2.8 155.2 3.4 155 4.6 C 155 4.59 154.6 7.6 154.6 7.6 L 153.9 7.6 C 153.9 7.6 154.28 4.97 154.3 5 C 154.4 3.9 154.2 3.4 153.2 3.4 C 153.1 3.4 151.8 3.4 151.6 5.2 C 151.57 5.16 151.2 7.6 151.2 7.6 L 150.6 7.6 L 151.6 0 Z M 156.9 5.4 C 156.8 6.3 157.4 7.1 158.4 7.1 C 159.1 7.1 159.7 6.7 160 6.3 C 160 6.3 160.4 6.7 160.4 6.7 C 159.8 7.4 159.1 7.7 158.3 7.7 C 156.9 7.7 156 6.6 156.2 5.2 C 156.4 3.8 157.6 2.8 158.9 2.8 C 160.3 2.8 161 3.8 160.8 5.1 C 160.84 5.1 160.8 5.4 160.8 5.4 C 160.8 5.4 156.89 5.4 156.9 5.4 Z M 160.1 4.9 C 160.3 4 159.8 3.4 158.8 3.4 C 158 3.4 157.1 4.1 157 4.9 C 157 4.9 160.1 4.9 160.1 4.9 Z M 162.5 7.6 L 161.8 7.6 L 162.9 0 L 163.6 0 L 162.5 7.6 Z M 164.7 2.9 L 165.4 2.9 L 165.3 3.7 C 165.3 3.7 165.32 3.66 165.3 3.7 C 165.8 3 166.6 2.8 167.3 2.8 C 168.7 2.8 169.6 3.8 169.4 5.2 C 169.2 6.6 168 7.7 166.6 7.7 C 165.9 7.7 165.2 7.4 164.9 6.8 C 164.88 6.78 164.9 6.8 164.9 6.8 L 164.3 10.4 L 163.7 10.4 L 164.7 2.9 Z M 167.2 3.4 C 166.1 3.4 165.2 4.2 165 5.2 C 164.9 6.3 165.6 7.1 166.7 7.1 C 167.7 7.1 168.5 6.3 168.7 5.2 C 168.8 4.2 168.3 3.4 167.2 3.4 Z " stroke="none" fill="#fff"/>  </g></svg>