<?xml version="1.0" standalone="no"?><!DOCTYPE svg PUBLIC "-//W3C//DTD SVG 1.1//EN" "http://www.w3.org/Graphics/SVG/1.1/DTD/svg11.dtd"><svg xmlns="http://www.w3.org/2000/svg" version="1.1" width="182px" height="86.4px" viewBox="0 -5 182 86.4" style="top:-5px">  <desc>On demand expertise at your disposal</desc>  <defs/>  <g id="Polygon16385">    <path d="M 60.9 69.4 L 57.8 69.4 L 57.8 68 C 57.8 68 57.77 68.02 57.8 68 C 57.3 68.8 56 69.7 54.5 69.7 C 51.3 69.7 49.2 67.4 49.2 64.2 C 49.2 61.2 51.1 58.5 54.1 58.5 C 55.5 58.5 56.8 58.8 57.5 59.9 C 57.51 59.88 57.6 59.9 57.6 59.9 L 57.6 52.8 L 60.9 52.8 L 60.9 69.4 Z M 55.2 61.4 C 53.5 61.4 52.5 62.5 52.5 64.1 C 52.5 65.7 53.5 66.8 55.2 66.8 C 56.8 66.8 57.8 65.7 57.8 64.1 C 57.8 62.5 56.8 61.4 55.2 61.4 Z M 63.5 58.7 L 66.8 58.7 L 66.8 69.4 L 63.5 69.4 L 63.5 58.7 Z M 65.2 53.5 C 66.2 53.5 67.1 54.3 67.1 55.4 C 67.1 56.4 66.2 57.3 65.2 57.3 C 64.1 57.3 63.3 56.4 63.3 55.4 C 63.3 54.3 64.1 53.5 65.2 53.5 Z M 75.3 61.9 C 74.8 61.3 74.1 61 73.3 61 C 72.8 61 72.1 61.2 72.1 61.9 C 72.1 63.4 77.7 62.1 77.7 66.2 C 77.7 68.9 75.1 69.7 72.8 69.7 C 71.3 69.7 69.6 69.3 68.6 68.2 C 68.6 68.2 70.6 66 70.6 66 C 71.2 66.8 71.9 67.2 72.9 67.2 C 73.7 67.2 74.4 67 74.4 66.4 C 74.4 64.7 68.8 66.2 68.8 62.1 C 68.8 59.6 71.1 58.5 73.3 58.5 C 74.7 58.5 76.3 58.8 77.3 59.9 C 77.3 59.9 75.3 61.9 75.3 61.9 Z M 79.7 58.7 L 82.7 58.7 L 82.7 60.1 C 82.7 60.1 82.79 60.15 82.8 60.1 C 83.3 59.4 84.6 58.5 86.1 58.5 C 89.2 58.5 91.3 60.8 91.3 64 C 91.3 67 89.5 69.7 86.4 69.7 C 85.1 69.7 83.8 69.3 83 68.3 C 83.05 68.29 83 68.3 83 68.3 L 83 74.4 L 79.7 74.4 L 79.7 58.7 Z M 85.4 66.8 C 87 66.8 88 65.7 88 64.1 C 88 62.5 87 61.4 85.4 61.4 C 83.7 61.4 82.7 62.5 82.7 64.1 C 82.7 65.7 83.7 66.8 85.4 66.8 Z M 98.8 58.5 C 102.1 58.5 104.7 60.7 104.7 64.1 C 104.7 67.5 102.1 69.7 98.8 69.7 C 95.5 69.7 92.9 67.5 92.9 64.1 C 92.9 60.7 95.5 58.5 98.8 58.5 Z M 98.8 66.8 C 100.5 66.8 101.4 65.7 101.4 64.1 C 101.4 62.5 100.5 61.4 98.8 61.4 C 97.2 61.4 96.2 62.5 96.2 64.1 C 96.2 65.7 97.2 66.8 98.8 66.8 Z M 112.7 61.9 C 112.2 61.3 111.6 61 110.8 61 C 110.3 61 109.6 61.2 109.6 61.9 C 109.6 63.4 115.2 62.1 115.2 66.2 C 115.2 68.9 112.5 69.7 110.2 69.7 C 108.7 69.7 107.1 69.3 106 68.2 C 106 68.2 108 66 108 66 C 108.7 66.8 109.4 67.2 110.4 67.2 C 111.1 67.2 111.9 67 111.9 66.4 C 111.9 64.7 106.3 66.2 106.3 62.1 C 106.3 59.6 108.5 58.5 110.8 58.5 C 112.2 58.5 113.8 58.8 114.8 59.9 C 114.8 59.9 112.7 61.9 112.7 61.9 Z M 123.6 68.1 C 123.6 68.1 123.53 68.09 123.5 68.1 C 122.8 69.2 121.5 69.7 120.1 69.7 C 118.1 69.7 116.3 68.6 116.3 66.4 C 116.3 62.7 120.8 62.6 123.6 62.6 C 123.6 61.5 122.6 60.7 121.5 60.7 C 120.4 60.7 119.5 61.2 118.8 62 C 118.8 62 117 60.2 117 60.2 C 118.2 59 120 58.5 121.7 58.5 C 125.6 58.5 126.6 60.4 126.6 64 C 126.61 64 126.6 69.4 126.6 69.4 L 123.6 69.4 L 123.6 68.1 Z M 122.8 64.7 C 121.7 64.7 119.5 64.8 119.5 66.3 C 119.5 67.1 120.3 67.5 121.1 67.5 C 122.4 67.5 123.6 66.8 123.6 65.4 C 123.57 65.45 123.6 64.7 123.6 64.7 C 123.6 64.7 122.76 64.75 122.8 64.7 Z M 128.7 52.8 L 132 52.8 L 132 69.4 L 128.7 69.4 L 128.7 52.8 Z " stroke="none" fill="#fff"/>  </g>  <g id="Polygon16384">    <path d="M 12.7 41.2 C 11.7 42.5 9.9 43.3 8.2 43.3 C 4.9 43.3 2.3 41.1 2.3 37.7 C 2.3 34.3 4.9 32.1 8.2 32.1 C 11.3 32.1 13.2 34.3 13.2 37.7 C 13.23 37.69 13.2 38.7 13.2 38.7 C 13.2 38.7 5.58 38.72 5.6 38.7 C 5.8 40 6.8 40.8 8.1 40.8 C 9.1 40.8 9.9 40.2 10.4 39.5 C 10.4 39.5 12.7 41.2 12.7 41.2 Z M 9.9 36.5 C 10 35.4 9.1 34.5 7.9 34.5 C 6.5 34.5 5.7 35.4 5.6 36.5 C 5.6 36.5 9.9 36.5 9.9 36.5 Z M 18.1 37.3 L 14.6 32.3 L 18.4 32.3 L 20.3 35.2 L 22.2 32.3 L 25.8 32.3 L 22.4 37.3 L 26.5 43 L 22.6 43 L 20.3 39.5 L 17.7 43 L 13.9 43 L 18.1 37.3 Z M 27.8 32.3 L 30.8 32.3 L 30.8 33.7 C 30.8 33.7 30.86 33.75 30.9 33.7 C 31.4 33 32.6 32.1 34.1 32.1 C 37.3 32.1 39.4 34.4 39.4 37.6 C 39.4 40.6 37.5 43.3 34.5 43.3 C 33.1 43.3 31.9 42.9 31.1 41.9 C 31.12 41.89 31.1 41.9 31.1 41.9 L 31.1 48 L 27.8 48 L 27.8 32.3 Z M 33.5 40.4 C 35.1 40.4 36.1 39.3 36.1 37.7 C 36.1 36.1 35.1 35 33.5 35 C 31.8 35 30.8 36.1 30.8 37.7 C 30.8 39.3 31.8 40.4 33.5 40.4 Z M 51.4 41.2 C 50.4 42.5 48.7 43.3 46.9 43.3 C 43.6 43.3 41 41.1 41 37.7 C 41 34.3 43.6 32.1 46.9 32.1 C 50 32.1 52 34.3 52 37.7 C 51.95 37.69 52 38.7 52 38.7 C 52 38.7 44.3 38.72 44.3 38.7 C 44.6 40 45.5 40.8 46.8 40.8 C 47.9 40.8 48.6 40.2 49.1 39.5 C 49.1 39.5 51.4 41.2 51.4 41.2 Z M 48.7 36.5 C 48.7 35.4 47.8 34.5 46.6 34.5 C 45.2 34.5 44.4 35.4 44.3 36.5 C 44.3 36.5 48.7 36.5 48.7 36.5 Z M 54 32.3 L 57.3 32.3 L 57.3 34.1 C 57.3 34.1 57.3 34.06 57.3 34.1 C 58 32.8 58.9 32.1 60.4 32.1 C 60.8 32.1 61.2 32.1 61.5 32.2 C 61.5 32.2 61.5 35.2 61.5 35.2 C 61 35.1 60.6 35 60.1 35 C 57.6 35 57.3 36.4 57.3 38.6 C 57.26 38.57 57.3 43 57.3 43 L 54 43 L 54 32.3 Z M 70.2 35 L 67.3 35 C 67.3 35 67.29 38.54 67.3 38.5 C 67.3 39.7 67.4 40.5 68.8 40.5 C 69.2 40.5 69.9 40.5 70.2 40.2 C 70.2 40.2 70.2 43 70.2 43 C 69.5 43.2 68.7 43.3 67.9 43.3 C 65.7 43.3 64 42.4 64 40.1 C 63.99 40.06 64 35 64 35 L 61.9 35 L 61.9 32.3 L 64 32.3 L 64 29.2 L 67.3 29.2 L 67.3 32.3 L 70.2 32.3 L 70.2 35 Z M 71.9 32.3 L 75.2 32.3 L 75.2 43 L 71.9 43 L 71.9 32.3 Z M 73.6 27.1 C 74.6 27.1 75.5 27.9 75.5 29 C 75.5 30 74.6 30.9 73.6 30.9 C 72.5 30.9 71.6 30 71.6 29 C 71.6 27.9 72.5 27.1 73.6 27.1 Z M 83.6 35.5 C 83.1 34.9 82.5 34.6 81.7 34.6 C 81.2 34.6 80.5 34.8 80.5 35.5 C 80.5 37 86.1 35.7 86.1 39.8 C 86.1 42.5 83.4 43.3 81.1 43.3 C 79.7 43.3 78 42.9 76.9 41.8 C 76.9 41.8 78.9 39.6 78.9 39.6 C 79.6 40.4 80.3 40.8 81.3 40.8 C 82 40.8 82.8 40.6 82.8 40 C 82.8 38.3 77.2 39.8 77.2 35.7 C 77.2 33.2 79.5 32.1 81.7 32.1 C 83.1 32.1 84.7 32.4 85.7 33.5 C 85.7 33.5 83.6 35.5 83.6 35.5 Z M 97.9 41.2 C 96.8 42.5 95.1 43.3 93.4 43.3 C 90.1 43.3 87.4 41.1 87.4 37.7 C 87.4 34.3 90.1 32.1 93.4 32.1 C 96.5 32.1 98.4 34.3 98.4 37.7 C 98.39 37.69 98.4 38.7 98.4 38.7 C 98.4 38.7 90.74 38.72 90.7 38.7 C 91 40 91.9 40.8 93.2 40.8 C 94.3 40.8 95 40.2 95.6 39.5 C 95.6 39.5 97.9 41.2 97.9 41.2 Z M 95.1 36.5 C 95.1 35.4 94.3 34.5 93.1 34.5 C 91.6 34.5 90.8 35.4 90.7 36.5 C 90.7 36.5 95.1 36.5 95.1 36.5 Z M 113.6 41.7 C 113.6 41.7 113.57 41.69 113.6 41.7 C 112.8 42.8 111.5 43.3 110.2 43.3 C 108.2 43.3 106.4 42.2 106.4 40 C 106.4 36.3 110.9 36.2 113.6 36.2 C 113.6 35.1 112.7 34.3 111.5 34.3 C 110.4 34.3 109.5 34.8 108.8 35.6 C 108.8 35.6 107.1 33.8 107.1 33.8 C 108.3 32.6 110 32.1 111.8 32.1 C 115.6 32.1 116.7 34 116.7 37.6 C 116.65 37.6 116.7 43 116.7 43 L 113.6 43 L 113.6 41.7 Z M 112.8 38.3 C 111.8 38.3 109.5 38.4 109.5 39.9 C 109.5 40.7 110.4 41.1 111.1 41.1 C 112.4 41.1 113.6 40.4 113.6 39 C 113.62 39.05 113.6 38.3 113.6 38.3 C 113.6 38.3 112.8 38.35 112.8 38.3 Z M 126 35 L 123.1 35 C 123.1 35 123.1 38.54 123.1 38.5 C 123.1 39.7 123.2 40.5 124.7 40.5 C 125 40.5 125.7 40.5 126 40.2 C 126 40.2 126 43 126 43 C 125.3 43.2 124.5 43.3 123.7 43.3 C 121.5 43.3 119.8 42.4 119.8 40.1 C 119.8 40.06 119.8 35 119.8 35 L 117.7 35 L 117.7 32.3 L 119.8 32.3 L 119.8 29.2 L 123.1 29.2 L 123.1 32.3 L 126 32.3 L 126 35 Z M 140.3 44.8 C 139.5 47 139 48.3 135.8 48.3 C 135 48.3 134.1 48.2 133.4 47.9 C 133.4 47.9 133.8 45.2 133.8 45.2 C 134.3 45.4 134.8 45.5 135.3 45.5 C 136.8 45.5 137.1 44.9 137.5 43.7 C 137.53 43.74 137.8 43.1 137.8 43.1 L 133.1 32.3 L 136.7 32.3 L 139.4 39.4 L 139.4 39.4 L 141.8 32.3 L 145.2 32.3 C 145.2 32.3 140.35 44.77 140.3 44.8 Z M 152 32.1 C 155.3 32.1 157.9 34.3 157.9 37.7 C 157.9 41.1 155.3 43.3 152 43.3 C 148.7 43.3 146 41.1 146 37.7 C 146 34.3 148.7 32.1 152 32.1 Z M 152 40.4 C 153.6 40.4 154.6 39.3 154.6 37.7 C 154.6 36.1 153.6 35 152 35 C 150.3 35 149.3 36.1 149.3 37.7 C 149.3 39.3 150.3 40.4 152 40.4 Z M 170.1 43 L 167 43 L 167 41.6 C 167 41.6 166.92 41.58 166.9 41.6 C 166.5 42.4 165.4 43.3 163.8 43.3 C 160.5 43.3 159.8 41.1 159.8 38.2 C 159.84 38.24 159.8 32.3 159.8 32.3 L 163.1 32.3 C 163.1 32.3 163.14 37.58 163.1 37.6 C 163.1 38.8 163.2 40.4 164.9 40.4 C 166.6 40.4 166.8 39 166.8 37.7 C 166.84 37.66 166.8 32.3 166.8 32.3 L 170.1 32.3 L 170.1 43 Z M 172.5 32.3 L 175.8 32.3 L 175.8 34.1 C 175.8 34.1 175.81 34.06 175.8 34.1 C 176.5 32.8 177.4 32.1 178.9 32.1 C 179.3 32.1 179.7 32.1 180 32.2 C 180 32.2 180 35.2 180 35.2 C 179.5 35.1 179.1 35 178.6 35 C 176.1 35 175.8 36.4 175.8 38.6 C 175.77 38.57 175.8 43 175.8 43 L 172.5 43 L 172.5 32.3 Z " stroke="none" fill="#fff"/>  </g>  <g id="Polygon16383">    <path d="M 39.3 0.7 C 44.2 0.7 47.7 3.8 47.7 8.8 C 47.7 13.8 44.2 17 39.3 17 C 34.5 17 30.9 13.8 30.9 8.8 C 30.9 3.8 34.5 0.7 39.3 0.7 Z M 39.3 13.9 C 42.2 13.9 44.2 11.7 44.2 8.8 C 44.2 5.9 42.2 3.8 39.3 3.8 C 36.4 3.8 34.5 5.9 34.5 8.8 C 34.5 11.7 36.4 13.9 39.3 13.9 Z M 49.6 5.9 L 52.8 5.9 L 52.8 7.4 C 52.8 7.4 52.84 7.39 52.8 7.4 C 53.3 6.6 54.4 5.7 56 5.7 C 59.3 5.7 59.9 7.9 59.9 10.7 C 59.93 10.74 59.9 16.6 59.9 16.6 L 56.6 16.6 C 56.6 16.6 56.63 11.4 56.6 11.4 C 56.6 10.2 56.6 8.6 54.9 8.6 C 53.2 8.6 52.9 9.9 52.9 11.3 C 52.93 11.31 52.9 16.6 52.9 16.6 L 49.6 16.6 L 49.6 5.9 Z M 67.1 12.5 L 61.6 12.5 L 61.6 9.8 L 67.1 9.8 L 67.1 12.5 Z M 80 16.6 L 77 16.6 L 77 15.2 C 77 15.2 76.91 15.22 76.9 15.2 C 76.4 16 75.1 16.9 73.6 16.9 C 70.5 16.9 68.4 14.6 68.4 11.4 C 68.4 8.4 70.2 5.7 73.3 5.7 C 74.6 5.7 75.9 6 76.6 7.1 C 76.65 7.08 76.7 7.1 76.7 7.1 L 76.7 0 L 80 0 L 80 16.6 Z M 74.3 8.6 C 72.7 8.6 71.7 9.7 71.7 11.3 C 71.7 12.9 72.7 14 74.3 14 C 76 14 77 12.9 77 11.3 C 77 9.7 76 8.6 74.3 8.6 Z M 92.8 14.8 C 91.7 16.1 90 16.9 88.2 16.9 C 84.9 16.9 82.3 14.7 82.3 11.3 C 82.3 7.9 84.9 5.7 88.2 5.7 C 91.3 5.7 93.3 7.9 93.3 11.3 C 93.26 11.29 93.3 12.3 93.3 12.3 C 93.3 12.3 85.6 12.32 85.6 12.3 C 85.9 13.6 86.8 14.4 88.1 14.4 C 89.2 14.4 89.9 13.8 90.4 13.1 C 90.4 13.1 92.8 14.8 92.8 14.8 Z M 90 10.1 C 90 9 89.1 8.1 87.9 8.1 C 86.5 8.1 85.7 9 85.6 10.1 C 85.6 10.1 90 10.1 90 10.1 Z M 95.3 5.9 L 98.4 5.9 L 98.4 7.4 C 98.4 7.4 98.47 7.39 98.5 7.4 C 98.9 6.6 100 5.7 101.6 5.7 C 103.1 5.7 104.3 6.3 104.9 7.6 C 105.7 6.2 106.7 5.7 108.3 5.7 C 111.2 5.7 112.1 7.7 112.1 10.3 C 112.07 10.32 112.1 16.6 112.1 16.6 L 108.8 16.6 C 108.8 16.6 108.77 10.41 108.8 10.4 C 108.8 9.4 108.4 8.6 107.3 8.6 C 105.8 8.6 105.3 9.7 105.3 11 C 105.31 10.98 105.3 16.6 105.3 16.6 L 102 16.6 C 102 16.6 102.01 10.98 102 11 C 102 10.2 102.1 8.6 100.5 8.6 C 98.8 8.6 98.6 9.9 98.6 11.3 C 98.56 11.31 98.6 16.6 98.6 16.6 L 95.3 16.6 L 95.3 5.9 Z M 121.1 15.3 C 121.1 15.3 121.07 15.29 121.1 15.3 C 120.3 16.4 119 16.9 117.7 16.9 C 115.7 16.9 113.9 15.8 113.9 13.6 C 113.9 9.9 118.4 9.8 121.1 9.8 C 121.1 8.7 120.1 7.9 119 7.9 C 117.9 7.9 117 8.4 116.3 9.2 C 116.3 9.2 114.6 7.4 114.6 7.4 C 115.8 6.2 117.5 5.7 119.3 5.7 C 123.1 5.7 124.1 7.6 124.1 11.2 C 124.15 11.2 124.1 16.6 124.1 16.6 L 121.1 16.6 L 121.1 15.3 Z M 120.3 11.9 C 119.3 11.9 117 12 117 13.5 C 117 14.3 117.9 14.7 118.6 14.7 C 119.9 14.7 121.1 14 121.1 12.6 C 121.11 12.65 121.1 11.9 121.1 11.9 C 121.1 11.9 120.3 11.95 120.3 11.9 Z M 126.2 5.9 L 129.4 5.9 L 129.4 7.4 C 129.4 7.4 129.42 7.39 129.4 7.4 C 129.9 6.6 130.9 5.7 132.5 5.7 C 135.9 5.7 136.5 7.9 136.5 10.7 C 136.51 10.74 136.5 16.6 136.5 16.6 L 133.2 16.6 C 133.2 16.6 133.21 11.4 133.2 11.4 C 133.2 10.2 133.2 8.6 131.5 8.6 C 129.8 8.6 129.5 9.9 129.5 11.3 C 129.51 11.31 129.5 16.6 129.5 16.6 L 126.2 16.6 L 126.2 5.9 Z M 150.1 16.6 L 147 16.6 L 147 15.2 C 147 15.2 146.98 15.22 147 15.2 C 146.5 16 145.2 16.9 143.7 16.9 C 140.5 16.9 138.4 14.6 138.4 11.4 C 138.4 8.4 140.3 5.7 143.3 5.7 C 144.7 5.7 146 6 146.7 7.1 C 146.72 7.08 146.8 7.1 146.8 7.1 L 146.8 0 L 150.1 0 L 150.1 16.6 Z M 144.4 8.6 C 142.7 8.6 141.7 9.7 141.7 11.3 C 141.7 12.9 142.7 14 144.4 14 C 146 14 147 12.9 147 11.3 C 147 9.7 146 8.6 144.4 8.6 Z " stroke="none" fill="#fff"/>  </g></svg>